# MagicaVoxel @ Ephtracy

# group
o 

# material
mtllib untitled.mtl
usemtl palette

# normals
vn -1 0 0
vn 1 0 0
vn 0 0 1
vn 0 0 -1
vn 0 -1 0
vn 0 1 0

# texcoords
vt 0.228516 0.5
vt 0.533203 0.5
vt 0.537109 0.5

# verts
v -0.5 0 0.5
v -0.5 0 0.3
v -0.5 0 0.2
v -0.5 0 0
v -0.5 0 -0.1
v -0.5 0 -0.3
v -0.5 0 -0.4
v -0.5 0 -0.5
v -0.5 0.1 0.3
v -0.5 0.1 0.2
v -0.5 0.1 0.1
v -0.5 0.1 0
v -0.5 0.1 -0.1
v -0.5 0.1 -0.2
v -0.5 0.1 -0.3
v -0.5 0.1 -0.4
v -0.5 0.2 0.5
v -0.5 0.2 0.4
v -0.5 0.2 0.2
v -0.5 0.2 0.1
v -0.5 0.2 0
v -0.5 0.2 -0.1
v -0.5 0.2 -0.2
v -0.5 0.3 0.5
v -0.5 0.3 0.4
v -0.5 0.3 0.2
v -0.5 0.3 0.1
v -0.5 0.3 -0.3
v -0.5 0.3 -0.4
v -0.5 0.4 0.2
v -0.5 0.4 0.1
v -0.5 0.4 -0.3
v -0.5 0.4 -0.4
v -0.5 0.5 0.5
v -0.5 0.5 0.4
v -0.5 0.5 0.2
v -0.5 0.5 0.1
v -0.5 0.5 0
v -0.5 0.5 -0.2
v -0.5 0.5 -0.3
v -0.5 0.5 -0.4
v -0.5 0.6 0.5
v -0.5 0.6 0.4
v -0.5 0.6 0.1
v -0.5 0.6 0
v -0.5 0.6 -0.2
v -0.5 0.6 -0.3
v -0.5 0.7 0.2
v -0.5 0.7 0
v -0.5 0.7 -0.4
v -0.5 0.7 -0.5
v -0.5 0.8 0.2
v -0.5 0.8 0
v -0.5 0.8 -0.1
v -0.5 0.8 -0.4
v -0.5 0.8 -0.5
v -0.5 0.9 0.4
v -0.5 0.9 0.3
v -0.5 0.9 0
v -0.5 0.9 -0.1
v -0.5 0.9 -0.4
v -0.5 0.9 -0.5
v -0.5 1 0.5
v -0.5 1 0.4
v -0.5 1 0.3
v -0.5 1 -0.4
v -0.5 1 -0.5
v 0.5 0 0.5
v 0.5 0 0.3
v 0.5 0 0.2
v 0.5 0 -0.2
v 0.5 0 -0.3
v 0.5 0 -0.5
v 0.5 0.1 0.3
v 0.5 0.1 0.2
v 0.5 0.1 -0.1
v 0.5 0.1 -0.2
v 0.5 0.1 -0.3
v 0.5 0.2 0.4
v 0.5 0.2 0.3
v 0.5 0.2 0.1
v 0.5 0.2 0
v 0.5 0.2 -0.1
v 0.5 0.2 -0.2
v 0.5 0.3 0.5
v 0.5 0.3 0.4
v 0.5 0.3 0.3
v 0.5 0.3 0.1
v 0.5 0.3 0
v 0.5 0.3 -0.1
v 0.5 0.3 -0.2
v 0.5 0.3 -0.3
v 0.5 0.4 0.5
v 0.5 0.4 0.4
v 0.5 0.4 0
v 0.5 0.4 -0.1
v 0.5 0.4 -0.4
v 0.5 0.4 -0.5
v 0.5 0.5 -0.1
v 0.5 0.5 -0.2
v 0.5 0.5 -0.3
v 0.5 0.5 -0.4
v 0.5 0.5 -0.5
v 0.5 0.6 0.4
v 0.5 0.6 0.3
v 0.5 0.6 0.2
v 0.5 0.6 0
v 0.5 0.6 -0.1
v 0.5 0.6 -0.2
v 0.5 0.6 -0.3
v 0.5 0.6 -0.4
v 0.5 0.7 0.4
v 0.5 0.7 0.3
v 0.5 0.7 0.2
v 0.5 0.7 0
v 0.5 0.7 -0.1
v 0.5 0.8 0.5
v 0.5 0.8 0.4
v 0.5 0.8 0
v 0.5 0.8 -0.1
v 0.5 0.8 -0.3
v 0.5 0.8 -0.4
v 0.5 0.9 0.5
v 0.5 0.9 0.4
v 0.5 0.9 0.3
v 0.5 0.9 0.2
v 0.5 0.9 0.1
v 0.5 0.9 0
v 0.5 0.9 -0.3
v 0.5 0.9 -0.4
v 0.5 1 0.5
v 0.5 1 0.3
v 0.5 1 0.2
v 0.5 1 0.1
v 0.5 1 0
v 0.5 1 -0.5
v -0.5 0 0.5
v -0.5 0.2 0.5
v -0.5 0.3 0.5
v -0.5 0.5 0.5
v -0.5 0.6 0.5
v -0.5 1 0.5
v -0.4 0.2 0.5
v -0.4 0.3 0.5
v -0.4 0.4 0.5
v -0.4 0.5 0.5
v -0.4 0.6 0.5
v -0.4 0.7 0.5
v -0.4 0.8 0.5
v -0.3 0.1 0.5
v -0.3 0.2 0.5
v -0.3 0.4 0.5
v -0.3 0.5 0.5
v -0.3 0.6 0.5
v -0.3 0.7 0.5
v -0.3 0.8 0.5
v -0.3 0.9 0.5
v -0.2 0 0.5
v -0.2 0.1 0.5
v -0.2 0.2 0.5
v -0.2 0.3 0.5
v -0.2 0.4 0.5
v -0.2 0.8 0.5
v -0.2 0.9 0.5
v -0.1 0 0.5
v -0.1 0.1 0.5
v -0.1 0.3 0.5
v -0.1 0.4 0.5
v -0.1 0.5 0.5
v -0.1 0.6 0.5
v -0.1 0.7 0.5
v 0 0.3 0.5
v 0 0.4 0.5
v 0 0.6 0.5
v 0 0.7 0.5
v 0 0.8 0.5
v 0.1 0.1 0.5
v 0.1 0.2 0.5
v 0.1 0.3 0.5
v 0.1 0.4 0.5
v 0.1 0.7 0.5
v 0.1 0.8 0.5
v 0.1 0.9 0.5
v 0.1 1 0.5
v 0.2 0.1 0.5
v 0.2 0.2 0.5
v 0.2 0.3 0.5
v 0.2 0.4 0.5
v 0.2 0.5 0.5
v 0.2 0.6 0.5
v 0.2 0.9 0.5
v 0.2 1 0.5
v 0.3 0 0.5
v 0.3 0.1 0.5
v 0.3 0.3 0.5
v 0.3 0.4 0.5
v 0.3 0.7 0.5
v 0.3 0.8 0.5
v 0.3 0.9 0.5
v 0.3 1 0.5
v 0.4 0 0.5
v 0.4 0.1 0.5
v 0.4 0.3 0.5
v 0.4 0.4 0.5
v 0.4 0.5 0.5
v 0.4 0.6 0.5
v 0.4 0.7 0.5
v 0.4 0.8 0.5
v 0.4 0.9 0.5
v 0.4 1 0.5
v 0.5 0 0.5
v 0.5 0.3 0.5
v 0.5 0.4 0.5
v 0.5 0.8 0.5
v 0.5 0.9 0.5
v 0.5 1 0.5
v -0.5 0 -0.5
v -0.5 0.7 -0.5
v -0.5 0.8 -0.5
v -0.5 0.9 -0.5
v -0.5 1 -0.5
v -0.4 0.2 -0.5
v -0.4 0.3 -0.5
v -0.4 0.7 -0.5
v -0.4 0.8 -0.5
v -0.4 0.9 -0.5
v -0.4 1 -0.5
v -0.3 0 -0.5
v -0.3 0.1 -0.5
v -0.3 0.2 -0.5
v -0.3 0.3 -0.5
v -0.3 0.4 -0.5
v -0.3 0.5 -0.5
v -0.3 0.6 -0.5
v -0.2 0 -0.5
v -0.2 0.1 -0.5
v -0.2 0.5 -0.5
v -0.2 0.6 -0.5
v -0.1 0 -0.5
v -0.1 0.1 -0.5
v -0.1 0.3 -0.5
v -0.1 0.4 -0.5
v -0.1 0.5 -0.5
v -0.1 0.6 -0.5
v -0.1 0.7 -0.5
v 0 0 -0.5
v 0 0.1 -0.5
v 0 0.2 -0.5
v 0 0.3 -0.5
v 0 0.4 -0.5
v 0 0.6 -0.5
v 0 0.7 -0.5
v 0 0.8 -0.5
v 0 0.9 -0.5
v 0.1 0 -0.5
v 0.1 0.2 -0.5
v 0.1 0.6 -0.5
v 0.1 0.7 -0.5
v 0.1 0.8 -0.5
v 0.1 0.9 -0.5
v 0.1 1 -0.5
v 0.2 0.2 -0.5
v 0.2 0.3 -0.5
v 0.2 0.6 -0.5
v 0.2 0.7 -0.5
v 0.2 0.8 -0.5
v 0.2 0.9 -0.5
v 0.2 1 -0.5
v 0.3 0.2 -0.5
v 0.3 0.3 -0.5
v 0.3 0.5 -0.5
v 0.3 0.6 -0.5
v 0.4 0.4 -0.5
v 0.4 0.5 -0.5
v 0.4 0.6 -0.5
v 0.4 0.8 -0.5
v 0.4 0.9 -0.5
v 0.5 0 -0.5
v 0.5 0.4 -0.5
v 0.5 0.5 -0.5
v 0.5 1 -0.5
v -0.5 0 0.5
v -0.2 0 0.5
v -0.1 0 0.5
v 0.3 0 0.5
v 0.4 0 0.5
v 0.5 0 0.5
v -0.4 0 0.4
v -0.3 0 0.4
v -0.2 0 0.4
v -0.1 0 0.4
v 0 0 0.4
v 0.1 0 0.4
v 0.3 0 0.4
v 0.4 0 0.4
v -0.5 0 0.3
v -0.4 0 0.3
v -0.3 0 0.3
v 0 0 0.3
v 0.1 0 0.3
v 0.2 0 0.3
v 0.4 0 0.3
v 0.5 0 0.3
v -0.5 0 0.2
v -0.4 0 0.2
v -0.3 0 0.2
v -0.2 0 0.2
v -0.1 0 0.2
v 0.1 0 0.2
v 0.2 0 0.2
v 0.4 0 0.2
v 0.5 0 0.2
v -0.3 0 0.1
v -0.2 0 0.1
v -0.5 0 0
v -0.4 0 0
v -0.2 0 0
v -0.1 0 0
v 0 0 0
v 0.2 0 0
v 0.3 0 0
v -0.5 0 -0.1
v -0.4 0 -0.1
v -0.3 0 -0.1
v -0.1 0 -0.1
v 0 0 -0.1
v 0.1 0 -0.1
v 0.2 0 -0.1
v 0.3 0 -0.1
v -0.4 0 -0.2
v -0.3 0 -0.2
v -0.1 0 -0.2
v 0 0 -0.2
v 0.1 0 -0.2
v 0.4 0 -0.2
v 0.5 0 -0.2
v -0.5 0 -0.3
v -0.4 0 -0.3
v -0.3 0 -0.3
v 0.3 0 -0.3
v 0.4 0 -0.3
v 0.5 0 -0.3
v -0.5 0 -0.4
v -0.4 0 -0.4
v -0.3 0 -0.4
v -0.2 0 -0.4
v -0.1 0 -0.4
v 0 0 -0.4
v 0.1 0 -0.4
v 0.3 0 -0.4
v 0.4 0 -0.4
v -0.5 0 -0.5
v -0.3 0 -0.5
v -0.2 0 -0.5
v -0.1 0 -0.5
v 0 0 -0.5
v 0.1 0 -0.5
v 0.5 0 -0.5
v -0.5 1 0.5
v 0.1 1 0.5
v 0.2 1 0.5
v 0.3 1 0.5
v 0.4 1 0.5
v 0.5 1 0.5
v -0.5 1 0.4
v -0.4 1 0.4
v 0.1 1 0.4
v 0.2 1 0.4
v 0.3 1 0.4
v 0.4 1 0.4
v -0.5 1 0.3
v -0.4 1 0.3
v -0.3 1 0.3
v -0.2 1 0.3
v -0.1 1 0.3
v 0 1 0.3
v 0.4 1 0.3
v 0.5 1 0.3
v -0.2 1 0.2
v -0.1 1 0.2
v 0 1 0.2
v 0.2 1 0.2
v 0.4 1 0.2
v 0.5 1 0.2
v -0.4 1 0.1
v -0.3 1 0.1
v -0.1 1 0.1
v 0 1 0.1
v 0.1 1 0.1
v 0.2 1 0.1
v 0.4 1 0.1
v 0.5 1 0.1
v 0.1 1 0
v 0.2 1 0
v 0.4 1 0
v 0.5 1 0
v -0.3 1 -0.1
v -0.2 1 -0.1
v 0 1 -0.1
v 0.1 1 -0.1
v 0.3 1 -0.1
v 0.4 1 -0.1
v -0.4 1 -0.2
v -0.3 1 -0.2
v -0.2 1 -0.2
v -0.1 1 -0.2
v 0 1 -0.2
v 0.1 1 -0.2
v 0.2 1 -0.2
v 0.3 1 -0.2
v 0.4 1 -0.2
v -0.4 1 -0.3
v -0.3 1 -0.3
v -0.2 1 -0.3
v -0.1 1 -0.3
v 0 1 -0.3
v -0.5 1 -0.4
v -0.4 1 -0.4
v -0.2 1 -0.4
v -0.1 1 -0.4
v 0.1 1 -0.4
v 0.2 1 -0.4
v 0.3 1 -0.4
v -0.5 1 -0.5
v -0.4 1 -0.5
v 0.1 1 -0.5
v 0.2 1 -0.5
v 0.5 1 -0.5

# faces
f 9/3/1 2/3/1 1/3/1
f 9/1/1 3/1/1 2/1/1
f 10/3/1 4/3/1 3/3/1
f 10/1/1 3/1/1 9/1/1
f 11/3/1 4/3/1 10/3/1
f 12/1/1 5/1/1 4/1/1
f 12/3/1 4/3/1 11/3/1
f 13/3/1 6/3/1 5/3/1
f 13/1/1 5/1/1 12/1/1
f 14/3/1 6/3/1 13/3/1
f 15/1/1 7/1/1 6/1/1
f 15/3/1 6/3/1 14/3/1
f 16/3/1 8/3/1 7/3/1
f 16/1/1 7/1/1 15/1/1
f 17/3/1 9/3/1 1/3/1
f 17/3/1 11/3/1 10/3/1
f 17/3/1 10/3/1 9/3/1
f 18/3/1 11/3/1 17/3/1
f 19/3/1 11/3/1 18/3/1
f 20/2/1 12/2/1 11/2/1
f 20/3/1 11/3/1 19/3/1
f 21/1/1 13/1/1 12/1/1
f 21/2/1 12/2/1 20/2/1
f 22/2/1 14/2/1 13/2/1
f 22/1/1 13/1/1 21/1/1
f 23/3/1 15/3/1 14/3/1
f 23/2/1 14/2/1 22/2/1
f 23/3/1 16/3/1 15/3/1
f 24/1/1 18/1/1 17/1/1
f 25/3/1 19/3/1 18/3/1
f 25/1/1 18/1/1 24/1/1
f 26/2/1 20/2/1 19/2/1
f 26/3/1 19/3/1 25/3/1
f 27/3/1 22/3/1 21/3/1
f 27/2/1 20/2/1 26/2/1
f 27/3/1 21/3/1 20/3/1
f 27/3/1 23/3/1 22/3/1
f 28/3/1 16/3/1 23/3/1
f 28/3/1 23/3/1 27/3/1
f 29/3/1 8/3/1 16/3/1
f 29/3/1 16/3/1 28/3/1
f 30/3/1 26/3/1 25/3/1
f 30/3/1 28/3/1 27/3/1
f 30/3/1 27/3/1 26/3/1
f 30/3/1 25/3/1 24/3/1
f 31/3/1 28/3/1 30/3/1
f 32/2/1 29/2/1 28/2/1
f 32/3/1 28/3/1 31/3/1
f 33/3/1 8/3/1 29/3/1
f 33/2/1 29/2/1 32/2/1
f 34/3/1 30/3/1 24/3/1
f 35/3/1 30/3/1 34/3/1
f 36/1/1 31/1/1 30/1/1
f 36/3/1 30/3/1 35/3/1
f 37/3/1 32/3/1 31/3/1
f 37/1/1 31/1/1 36/1/1
f 38/3/1 32/3/1 37/3/1
f 39/3/1 32/3/1 38/3/1
f 40/1/1 33/1/1 32/1/1
f 40/3/1 32/3/1 39/3/1
f 41/3/1 8/3/1 33/3/1
f 41/1/1 33/1/1 40/1/1
f 42/2/1 35/2/1 34/2/1
f 43/3/1 36/3/1 35/3/1
f 43/2/1 35/2/1 42/2/1
f 43/3/1 37/3/1 36/3/1
f 44/2/1 38/2/1 37/2/1
f 44/3/1 37/3/1 43/3/1
f 45/3/1 39/3/1 38/3/1
f 45/2/1 38/2/1 44/2/1
f 46/2/1 40/2/1 39/2/1
f 46/3/1 39/3/1 45/3/1
f 47/3/1 41/3/1 40/3/1
f 47/2/1 40/2/1 46/2/1
f 48/3/1 45/3/1 44/3/1
f 48/3/1 44/3/1 43/3/1
f 48/3/1 47/3/1 46/3/1
f 48/3/1 43/3/1 42/3/1
f 48/3/1 46/3/1 45/3/1
f 49/3/1 47/3/1 48/3/1
f 50/3/1 8/3/1 41/3/1
f 50/3/1 47/3/1 49/3/1
f 50/3/1 41/3/1 47/3/1
f 51/3/1 8/3/1 50/3/1
f 52/1/1 49/1/1 48/1/1
f 52/3/1 48/3/1 42/3/1
f 53/3/1 50/3/1 49/3/1
f 53/1/1 49/1/1 52/1/1
f 54/3/1 50/3/1 53/3/1
f 55/2/1 51/2/1 50/2/1
f 55/3/1 50/3/1 54/3/1
f 56/2/1 51/2/1 55/2/1
f 57/3/1 52/3/1 42/3/1
f 57/3/1 53/3/1 52/3/1
f 58/3/1 53/3/1 57/3/1
f 59/2/1 54/2/1 53/2/1
f 59/3/1 53/3/1 58/3/1
f 60/3/1 56/3/1 55/3/1
f 60/2/1 54/2/1 59/2/1
f 60/3/1 55/3/1 54/3/1
f 61/3/1 56/3/1 60/3/1
f 62/3/1 56/3/1 61/3/1
f 63/3/1 57/3/1 42/3/1
f 64/2/1 58/2/1 57/2/1
f 64/3/1 57/3/1 63/3/1
f 65/3/1 59/3/1 58/3/1
f 65/2/1 58/2/1 64/2/1
f 65/3/1 60/3/1 59/3/1
f 65/3/1 61/3/1 60/3/1
f 66/1/1 62/1/1 61/1/1
f 66/3/1 61/3/1 65/3/1
f 67/1/1 62/1/1 66/1/1
f 68/3/2 69/3/2 74/3/2
f 69/2/2 70/2/2 74/2/2
f 70/3/2 71/3/2 75/3/2
f 74/2/2 70/2/2 75/2/2
f 75/3/2 71/3/2 76/3/2
f 71/2/2 72/2/2 77/2/2
f 76/3/2 71/3/2 77/3/2
f 72/3/2 73/3/2 78/3/2
f 77/2/2 72/2/2 78/2/2
f 75/3/2 76/3/2 79/3/2
f 68/3/2 74/3/2 79/3/2
f 74/3/2 75/3/2 79/3/2
f 79/3/2 76/3/2 80/3/2
f 80/3/2 76/3/2 81/3/2
f 81/3/2 76/3/2 82/3/2
f 76/2/2 77/2/2 83/2/2
f 82/3/2 76/3/2 83/3/2
f 77/1/2 78/1/2 84/1/2
f 83/2/2 77/2/2 84/2/2
f 68/3/2 79/3/2 85/3/2
f 79/1/2 80/1/2 86/1/2
f 85/3/2 79/3/2 86/3/2
f 80/3/2 81/3/2 87/3/2
f 86/1/2 80/1/2 87/1/2
f 81/2/2 82/2/2 88/2/2
f 87/3/2 81/3/2 88/3/2
f 82/3/2 83/3/2 89/3/2
f 88/2/2 82/2/2 89/2/2
f 83/3/2 84/3/2 89/3/2
f 89/3/2 84/3/2 90/3/2
f 84/1/2 78/1/2 91/1/2
f 90/3/2 84/3/2 91/3/2
f 78/3/2 73/3/2 92/3/2
f 91/1/2 78/1/2 92/1/2
f 85/2/2 86/2/2 93/2/2
f 86/3/2 87/3/2 94/3/2
f 93/2/2 86/2/2 94/2/2
f 87/3/2 88/3/2 94/3/2
f 88/3/2 89/3/2 94/3/2
f 89/2/2 90/2/2 95/2/2
f 94/3/2 89/3/2 95/3/2
f 90/3/2 91/3/2 96/3/2
f 95/2/2 90/2/2 96/2/2
f 91/3/2 92/3/2 96/3/2
f 92/3/2 73/3/2 97/3/2
f 96/3/2 92/3/2 97/3/2
f 97/3/2 73/3/2 98/3/2
f 94/3/2 95/3/2 99/3/2
f 95/3/2 96/3/2 99/3/2
f 93/3/2 94/3/2 99/3/2
f 96/3/2 97/3/2 99/3/2
f 99/3/2 97/3/2 100/3/2
f 100/3/2 97/3/2 101/3/2
f 97/1/2 98/1/2 102/1/2
f 101/3/2 97/3/2 102/3/2
f 102/1/2 98/1/2 103/1/2
f 93/3/2 99/3/2 104/3/2
f 104/3/2 99/3/2 105/3/2
f 105/3/2 99/3/2 106/3/2
f 106/3/2 99/3/2 107/3/2
f 99/1/2 100/1/2 108/1/2
f 107/3/2 99/3/2 108/3/2
f 100/3/2 101/3/2 109/3/2
f 108/1/2 100/1/2 109/1/2
f 101/2/2 102/2/2 110/2/2
f 109/3/2 101/3/2 110/3/2
f 102/3/2 103/3/2 111/3/2
f 110/2/2 102/2/2 111/2/2
f 93/3/2 104/3/2 112/3/2
f 104/2/2 105/2/2 112/2/2
f 105/3/2 106/3/2 113/3/2
f 112/2/2 105/2/2 113/2/2
f 106/1/2 107/1/2 114/1/2
f 113/3/2 106/3/2 114/3/2
f 107/3/2 108/3/2 115/3/2
f 114/1/2 107/1/2 115/1/2
f 108/3/2 109/3/2 115/3/2
f 109/3/2 110/3/2 115/3/2
f 110/3/2 111/3/2 115/3/2
f 115/3/2 111/3/2 116/3/2
f 113/3/2 114/3/2 117/3/2
f 112/3/2 113/3/2 117/3/2
f 93/3/2 112/3/2 117/3/2
f 114/3/2 115/3/2 117/3/2
f 117/3/2 115/3/2 118/3/2
f 115/2/2 116/2/2 119/2/2
f 118/3/2 115/3/2 119/3/2
f 116/3/2 111/3/2 120/3/2
f 119/2/2 116/2/2 120/2/2
f 120/3/2 111/3/2 121/3/2
f 111/3/2 103/3/2 122/3/2
f 121/3/2 111/3/2 122/3/2
f 117/1/2 118/1/2 123/1/2
f 118/3/2 119/3/2 124/3/2
f 123/1/2 118/1/2 124/1/2
f 120/3/2 121/3/2 124/3/2
f 119/3/2 120/3/2 124/3/2
f 124/3/2 121/3/2 125/3/2
f 125/3/2 121/3/2 126/3/2
f 126/3/2 121/3/2 127/3/2
f 127/3/2 121/3/2 128/3/2
f 121/1/2 122/1/2 129/1/2
f 128/3/2 121/3/2 129/3/2
f 122/3/2 103/3/2 130/3/2
f 129/1/2 122/1/2 130/1/2
f 123/3/2 124/3/2 131/3/2
f 124/3/2 125/3/2 131/3/2
f 125/2/2 126/2/2 132/2/2
f 131/3/2 125/3/2 132/3/2
f 126/3/2 127/3/2 133/3/2
f 132/2/2 126/2/2 133/2/2
f 127/1/2 128/1/2 134/1/2
f 133/3/2 127/3/2 134/3/2
f 128/3/2 129/3/2 135/3/2
f 134/1/2 128/1/2 135/1/2
f 129/3/2 130/3/2 135/3/2
f 130/3/2 103/3/2 136/3/2
f 135/3/2 130/3/2 136/3/2
f 143/3/3 138/3/3 137/3/3
f 143/1/3 139/1/3 138/1/3
f 144/3/3 140/3/3 139/3/3
f 144/1/3 139/1/3 143/1/3
f 145/3/3 140/3/3 144/3/3
f 146/2/3 141/2/3 140/2/3
f 146/3/3 140/3/3 145/3/3
f 147/3/3 142/3/3 141/3/3
f 147/2/3 141/2/3 146/2/3
f 148/3/3 142/3/3 147/3/3
f 149/3/3 142/3/3 148/3/3
f 150/3/3 145/3/3 144/3/3
f 150/3/3 143/3/3 137/3/3
f 150/3/3 144/3/3 143/3/3
f 151/3/3 145/3/3 150/3/3
f 152/2/3 146/2/3 145/2/3
f 152/3/3 145/3/3 151/3/3
f 153/3/3 148/3/3 147/3/3
f 153/2/3 146/2/3 152/2/3
f 153/3/3 147/3/3 146/3/3
f 154/3/3 148/3/3 153/3/3
f 155/2/3 149/2/3 148/2/3
f 155/3/3 148/3/3 154/3/3
f 156/3/3 142/3/3 149/3/3
f 156/2/3 149/2/3 155/2/3
f 157/3/3 142/3/3 156/3/3
f 158/3/3 150/3/3 137/3/3
f 159/2/3 151/2/3 150/2/3
f 159/3/3 150/3/3 158/3/3
f 160/3/3 152/3/3 151/3/3
f 160/2/3 151/2/3 159/2/3
f 160/3/3 153/3/3 152/3/3
f 161/3/3 153/3/3 160/3/3
f 162/3/3 153/3/3 161/3/3
f 163/3/3 155/3/3 154/3/3
f 163/1/3 157/1/3 156/1/3
f 163/3/3 156/3/3 155/3/3
f 164/3/3 142/3/3 157/3/3
f 164/1/3 157/1/3 163/1/3
f 165/1/3 159/1/3 158/1/3
f 166/3/3 161/3/3 160/3/3
f 166/1/3 159/1/3 165/1/3
f 166/3/3 160/3/3 159/3/3
f 167/1/3 162/1/3 161/1/3
f 167/3/3 161/3/3 166/3/3
f 168/3/3 153/3/3 162/3/3
f 168/1/3 162/1/3 167/1/3
f 169/1/3 154/1/3 153/1/3
f 169/3/3 153/3/3 168/3/3
f 170/3/3 163/3/3 154/3/3
f 170/1/3 154/1/3 169/1/3
f 170/3/3 164/3/3 163/3/3
f 171/3/3 164/3/3 170/3/3
f 172/3/3 167/3/3 166/3/3
f 172/3/3 168/3/3 167/3/3
f 172/3/3 169/3/3 168/3/3
f 172/3/3 170/3/3 169/3/3
f 172/3/3 166/3/3 165/3/3
f 173/3/3 170/3/3 172/3/3
f 174/2/3 171/2/3 170/2/3
f 174/3/3 170/3/3 173/3/3
f 175/3/3 164/3/3 171/3/3
f 175/2/3 171/2/3 174/2/3
f 176/3/3 164/3/3 175/3/3
f 177/3/3 172/3/3 165/3/3
f 178/3/3 172/3/3 177/3/3
f 179/2/3 173/2/3 172/2/3
f 179/3/3 172/3/3 178/3/3
f 180/3/3 174/3/3 173/3/3
f 180/2/3 173/2/3 179/2/3
f 180/3/3 175/3/3 174/3/3
f 181/1/3 176/1/3 175/1/3
f 181/3/3 175/3/3 180/3/3
f 182/3/3 164/3/3 176/3/3
f 182/1/3 176/1/3 181/1/3
f 183/3/3 142/3/3 164/3/3
f 183/3/3 164/3/3 182/3/3
f 184/3/3 142/3/3 183/3/3
f 185/2/3 178/2/3 177/2/3
f 185/3/3 177/3/3 165/3/3
f 186/1/3 179/1/3 178/1/3
f 186/2/3 178/2/3 185/2/3
f 187/3/3 182/3/3 181/3/3
f 187/1/3 179/1/3 186/1/3
f 187/3/3 181/3/3 180/3/3
f 187/3/3 183/3/3 182/3/3
f 187/3/3 180/3/3 179/3/3
f 188/3/3 183/3/3 187/3/3
f 189/3/3 183/3/3 188/3/3
f 190/3/3 183/3/3 189/3/3
f 191/2/3 184/2/3 183/2/3
f 191/3/3 183/3/3 190/3/3
f 192/2/3 184/2/3 191/2/3
f 193/3/3 185/3/3 165/3/3
f 193/3/3 186/3/3 185/3/3
f 193/3/3 187/3/3 186/3/3
f 194/3/3 187/3/3 193/3/3
f 195/2/3 188/2/3 187/2/3
f 195/3/3 187/3/3 194/3/3
f 196/3/3 189/3/3 188/3/3
f 196/2/3 188/2/3 195/2/3
f 197/3/3 192/3/3 191/3/3
f 197/3/3 191/3/3 190/3/3
f 198/3/3 192/3/3 197/3/3
f 199/3/3 192/3/3 198/3/3
f 200/3/3 192/3/3 199/3/3
f 201/2/3 194/2/3 193/2/3
f 202/3/3 196/3/3 195/3/3
f 202/2/3 194/2/3 201/2/3
f 202/3/3 195/3/3 194/3/3
f 203/3/3 196/3/3 202/3/3
f 204/3/3 189/3/3 196/3/3
f 204/3/3 196/3/3 203/3/3
f 205/1/3 190/1/3 189/1/3
f 205/3/3 189/3/3 204/3/3
f 206/3/3 197/3/3 190/3/3
f 206/1/3 190/1/3 205/1/3
f 207/2/3 198/2/3 197/2/3
f 207/3/3 197/3/3 206/3/3
f 208/3/3 199/3/3 198/3/3
f 208/2/3 198/2/3 207/2/3
f 209/1/3 200/1/3 199/1/3
f 209/3/3 199/3/3 208/3/3
f 210/1/3 200/1/3 209/1/3
f 211/3/3 203/3/3 202/3/3
f 211/3/3 202/3/3 201/3/3
f 212/2/3 204/2/3 203/2/3
f 212/3/3 203/3/3 211/3/3
f 213/3/3 208/3/3 207/3/3
f 213/2/3 204/2/3 212/2/3
f 213/3/3 205/3/3 204/3/3
f 213/3/3 206/3/3 205/3/3
f 213/3/3 207/3/3 206/3/3
f 214/1/3 209/1/3 208/1/3
f 214/3/3 208/3/3 213/3/3
f 215/3/3 210/3/3 209/3/3
f 215/1/3 209/1/3 214/1/3
f 216/3/3 210/3/3 215/3/3
f 217/3/4 218/3/4 222/3/4
f 222/3/4 218/3/4 223/3/4
f 218/2/4 219/2/4 224/2/4
f 223/3/4 218/3/4 224/3/4
f 219/3/4 220/3/4 225/3/4
f 224/2/4 219/2/4 225/2/4
f 220/1/4 221/1/4 226/1/4
f 225/3/4 220/3/4 226/3/4
f 226/1/4 221/1/4 227/1/4
f 217/3/4 222/3/4 228/3/4
f 228/3/4 222/3/4 229/3/4
f 222/2/4 223/2/4 230/2/4
f 229/3/4 222/3/4 230/3/4
f 224/3/4 225/3/4 231/3/4
f 230/2/4 223/2/4 231/2/4
f 223/3/4 224/3/4 231/3/4
f 225/3/4 226/3/4 231/3/4
f 226/3/4 227/3/4 231/3/4
f 231/3/4 227/3/4 232/3/4
f 232/3/4 227/3/4 233/3/4
f 233/3/4 227/3/4 234/3/4
f 228/2/4 229/2/4 235/2/4
f 229/3/4 230/3/4 236/3/4
f 235/2/4 229/2/4 236/2/4
f 230/3/4 231/3/4 236/3/4
f 231/3/4 232/3/4 236/3/4
f 233/2/4 234/2/4 237/2/4
f 232/1/4 233/1/4 237/1/4
f 234/3/4 227/3/4 238/3/4
f 237/2/4 234/2/4 238/2/4
f 235/3/4 236/3/4 239/3/4
f 236/3/4 232/3/4 240/3/4
f 239/3/4 236/3/4 240/3/4
f 240/3/4 232/3/4 241/3/4
f 232/1/4 237/1/4 242/1/4
f 241/3/4 232/3/4 242/3/4
f 237/3/4 238/3/4 243/3/4
f 242/1/4 237/1/4 243/1/4
f 238/3/4 227/3/4 244/3/4
f 243/3/4 238/3/4 244/3/4
f 244/3/4 227/3/4 245/3/4
f 239/1/4 240/1/4 246/1/4
f 240/3/4 241/3/4 247/3/4
f 246/1/4 240/1/4 247/1/4
f 247/3/4 241/3/4 248/3/4
f 241/2/4 242/2/4 249/2/4
f 248/3/4 241/3/4 249/3/4
f 242/3/4 243/3/4 250/3/4
f 249/2/4 242/2/4 250/2/4
f 243/3/4 244/3/4 250/3/4
f 244/1/4 245/1/4 251/1/4
f 250/3/4 244/3/4 251/3/4
f 245/3/4 227/3/4 252/3/4
f 251/1/4 245/1/4 252/1/4
f 252/3/4 227/3/4 253/3/4
f 253/3/4 227/3/4 254/3/4
f 247/2/4 248/2/4 255/2/4
f 246/2/4 247/2/4 255/2/4
f 248/3/4 249/3/4 256/3/4
f 255/2/4 248/2/4 256/2/4
f 250/3/4 251/3/4 256/3/4
f 252/3/4 253/3/4 256/3/4
f 251/3/4 252/3/4 256/3/4
f 249/3/4 250/3/4 256/3/4
f 256/3/4 253/3/4 257/3/4
f 257/3/4 253/3/4 258/3/4
f 253/2/4 254/2/4 259/2/4
f 258/3/4 253/3/4 259/3/4
f 254/3/4 227/3/4 260/3/4
f 259/2/4 254/2/4 260/2/4
f 260/3/4 227/3/4 261/3/4
f 255/3/4 256/3/4 262/3/4
f 256/3/4 257/3/4 262/3/4
f 262/3/4 257/3/4 263/3/4
f 257/2/4 258/2/4 264/2/4
f 263/3/4 257/3/4 264/3/4
f 258/3/4 259/3/4 265/3/4
f 264/2/4 258/2/4 265/2/4
f 259/3/4 260/3/4 265/3/4
f 265/3/4 260/3/4 266/3/4
f 260/2/4 261/2/4 267/2/4
f 266/3/4 260/3/4 267/3/4
f 267/2/4 261/2/4 268/2/4
f 262/1/4 263/1/4 269/1/4
f 255/3/4 262/3/4 269/3/4
f 263/3/4 264/3/4 270/3/4
f 269/1/4 263/1/4 270/1/4
f 265/3/4 266/3/4 270/3/4
f 264/3/4 265/3/4 270/3/4
f 270/3/4 266/3/4 271/3/4
f 271/3/4 266/3/4 272/3/4
f 269/3/4 270/3/4 273/3/4
f 270/3/4 271/3/4 273/3/4
f 271/2/4 272/2/4 274/2/4
f 273/3/4 271/3/4 274/3/4
f 272/3/4 266/3/4 275/3/4
f 274/2/4 272/2/4 275/2/4
f 266/1/4 267/1/4 276/1/4
f 275/3/4 266/3/4 276/3/4
f 267/3/4 268/3/4 277/3/4
f 276/1/4 267/1/4 277/1/4
f 255/3/4 269/3/4 278/3/4
f 269/3/4 273/3/4 278/3/4
f 273/1/4 274/1/4 279/1/4
f 278/3/4 273/3/4 279/3/4
f 274/3/4 275/3/4 280/3/4
f 279/1/4 274/1/4 280/1/4
f 275/3/4 276/3/4 280/3/4
f 276/3/4 277/3/4 280/3/4
f 277/3/4 268/3/4 281/3/4
f 280/3/4 277/3/4 281/3/4
f 288/3/5 283/3/5 282/3/5
f 289/3/5 283/3/5 288/3/5
f 290/1/5 284/1/5 283/1/5
f 290/3/5 283/3/5 289/3/5
f 291/3/5 285/3/5 284/3/5
f 291/1/5 284/1/5 290/1/5
f 292/3/5 285/3/5 291/3/5
f 293/3/5 285/3/5 292/3/5
f 294/2/5 286/2/5 285/2/5
f 294/3/5 285/3/5 293/3/5
f 295/3/5 287/3/5 286/3/5
f 295/2/5 286/2/5 294/2/5
f 296/3/5 288/3/5 282/3/5
f 297/2/5 289/2/5 288/2/5
f 297/3/5 288/3/5 296/3/5
f 298/3/5 290/3/5 289/3/5
f 298/2/5 289/2/5 297/2/5
f 298/3/5 291/3/5 290/3/5
f 298/3/5 292/3/5 291/3/5
f 299/1/5 293/1/5 292/1/5
f 299/3/5 292/3/5 298/3/5
f 300/3/5 294/3/5 293/3/5
f 300/1/5 293/1/5 299/1/5
f 300/3/5 295/3/5 294/3/5
f 301/3/5 295/3/5 300/3/5
f 302/3/5 287/3/5 295/3/5
f 302/3/5 295/3/5 301/3/5
f 303/3/5 287/3/5 302/3/5
f 304/1/5 297/1/5 296/1/5
f 305/3/5 299/3/5 298/3/5
f 305/1/5 297/1/5 304/1/5
f 305/3/5 298/3/5 297/3/5
f 305/3/5 300/3/5 299/3/5
f 306/3/5 300/3/5 305/3/5
f 307/3/5 300/3/5 306/3/5
f 308/3/5 300/3/5 307/3/5
f 309/2/5 301/2/5 300/2/5
f 309/3/5 300/3/5 308/3/5
f 310/3/5 302/3/5 301/3/5
f 310/2/5 301/2/5 309/2/5
f 311/2/5 303/2/5 302/2/5
f 311/3/5 302/3/5 310/3/5
f 312/2/5 303/2/5 311/2/5
f 313/3/5 305/3/5 304/3/5
f 313/3/5 306/3/5 305/3/5
f 313/2/5 307/2/5 306/2/5
f 314/1/5 308/1/5 307/1/5
f 314/2/5 307/2/5 313/2/5
f 315/3/5 313/3/5 304/3/5
f 315/3/5 314/3/5 313/3/5
f 316/3/5 314/3/5 315/3/5
f 317/1/5 308/1/5 314/1/5
f 317/3/5 314/3/5 316/3/5
f 318/3/5 310/3/5 309/3/5
f 318/1/5 308/1/5 317/1/5
f 318/3/5 309/3/5 308/3/5
f 318/3/5 312/3/5 311/3/5
f 318/3/5 311/3/5 310/3/5
f 319/3/5 312/3/5 318/3/5
f 320/3/5 312/3/5 319/3/5
f 321/3/5 312/3/5 320/3/5
f 322/1/5 316/1/5 315/1/5
f 323/3/5 317/3/5 316/3/5
f 323/1/5 316/1/5 322/1/5
f 323/3/5 318/3/5 317/3/5
f 323/3/5 319/3/5 318/3/5
f 324/3/5 319/3/5 323/3/5
f 325/3/5 319/3/5 324/3/5
f 326/2/5 320/2/5 319/2/5
f 326/3/5 319/3/5 325/3/5
f 327/2/5 320/2/5 326/2/5
f 328/1/5 321/1/5 320/1/5
f 328/2/5 320/2/5 327/2/5
f 329/3/5 312/3/5 321/3/5
f 329/1/5 321/1/5 328/1/5
f 330/3/5 323/3/5 322/3/5
f 330/3/5 324/3/5 323/3/5
f 331/2/5 325/2/5 324/2/5
f 331/3/5 324/3/5 330/3/5
f 332/3/5 326/3/5 325/3/5
f 332/2/5 325/2/5 331/2/5
f 333/1/5 327/1/5 326/1/5
f 333/3/5 326/3/5 332/3/5
f 334/3/5 328/3/5 327/3/5
f 334/1/5 327/1/5 333/1/5
f 334/3/5 329/3/5 328/3/5
f 335/3/5 312/3/5 329/3/5
f 335/3/5 329/3/5 334/3/5
f 336/3/5 312/3/5 335/3/5
f 337/3/5 330/3/5 322/3/5
f 338/1/5 331/1/5 330/1/5
f 338/3/5 330/3/5 337/3/5
f 339/3/5 333/3/5 332/3/5
f 339/1/5 331/1/5 338/1/5
f 339/3/5 332/3/5 331/3/5
f 339/3/5 334/3/5 333/3/5
f 339/3/5 335/3/5 334/3/5
f 340/3/5 335/3/5 339/3/5
f 341/2/5 336/2/5 335/2/5
f 341/3/5 335/3/5 340/3/5
f 342/2/5 336/2/5 341/2/5
f 343/1/5 338/1/5 337/1/5
f 344/3/5 340/3/5 339/3/5
f 344/1/5 338/1/5 343/1/5
f 344/3/5 339/3/5 338/3/5
f 345/3/5 340/3/5 344/3/5
f 346/3/5 340/3/5 345/3/5
f 347/3/5 340/3/5 346/3/5
f 348/3/5 340/3/5 347/3/5
f 349/3/5 340/3/5 348/3/5
f 350/1/5 341/1/5 340/1/5
f 350/3/5 340/3/5 349/3/5
f 351/3/5 342/3/5 341/3/5
f 351/1/5 341/1/5 350/1/5
f 352/3/5 344/3/5 343/3/5
f 352/3/5 345/3/5 344/3/5
f 353/2/5 346/2/5 345/2/5
f 353/3/5 345/3/5 352/3/5
f 354/3/5 347/3/5 346/3/5
f 354/2/5 346/2/5 353/2/5
f 355/1/5 348/1/5 347/1/5
f 355/3/5 347/3/5 354/3/5
f 356/2/5 349/2/5 348/2/5
f 356/1/5 348/1/5 355/1/5
f 357/3/5 350/3/5 349/3/5
f 357/2/5 349/2/5 356/2/5
f 357/3/5 351/3/5 350/3/5
f 358/3/5 342/3/5 351/3/5
f 358/3/5 351/3/5 357/3/5
f 359/3/6 360/3/6 365/3/6
f 365/3/6 360/3/6 366/3/6
f 360/2/6 361/2/6 367/2/6
f 366/3/6 360/3/6 367/3/6
f 361/3/6 362/3/6 368/3/6
f 367/2/6 361/2/6 368/2/6
f 362/1/6 363/1/6 369/1/6
f 368/3/6 362/3/6 369/3/6
f 363/3/6 364/3/6 370/3/6
f 369/1/6 363/1/6 370/1/6
f 365/2/6 366/2/6 371/2/6
f 368/3/6 369/3/6 372/3/6
f 371/2/6 366/2/6 372/2/6
f 366/3/6 367/3/6 372/3/6
f 369/3/6 370/3/6 372/3/6
f 367/3/6 368/3/6 372/3/6
f 372/3/6 370/3/6 373/3/6
f 373/3/6 370/3/6 374/3/6
f 374/3/6 370/3/6 375/3/6
f 375/3/6 370/3/6 376/3/6
f 370/3/6 364/3/6 377/3/6
f 376/3/6 370/3/6 377/3/6
f 377/3/6 364/3/6 378/3/6
f 373/3/6 374/3/6 379/3/6
f 374/2/6 375/2/6 379/2/6
f 375/1/6 376/1/6 380/1/6
f 379/2/6 375/2/6 380/2/6
f 376/3/6 377/3/6 381/3/6
f 380/1/6 376/1/6 381/1/6
f 381/3/6 377/3/6 382/3/6
f 377/2/6 378/2/6 383/2/6
f 382/3/6 377/3/6 383/3/6
f 383/2/6 378/2/6 384/2/6
f 371/3/6 372/3/6 385/3/6
f 372/1/6 373/1/6 385/1/6
f 373/3/6 379/3/6 386/3/6
f 385/1/6 373/1/6 386/1/6
f 379/3/6 380/3/6 386/3/6
f 380/2/6 381/2/6 387/2/6
f 386/3/6 380/3/6 387/3/6
f 381/1/6 382/1/6 388/1/6
f 387/2/6 381/2/6 388/2/6
f 388/1/6 382/1/6 389/1/6
f 383/3/6 384/3/6 390/3/6
f 389/1/6 382/1/6 390/1/6
f 382/3/6 383/3/6 390/3/6
f 390/3/6 384/3/6 391/3/6
f 391/3/6 384/3/6 392/3/6
f 388/3/6 389/3/6 393/3/6
f 386/3/6 387/3/6 393/3/6
f 387/3/6 388/3/6 393/3/6
f 385/3/6 386/3/6 393/3/6
f 389/2/6 390/2/6 393/2/6
f 390/3/6 391/3/6 394/3/6
f 393/2/6 390/2/6 394/2/6
f 391/1/6 392/1/6 395/1/6
f 394/3/6 391/3/6 395/3/6
f 395/1/6 392/1/6 396/1/6
f 393/3/6 394/3/6 397/3/6
f 385/3/6 393/3/6 397/3/6
f 395/3/6 396/3/6 397/3/6
f 394/3/6 395/3/6 397/3/6
f 397/3/6 396/3/6 398/3/6
f 398/3/6 396/3/6 399/3/6
f 399/3/6 396/3/6 400/3/6
f 400/3/6 396/3/6 401/3/6
f 401/3/6 396/3/6 402/3/6
f 371/3/6 385/3/6 403/3/6
f 385/3/6 397/3/6 403/3/6
f 397/1/6 398/1/6 404/1/6
f 403/3/6 397/3/6 404/3/6
f 398/3/6 399/3/6 405/3/6
f 404/1/6 398/1/6 405/1/6
f 405/3/6 399/3/6 406/3/6
f 399/1/6 400/1/6 407/1/6
f 406/3/6 399/3/6 407/3/6
f 400/3/6 401/3/6 408/3/6
f 407/1/6 400/1/6 408/1/6
f 408/3/6 401/3/6 409/3/6
f 401/2/6 402/2/6 410/2/6
f 409/3/6 401/3/6 410/3/6
f 402/3/6 396/3/6 411/3/6
f 410/2/6 402/2/6 411/2/6
f 371/3/6 403/3/6 412/3/6
f 403/2/6 404/2/6 412/2/6
f 405/3/6 406/3/6 413/3/6
f 412/2/6 404/2/6 413/2/6
f 404/3/6 405/3/6 413/3/6
f 413/3/6 406/3/6 414/3/6
f 406/2/6 407/2/6 415/2/6
f 414/3/6 406/3/6 415/3/6
f 408/3/6 409/3/6 416/3/6
f 415/2/6 407/2/6 416/2/6
f 407/3/6 408/3/6 416/3/6
f 371/3/6 412/3/6 417/3/6
f 413/3/6 414/3/6 417/3/6
f 412/3/6 413/3/6 417/3/6
f 417/3/6 414/3/6 418/3/6
f 414/1/6 415/1/6 419/1/6
f 418/3/6 414/3/6 419/3/6
f 415/3/6 416/3/6 420/3/6
f 419/1/6 415/1/6 420/1/6
f 416/3/6 409/3/6 421/3/6
f 420/3/6 416/3/6 421/3/6
f 409/1/6 410/1/6 422/1/6
f 421/3/6 409/3/6 422/3/6
f 410/3/6 411/3/6 423/3/6
f 422/1/6 410/1/6 423/1/6
f 417/1/6 418/1/6 424/1/6
f 420/3/6 421/3/6 425/3/6
f 424/1/6 418/1/6 425/1/6
f 419/3/6 420/3/6 425/3/6
f 418/3/6 419/3/6 425/3/6
f 421/2/6 422/2/6 426/2/6
f 425/3/6 421/3/6 426/3/6
f 422/3/6 423/3/6 427/3/6
f 426/2/6 422/2/6 427/2/6
f 423/3/6 411/3/6 428/3/6
f 427/3/6 423/3/6 428/3/6
f 411/3/6 396/3/6 428/3/6
