# MagicaVoxel @ Ephtracy

# group
o 

# material
mtllib bomb.mtl
usemtl palette

# normals
vn -1 0 0
vn 1 0 0
vn 0 0 1
vn 0 0 -1
vn 0 -1 0
vn 0 1 0

# texcoords
vt 0.0449219 0.5
vt 0.857422 0.5
vt 0.994141 0.5

# verts
v -0.7 0.8 -0.1
v -0.7 0.8 -0.2
v -0.7 0.9 -0.1
v -0.7 0.9 -0.2
v -0.5 0.7 -0.1
v -0.5 0.7 -0.2
v -0.5 0.8 -0.1
v -0.5 0.8 -0.2
v -0.5 0.9 -0.1
v -0.5 0.9 -0.2
v -0.5 1 -0.1
v -0.5 1 -0.2
v -0.4 0.8 -0.1
v -0.4 0.8 -0.2
v -0.4 0.9 -0.1
v -0.4 0.9 -0.2
v -0.4 1 -0.1
v -0.4 1 -0.2
v -0.4 1.1 -0.1
v -0.4 1.1 -0.2
v -0.3 1.1 -0.1
v -0.3 1.1 -0.2
v -0.3 1.2 -0.1
v -0.3 1.2 -0.2
v -0.2 0 0
v -0.2 0 -0.2
v -0.2 0.1 0
v -0.2 0.1 -0.2
v -0.2 0.2 0
v -0.2 0.2 -0.2
v -0.2 0.6 0
v -0.2 0.6 -0.2
v -0.2 0.7 0
v -0.2 0.7 -0.2
v -0.2 0.8 0
v -0.2 0.8 -0.2
v -0.1 0 0.1
v -0.1 0 0
v -0.1 0 -0.2
v -0.1 0 -0.3
v -0.1 0.1 0.1
v -0.1 0.1 0
v -0.1 0.1 -0.2
v -0.1 0.1 -0.3
v -0.1 0.2 0.1
v -0.1 0.2 0
v -0.1 0.2 -0.2
v -0.1 0.2 -0.3
v -0.1 0.6 0.1
v -0.1 0.6 0
v -0.1 0.6 -0.2
v -0.1 0.6 -0.3
v -0.1 0.7 0.1
v -0.1 0.7 0
v -0.1 0.7 -0.2
v -0.1 0.7 -0.3
v -0.1 0.8 0.1
v -0.1 0.8 0
v -0.1 0.8 -0.1
v -0.1 0.8 -0.2
v -0.1 0.8 -0.3
v -0.1 1.1 -0.1
v -0.1 1.1 -0.2
v -0.6 0.8 -0.1
v -0.6 0.8 -0.2
v -0.6 0.9 -0.1
v -0.6 0.9 -0.2
v -0.4 0.7 -0.1
v -0.4 0.7 -0.2
v -0.4 0.8 -0.1
v -0.4 0.8 -0.2
v -0.4 0.9 -0.1
v -0.4 0.9 -0.2
v -0.4 1 -0.1
v -0.4 1 -0.2
v -0.3 0.8 -0.1
v -0.3 0.8 -0.2
v -0.3 0.9 -0.1
v -0.3 0.9 -0.2
v -0.3 1 -0.1
v -0.3 1 -0.2
v -0.3 1.1 -0.1
v -0.3 1.1 -0.2
v -0.1 1.1 -0.1
v -0.1 1.1 -0.2
v -0.1 1.2 -0.1
v -0.1 1.2 -0.2
v 0 0.8 -0.1
v 0 0.8 -0.2
v 0 1.1 -0.1
v 0 1.1 -0.2
v 0.1 0 0.1
v 0.1 0 0
v 0.1 0 -0.2
v 0.1 0 -0.3
v 0.1 0.1 0.1
v 0.1 0.1 0
v 0.1 0.1 -0.2
v 0.1 0.1 -0.3
v 0.1 0.2 0.1
v 0.1 0.2 0
v 0.1 0.2 -0.2
v 0.1 0.2 -0.3
v 0.1 0.6 0.1
v 0.1 0.6 0
v 0.1 0.6 -0.2
v 0.1 0.6 -0.3
v 0.1 0.7 0.1
v 0.1 0.7 0
v 0.1 0.7 -0.2
v 0.1 0.7 -0.3
v 0.1 0.8 0.1
v 0.1 0.8 0
v 0.1 0.8 -0.2
v 0.1 0.8 -0.3
v 0.2 0 0
v 0.2 0 -0.2
v 0.2 0.1 0
v 0.2 0.1 -0.2
v 0.2 0.2 0
v 0.2 0.2 -0.2
v 0.2 0.6 0
v 0.2 0.6 -0.2
v 0.2 0.7 0
v 0.2 0.7 -0.2
v 0.2 0.8 0
v 0.2 0.8 -0.2
v -0.1 0 0.1
v -0.1 0.1 0.1
v -0.1 0.2 0.1
v -0.1 0.6 0.1
v -0.1 0.7 0.1
v -0.1 0.8 0.1
v 0.1 0 0.1
v 0.1 0.1 0.1
v 0.1 0.2 0.1
v 0.1 0.6 0.1
v 0.1 0.7 0.1
v 0.1 0.8 0.1
v -0.2 0 0
v -0.2 0.1 0
v -0.2 0.2 0
v -0.2 0.6 0
v -0.2 0.7 0
v -0.2 0.8 0
v -0.1 0 0
v -0.1 0.1 0
v -0.1 0.2 0
v -0.1 0.6 0
v -0.1 0.7 0
v -0.1 0.8 0
v 0.1 0 0
v 0.1 0.1 0
v 0.1 0.2 0
v 0.1 0.6 0
v 0.1 0.7 0
v 0.1 0.8 0
v 0.2 0 0
v 0.2 0.1 0
v 0.2 0.2 0
v 0.2 0.6 0
v 0.2 0.7 0
v 0.2 0.8 0
v -0.7 0.8 -0.1
v -0.7 0.9 -0.1
v -0.6 0.8 -0.1
v -0.6 0.9 -0.1
v -0.5 0.7 -0.1
v -0.5 0.8 -0.1
v -0.5 0.9 -0.1
v -0.5 1 -0.1
v -0.4 0.7 -0.1
v -0.4 0.8 -0.1
v -0.4 0.9 -0.1
v -0.4 1 -0.1
v -0.4 1.1 -0.1
v -0.3 0.8 -0.1
v -0.3 0.9 -0.1
v -0.3 1 -0.1
v -0.3 1.1 -0.1
v -0.3 1.2 -0.1
v -0.1 0.8 -0.1
v -0.1 1.1 -0.1
v -0.1 1.2 -0.1
v 0 0.8 -0.1
v 0 1.1 -0.1
v -0.7 0.8 -0.2
v -0.7 0.9 -0.2
v -0.6 0.8 -0.2
v -0.6 0.9 -0.2
v -0.5 0.7 -0.2
v -0.5 0.8 -0.2
v -0.5 0.9 -0.2
v -0.5 1 -0.2
v -0.4 0.7 -0.2
v -0.4 0.8 -0.2
v -0.4 0.9 -0.2
v -0.4 1 -0.2
v -0.4 1.1 -0.2
v -0.3 0.8 -0.2
v -0.3 0.9 -0.2
v -0.3 1 -0.2
v -0.3 1.1 -0.2
v -0.3 1.2 -0.2
v -0.2 0 -0.2
v -0.2 0.1 -0.2
v -0.2 0.2 -0.2
v -0.2 0.6 -0.2
v -0.2 0.7 -0.2
v -0.2 0.8 -0.2
v -0.1 0 -0.2
v -0.1 0.1 -0.2
v -0.1 0.2 -0.2
v -0.1 0.6 -0.2
v -0.1 0.7 -0.2
v -0.1 0.8 -0.2
v -0.1 1.1 -0.2
v -0.1 1.2 -0.2
v 0 0.8 -0.2
v 0 1.1 -0.2
v 0.1 0 -0.2
v 0.1 0.1 -0.2
v 0.1 0.2 -0.2
v 0.1 0.6 -0.2
v 0.1 0.7 -0.2
v 0.1 0.8 -0.2
v 0.2 0 -0.2
v 0.2 0.1 -0.2
v 0.2 0.2 -0.2
v 0.2 0.6 -0.2
v 0.2 0.7 -0.2
v 0.2 0.8 -0.2
v -0.1 0 -0.3
v -0.1 0.1 -0.3
v -0.1 0.2 -0.3
v -0.1 0.6 -0.3
v -0.1 0.7 -0.3
v -0.1 0.8 -0.3
v 0.1 0 -0.3
v 0.1 0.1 -0.3
v 0.1 0.2 -0.3
v 0.1 0.6 -0.3
v 0.1 0.7 -0.3
v 0.1 0.8 -0.3
v -0.1 0 0.1
v 0.1 0 0.1
v -0.2 0 0
v -0.1 0 0
v 0.1 0 0
v 0.2 0 0
v -0.2 0 -0.2
v -0.1 0 -0.2
v 0.1 0 -0.2
v 0.2 0 -0.2
v -0.1 0 -0.3
v 0.1 0 -0.3
v -0.5 0.7 -0.1
v -0.4 0.7 -0.1
v -0.5 0.7 -0.2
v -0.4 0.7 -0.2
v -0.7 0.8 -0.1
v -0.6 0.8 -0.1
v -0.4 0.8 -0.1
v -0.3 0.8 -0.1
v -0.7 0.8 -0.2
v -0.6 0.8 -0.2
v -0.4 0.8 -0.2
v -0.3 0.8 -0.2
v -0.5 0.9 -0.1
v -0.4 0.9 -0.1
v -0.5 0.9 -0.2
v -0.4 0.9 -0.2
v -0.4 1 -0.1
v -0.3 1 -0.1
v -0.4 1 -0.2
v -0.3 1 -0.2
v -0.3 1.1 -0.1
v -0.1 1.1 -0.1
v -0.3 1.1 -0.2
v -0.1 1.1 -0.2
v -0.1 0.8 0.1
v 0.1 0.8 0.1
v -0.2 0.8 0
v -0.1 0.8 0
v 0.1 0.8 0
v 0.2 0.8 0
v -0.5 0.8 -0.1
v -0.4 0.8 -0.1
v -0.1 0.8 -0.1
v 0 0.8 -0.1
v -0.5 0.8 -0.2
v -0.4 0.8 -0.2
v -0.2 0.8 -0.2
v -0.1 0.8 -0.2
v 0 0.8 -0.2
v 0.1 0.8 -0.2
v 0.2 0.8 -0.2
v -0.1 0.8 -0.3
v 0.1 0.8 -0.3
v -0.7 0.9 -0.1
v -0.6 0.9 -0.1
v -0.4 0.9 -0.1
v -0.3 0.9 -0.1
v -0.7 0.9 -0.2
v -0.6 0.9 -0.2
v -0.4 0.9 -0.2
v -0.3 0.9 -0.2
v -0.5 1 -0.1
v -0.4 1 -0.1
v -0.5 1 -0.2
v -0.4 1 -0.2
v -0.4 1.1 -0.1
v -0.3 1.1 -0.1
v -0.1 1.1 -0.1
v 0 1.1 -0.1
v -0.4 1.1 -0.2
v -0.3 1.1 -0.2
v -0.1 1.1 -0.2
v 0 1.1 -0.2
v -0.3 1.2 -0.1
v -0.1 1.2 -0.1
v -0.3 1.2 -0.2
v -0.1 1.2 -0.2

# faces
f 3/1/1 2/1/1 1/1/1
f 4/1/1 2/1/1 3/1/1
f 7/1/1 6/1/1 5/1/1
f 8/1/1 6/1/1 7/1/1
f 11/1/1 10/1/1 9/1/1
f 12/1/1 10/1/1 11/1/1
f 15/1/1 14/1/1 13/1/1
f 16/1/1 14/1/1 15/1/1
f 19/3/1 18/3/1 17/3/1
f 20/3/1 18/3/1 19/3/1
f 23/3/1 22/3/1 21/3/1
f 24/3/1 22/3/1 23/3/1
f 27/2/1 26/2/1 25/2/1
f 28/2/1 26/2/1 27/2/1
f 29/3/1 28/3/1 27/3/1
f 30/3/1 28/3/1 29/3/1
f 31/2/1 30/2/1 29/2/1
f 32/2/1 30/2/1 31/2/1
f 33/3/1 32/3/1 31/3/1
f 34/3/1 32/3/1 33/3/1
f 35/2/1 34/2/1 33/2/1
f 36/2/1 34/2/1 35/2/1
f 41/2/1 38/2/1 37/2/1
f 42/2/1 38/2/1 41/2/1
f 43/2/1 40/2/1 39/2/1
f 44/2/1 40/2/1 43/2/1
f 45/3/1 42/3/1 41/3/1
f 46/3/1 42/3/1 45/3/1
f 47/3/1 44/3/1 43/3/1
f 48/3/1 44/3/1 47/3/1
f 49/2/1 46/2/1 45/2/1
f 50/2/1 46/2/1 49/2/1
f 51/2/1 48/2/1 47/2/1
f 52/2/1 48/2/1 51/2/1
f 53/3/1 50/3/1 49/3/1
f 54/3/1 50/3/1 53/3/1
f 55/3/1 52/3/1 51/3/1
f 56/3/1 52/3/1 55/3/1
f 57/2/1 54/2/1 53/2/1
f 58/2/1 54/2/1 57/2/1
f 60/2/1 56/2/1 55/2/1
f 61/2/1 56/2/1 60/2/1
f 62/3/1 60/3/1 59/3/1
f 63/3/1 60/3/1 62/3/1
f 64/1/2 65/1/2 66/1/2
f 66/1/2 65/1/2 67/1/2
f 68/1/2 69/1/2 70/1/2
f 70/1/2 69/1/2 71/1/2
f 72/1/2 73/1/2 74/1/2
f 74/1/2 73/1/2 75/1/2
f 76/1/2 77/1/2 78/1/2
f 78/1/2 77/1/2 79/1/2
f 80/3/2 81/3/2 82/3/2
f 82/3/2 81/3/2 83/3/2
f 84/3/2 85/3/2 86/3/2
f 86/3/2 85/3/2 87/3/2
f 88/3/2 89/3/2 90/3/2
f 90/3/2 89/3/2 91/3/2
f 92/2/2 93/2/2 96/2/2
f 96/2/2 93/2/2 97/2/2
f 94/2/2 95/2/2 98/2/2
f 98/2/2 95/2/2 99/2/2
f 96/3/2 97/3/2 100/3/2
f 100/3/2 97/3/2 101/3/2
f 98/3/2 99/3/2 102/3/2
f 102/3/2 99/3/2 103/3/2
f 100/2/2 101/2/2 104/2/2
f 104/2/2 101/2/2 105/2/2
f 102/2/2 103/2/2 106/2/2
f 106/2/2 103/2/2 107/2/2
f 104/3/2 105/3/2 108/3/2
f 108/3/2 105/3/2 109/3/2
f 106/3/2 107/3/2 110/3/2
f 110/3/2 107/3/2 111/3/2
f 108/2/2 109/2/2 112/2/2
f 112/2/2 109/2/2 113/2/2
f 110/2/2 111/2/2 114/2/2
f 114/2/2 111/2/2 115/2/2
f 116/2/2 117/2/2 118/2/2
f 118/2/2 117/2/2 119/2/2
f 118/3/2 119/3/2 120/3/2
f 120/3/2 119/3/2 121/3/2
f 120/2/2 121/2/2 122/2/2
f 122/2/2 121/2/2 123/2/2
f 122/3/2 123/3/2 124/3/2
f 124/3/2 123/3/2 125/3/2
f 124/2/2 125/2/2 126/2/2
f 126/2/2 125/2/2 127/2/2
f 134/2/3 129/2/3 128/2/3
f 135/3/3 130/3/3 129/3/3
f 135/2/3 129/2/3 134/2/3
f 136/2/3 131/2/3 130/2/3
f 136/3/3 130/3/3 135/3/3
f 137/3/3 132/3/3 131/3/3
f 137/2/3 131/2/3 136/2/3
f 138/2/3 133/2/3 132/2/3
f 138/3/3 132/3/3 137/3/3
f 139/2/3 133/2/3 138/2/3
f 146/2/3 141/2/3 140/2/3
f 147/3/3 142/3/3 141/3/3
f 147/2/3 141/2/3 146/2/3
f 148/2/3 143/2/3 142/2/3
f 148/3/3 142/3/3 147/3/3
f 149/3/3 144/3/3 143/3/3
f 149/2/3 143/2/3 148/2/3
f 150/2/3 145/2/3 144/2/3
f 150/3/3 144/3/3 149/3/3
f 151/2/3 145/2/3 150/2/3
f 158/2/3 153/2/3 152/2/3
f 159/3/3 154/3/3 153/3/3
f 159/2/3 153/2/3 158/2/3
f 160/2/3 155/2/3 154/2/3
f 160/3/3 154/3/3 159/3/3
f 161/3/3 156/3/3 155/3/3
f 161/2/3 155/2/3 160/2/3
f 162/2/3 157/2/3 156/2/3
f 162/3/3 156/3/3 161/3/3
f 163/2/3 157/2/3 162/2/3
f 166/1/3 165/1/3 164/1/3
f 167/1/3 165/1/3 166/1/3
f 172/1/3 169/1/3 168/1/3
f 173/1/3 169/1/3 172/1/3
f 174/1/3 171/1/3 170/1/3
f 175/1/3 171/1/3 174/1/3
f 177/1/3 174/1/3 173/1/3
f 178/1/3 174/1/3 177/1/3
f 179/3/3 176/3/3 175/3/3
f 180/3/3 176/3/3 179/3/3
f 183/3/3 181/3/3 180/3/3
f 184/3/3 181/3/3 183/3/3
f 185/3/3 183/3/3 182/3/3
f 186/3/3 183/3/3 185/3/3
f 187/1/4 188/1/4 189/1/4
f 189/1/4 188/1/4 190/1/4
f 191/1/4 192/1/4 195/1/4
f 195/1/4 192/1/4 196/1/4
f 193/1/4 194/1/4 197/1/4
f 197/1/4 194/1/4 198/1/4
f 196/1/4 197/1/4 200/1/4
f 200/1/4 197/1/4 201/1/4
f 198/3/4 199/3/4 202/3/4
f 202/3/4 199/3/4 203/3/4
f 205/2/4 206/2/4 211/2/4
f 206/3/4 207/3/4 212/3/4
f 211/2/4 206/2/4 212/2/4
f 207/2/4 208/2/4 213/2/4
f 212/3/4 207/3/4 213/3/4
f 208/3/4 209/3/4 214/3/4
f 213/2/4 208/2/4 214/2/4
f 209/2/4 210/2/4 215/2/4
f 214/3/4 209/3/4 215/3/4
f 215/2/4 210/2/4 216/2/4
f 203/3/4 204/3/4 217/3/4
f 217/3/4 204/3/4 218/3/4
f 216/3/4 217/3/4 219/3/4
f 219/3/4 217/3/4 220/3/4
f 221/2/4 222/2/4 227/2/4
f 222/3/4 223/3/4 228/3/4
f 227/2/4 222/2/4 228/2/4
f 223/2/4 224/2/4 229/2/4
f 228/3/4 223/3/4 229/3/4
f 224/3/4 225/3/4 230/3/4
f 229/2/4 224/2/4 230/2/4
f 225/2/4 226/2/4 231/2/4
f 230/3/4 225/3/4 231/3/4
f 231/2/4 226/2/4 232/2/4
f 233/2/4 234/2/4 239/2/4
f 234/3/4 235/3/4 240/3/4
f 239/2/4 234/2/4 240/2/4
f 235/2/4 236/2/4 241/2/4
f 240/3/4 235/3/4 241/3/4
f 236/3/4 237/3/4 242/3/4
f 241/2/4 236/2/4 242/2/4
f 237/2/4 238/2/4 243/2/4
f 242/3/4 237/3/4 243/3/4
f 243/2/4 238/2/4 244/2/4
f 248/2/5 246/2/5 245/2/5
f 249/2/5 246/2/5 248/2/5
f 251/2/5 248/2/5 247/2/5
f 251/2/5 250/2/5 249/2/5
f 251/2/5 249/2/5 248/2/5
f 252/2/5 250/2/5 251/2/5
f 253/2/5 250/2/5 252/2/5
f 254/2/5 250/2/5 253/2/5
f 255/2/5 253/2/5 252/2/5
f 256/2/5 253/2/5 255/2/5
f 259/1/5 258/1/5 257/1/5
f 260/1/5 258/1/5 259/1/5
f 265/1/5 262/1/5 261/1/5
f 266/1/5 262/1/5 265/1/5
f 267/1/5 264/1/5 263/1/5
f 268/1/5 264/1/5 267/1/5
f 271/1/5 270/1/5 269/1/5
f 272/1/5 270/1/5 271/1/5
f 275/3/5 274/3/5 273/3/5
f 276/3/5 274/3/5 275/3/5
f 279/3/5 278/3/5 277/3/5
f 280/3/5 278/3/5 279/3/5
f 281/2/6 282/2/6 284/2/6
f 284/2/6 282/2/6 285/2/6
f 283/2/6 284/2/6 289/2/6
f 284/2/6 285/2/6 289/2/6
f 285/2/6 286/2/6 289/2/6
f 289/2/6 286/2/6 290/2/6
f 287/1/6 288/1/6 291/1/6
f 291/1/6 288/1/6 292/1/6
f 283/2/6 289/2/6 293/2/6
f 293/2/6 289/2/6 294/2/6
f 290/2/6 286/2/6 295/2/6
f 295/2/6 286/2/6 296/2/6
f 296/2/6 286/2/6 297/2/6
f 295/2/6 296/2/6 298/2/6
f 294/2/6 295/2/6 298/2/6
f 298/2/6 296/2/6 299/2/6
f 300/1/6 301/1/6 304/1/6
f 304/1/6 301/1/6 305/1/6
f 302/1/6 303/1/6 306/1/6
f 306/1/6 303/1/6 307/1/6
f 308/1/6 309/1/6 310/1/6
f 310/1/6 309/1/6 311/1/6
f 312/3/6 313/3/6 316/3/6
f 316/3/6 313/3/6 317/3/6
f 314/3/6 315/3/6 318/3/6
f 318/3/6 315/3/6 319/3/6
f 320/3/6 321/3/6 322/3/6
f 322/3/6 321/3/6 323/3/6
