# MagicaVoxel @ Ephtracy

# group
o 

# material
mtllib untitled.mtl
usemtl palette

# normals
vn -1 0 0
vn 1 0 0
vn 0 0 1
vn 0 0 -1
vn 0 -1 0
vn 0 1 0

# texcoords
vt 0.0644531 0.5
vt 0.0683594 0.5
vt 0.974609 0.5
vt 0.978516 0.5
vt 0.986328 0.5
vt 0.994141 0.5

# verts
v -0.6 0.4 -0.1
v -0.6 0.4 -0.5
v -0.6 0.5 -0.1
v -0.6 0.5 -0.5
v -0.5 0.3 -0.1
v -0.5 0.3 -0.5
v -0.5 0.4 -0.1
v -0.5 0.4 -0.5
v -0.5 0.5 -0.1
v -0.5 0.5 -0.5
v -0.5 0.6 -0.1
v -0.5 0.6 -0.5
v -0.3 0.2 -0.1
v -0.3 0.2 -0.5
v -0.3 0.3 -0.1
v -0.3 0.3 -0.5
v -0.3 0.6 -0.1
v -0.3 0.6 -0.5
v -0.3 0.7 -0.1
v -0.3 0.7 -0.5
v -0.1 0.1 -0.1
v -0.1 0.1 -0.5
v -0.1 0.2 -0.1
v -0.1 0.2 -0.5
v -0.1 0.7 -0.1
v -0.1 0.7 -0.5
v -0.1 0.8 -0.1
v -0.1 0.8 -0.5
v 0.1 0 -0.1
v 0.1 0 -0.5
v 0.1 0.1 -0.1
v 0.1 0.1 -0.5
v 0.1 0.8 -0.1
v 0.1 0.8 -0.5
v 0.1 0.9 -0.1
v 0.1 0.9 -0.5
v 0.4 -0.1 -0.1
v 0.4 -0.1 -0.5
v 0.4 0 -0.1
v 0.4 0 -0.5
v 0.4 0.9 -0.1
v 0.4 0.9 -0.5
v 0.4 1 -0.1
v 0.4 1 -0.5
v 0.8 0.3 -0.1
v 0.8 0.3 -0.5
v 0.8 0.4 -0.1
v 0.8 0.4 -0.5
v 0.9 0.1 -0.1
v 0.9 0.1 -0.5
v 0.9 0.3 -0.1
v 0.9 0.3 -0.5
v 1 0 -0.1
v 1 0 -0.5
v 1 0.1 -0.1
v 1 0.1 -0.5
v 0.6 -0.1 -0.1
v 0.6 -0.1 -0.5
v 0.6 0 -0.1
v 0.6 0 -0.5
v 0.6 0.9 -0.1
v 0.6 0.9 -0.5
v 0.6 1 -0.1
v 0.6 1 -0.5
v 0.7 0 -0.1
v 0.7 0 -0.5
v 0.7 0.4 -0.1
v 0.7 0.4 -0.5
v 1.1 0.8 -0.1
v 1.1 0.8 -0.5
v 1.1 0.9 -0.1
v 1.1 0.9 -0.5
v 1.2 0 -0.1
v 1.2 0 -0.5
v 1.2 0.1 -0.1
v 1.2 0.1 -0.5
v 1.3 0.1 -0.1
v 1.3 0.1 -0.5
v 1.3 0.2 -0.1
v 1.3 0.2 -0.5
v 1.3 0.7 -0.1
v 1.3 0.7 -0.5
v 1.3 0.8 -0.1
v 1.3 0.8 -0.5
v 1.4 0.2 -0.1
v 1.4 0.2 -0.5
v 1.4 0.4 -0.1
v 1.4 0.4 -0.5
v 1.4 0.6 -0.1
v 1.4 0.6 -0.5
v 1.4 0.7 -0.1
v 1.4 0.7 -0.5
v 1.5 0.4 -0.1
v 1.5 0.4 -0.5
v 1.5 0.6 -0.1
v 1.5 0.6 -0.5
v -0.6 0.4 -0.1
v -0.6 0.5 -0.1
v -0.5 0.3 -0.1
v -0.5 0.4 -0.1
v -0.5 0.5 -0.1
v -0.5 0.6 -0.1
v -0.3 0.2 -0.1
v -0.3 0.3 -0.1
v -0.3 0.4 -0.1
v -0.3 0.5 -0.1
v -0.3 0.6 -0.1
v -0.3 0.7 -0.1
v -0.2 0.3 -0.1
v -0.2 0.4 -0.1
v -0.2 0.5 -0.1
v -0.1 0.1 -0.1
v -0.1 0.2 -0.1
v -0.1 0.3 -0.1
v -0.1 0.4 -0.1
v -0.1 0.5 -0.1
v -0.1 0.6 -0.1
v -0.1 0.7 -0.1
v -0.1 0.8 -0.1
v -5.96046e-08 0.2 -0.1
v -5.96046e-08 0.3 -0.1
v -5.96046e-08 0.4 -0.1
v -5.96046e-08 0.5 -0.1
v -5.96046e-08 0.6 -0.1
v 0.1 0 -0.1
v 0.1 0.1 -0.1
v 0.1 0.2 -0.1
v 0.1 0.3 -0.1
v 0.1 0.4 -0.1
v 0.1 0.5 -0.1
v 0.1 0.6 -0.1
v 0.1 0.7 -0.1
v 0.1 0.8 -0.1
v 0.1 0.9 -0.1
v 0.2 0.1 -0.1
v 0.2 0.3 -0.1
v 0.2 0.4 -0.1
v 0.2 0.5 -0.1
v 0.2 0.6 -0.1
v 0.2 0.7 -0.1
v 0.3 0.1 -0.1
v 0.3 0.3 -0.1
v 0.3 0.5 -0.1
v 0.3 0.6 -0.1
v 0.3 0.7 -0.1
v 0.3 0.8 -0.1
v 0.4 -0.1 -0.1
v 0.4 0 -0.1
v 0.4 0.5 -0.1
v 0.4 0.7 -0.1
v 0.4 0.8 -0.1
v 0.4 0.9 -0.1
v 0.4 1 -0.1
v 0.6 -0.1 -0.1
v 0.6 0 -0.1
v 0.6 0.5 -0.1
v 0.6 0.7 -0.1
v 0.6 0.8 -0.1
v 0.6 0.9 -0.1
v 0.6 1 -0.1
v 0.7 0 -0.1
v 0.7 0.4 -0.1
v 0.7 0.5 -0.1
v 0.7 0.7 -0.1
v 0.7 0.8 -0.1
v 0.8 0.3 -0.1
v 0.8 0.4 -0.1
v 0.8 0.5 -0.1
v 0.8 0.6 -0.1
v 0.9 0.1 -0.1
v 0.9 0.3 -0.1
v 0.9 0.5 -0.1
v 0.9 0.6 -0.1
v 0.9 0.7 -0.1
v 1 0 -0.1
v 1 0.1 -0.1
v 1 0.3 -0.1
v 1.1 0.5 -0.1
v 1.1 0.6 -0.1
v 1.1 0.7 -0.1
v 1.1 0.8 -0.1
v 1.1 0.9 -0.1
v 1.2 0 -0.1
v 1.2 0.1 -0.1
v 1.2 0.2 -0.1
v 1.2 0.5 -0.1
v 1.2 0.6 -0.1
v 1.2 0.7 -0.1
v 1.3 0.1 -0.1
v 1.3 0.2 -0.1
v 1.3 0.4 -0.1
v 1.3 0.5 -0.1
v 1.3 0.6 -0.1
v 1.3 0.7 -0.1
v 1.3 0.8 -0.1
v 1.4 0.2 -0.1
v 1.4 0.4 -0.1
v 1.4 0.6 -0.1
v 1.4 0.7 -0.1
v 1.5 0.4 -0.1
v 1.5 0.6 -0.1
v -0.6 0.4 -0.5
v -0.6 0.5 -0.5
v -0.5 0.3 -0.5
v -0.5 0.4 -0.5
v -0.5 0.5 -0.5
v -0.5 0.6 -0.5
v -0.3 0.2 -0.5
v -0.3 0.3 -0.5
v -0.3 0.4 -0.5
v -0.3 0.5 -0.5
v -0.3 0.6 -0.5
v -0.3 0.7 -0.5
v -0.2 0.3 -0.5
v -0.2 0.4 -0.5
v -0.2 0.5 -0.5
v -0.1 0.1 -0.5
v -0.1 0.2 -0.5
v -0.1 0.3 -0.5
v -0.1 0.4 -0.5
v -0.1 0.5 -0.5
v -0.1 0.6 -0.5
v -0.1 0.7 -0.5
v -0.1 0.8 -0.5
v -5.96046e-08 0.2 -0.5
v -5.96046e-08 0.3 -0.5
v -5.96046e-08 0.4 -0.5
v -5.96046e-08 0.5 -0.5
v -5.96046e-08 0.6 -0.5
v 0.1 0 -0.5
v 0.1 0.1 -0.5
v 0.1 0.2 -0.5
v 0.1 0.3 -0.5
v 0.1 0.4 -0.5
v 0.1 0.5 -0.5
v 0.1 0.6 -0.5
v 0.1 0.7 -0.5
v 0.1 0.8 -0.5
v 0.1 0.9 -0.5
v 0.2 0.1 -0.5
v 0.2 0.3 -0.5
v 0.2 0.4 -0.5
v 0.2 0.5 -0.5
v 0.2 0.6 -0.5
v 0.2 0.7 -0.5
v 0.3 0.1 -0.5
v 0.3 0.3 -0.5
v 0.3 0.5 -0.5
v 0.3 0.6 -0.5
v 0.3 0.7 -0.5
v 0.3 0.8 -0.5
v 0.4 -0.1 -0.5
v 0.4 0 -0.5
v 0.4 0.5 -0.5
v 0.4 0.7 -0.5
v 0.4 0.8 -0.5
v 0.4 0.9 -0.5
v 0.4 1 -0.5
v 0.6 -0.1 -0.5
v 0.6 0 -0.5
v 0.6 0.5 -0.5
v 0.6 0.7 -0.5
v 0.6 0.8 -0.5
v 0.6 0.9 -0.5
v 0.6 1 -0.5
v 0.7 0 -0.5
v 0.7 0.4 -0.5
v 0.7 0.5 -0.5
v 0.7 0.7 -0.5
v 0.7 0.8 -0.5
v 0.8 0.3 -0.5
v 0.8 0.4 -0.5
v 0.8 0.5 -0.5
v 0.8 0.6 -0.5
v 0.9 0.1 -0.5
v 0.9 0.3 -0.5
v 0.9 0.5 -0.5
v 0.9 0.6 -0.5
v 0.9 0.7 -0.5
v 1 0 -0.5
v 1 0.1 -0.5
v 1 0.3 -0.5
v 1.1 0.5 -0.5
v 1.1 0.6 -0.5
v 1.1 0.7 -0.5
v 1.1 0.8 -0.5
v 1.1 0.9 -0.5
v 1.2 0 -0.5
v 1.2 0.1 -0.5
v 1.2 0.2 -0.5
v 1.2 0.5 -0.5
v 1.2 0.6 -0.5
v 1.2 0.7 -0.5
v 1.3 0.1 -0.5
v 1.3 0.2 -0.5
v 1.3 0.4 -0.5
v 1.3 0.5 -0.5
v 1.3 0.6 -0.5
v 1.3 0.7 -0.5
v 1.3 0.8 -0.5
v 1.4 0.2 -0.5
v 1.4 0.4 -0.5
v 1.4 0.6 -0.5
v 1.4 0.7 -0.5
v 1.5 0.4 -0.5
v 1.5 0.6 -0.5
v 0.4 -0.1 -0.1
v 0.6 -0.1 -0.1
v 0.4 -0.1 -0.5
v 0.6 -0.1 -0.5
v 0.1 0 -0.1
v 0.4 0 -0.1
v 0.6 0 -0.1
v 0.7 0 -0.1
v 1 0 -0.1
v 1.2 0 -0.1
v 0.1 0 -0.5
v 0.4 0 -0.5
v 0.6 0 -0.5
v 0.7 0 -0.5
v 1 0 -0.5
v 1.2 0 -0.5
v -0.1 0.1 -0.1
v 0.1 0.1 -0.1
v 0.9 0.1 -0.1
v 1 0.1 -0.1
v 1.2 0.1 -0.1
v 1.3 0.1 -0.1
v -0.1 0.1 -0.5
v 0.1 0.1 -0.5
v 0.9 0.1 -0.5
v 1 0.1 -0.5
v 1.2 0.1 -0.5
v 1.3 0.1 -0.5
v -0.3 0.2 -0.1
v -0.1 0.2 -0.1
v 1.3 0.2 -0.1
v 1.4 0.2 -0.1
v -0.3 0.2 -0.5
v -0.1 0.2 -0.5
v 1.3 0.2 -0.5
v 1.4 0.2 -0.5
v -0.5 0.3 -0.1
v -0.3 0.3 -0.1
v 0.8 0.3 -0.1
v 0.9 0.3 -0.1
v -0.5 0.3 -0.5
v -0.3 0.3 -0.5
v 0.8 0.3 -0.5
v 0.9 0.3 -0.5
v -0.6 0.4 -0.1
v -0.5 0.4 -0.1
v 0.7 0.4 -0.1
v 0.8 0.4 -0.1
v 1.4 0.4 -0.1
v 1.5 0.4 -0.1
v -0.6 0.4 -0.5
v -0.5 0.4 -0.5
v 0.7 0.4 -0.5
v 0.8 0.4 -0.5
v 1.4 0.4 -0.5
v 1.5 0.4 -0.5
v -0.6 0.5 -0.1
v -0.5 0.5 -0.1
v -0.6 0.5 -0.5
v -0.5 0.5 -0.5
v -0.5 0.6 -0.1
v -0.3 0.6 -0.1
v 1.4 0.6 -0.1
v 1.5 0.6 -0.1
v -0.5 0.6 -0.5
v -0.3 0.6 -0.5
v 1.4 0.6 -0.5
v 1.5 0.6 -0.5
v -0.3 0.7 -0.1
v -0.1 0.7 -0.1
v 1.3 0.7 -0.1
v 1.4 0.7 -0.1
v -0.3 0.7 -0.5
v -0.1 0.7 -0.5
v 1.3 0.7 -0.5
v 1.4 0.7 -0.5
v -0.1 0.8 -0.1
v 0.1 0.8 -0.1
v 1.1 0.8 -0.1
v 1.3 0.8 -0.1
v -0.1 0.8 -0.5
v 0.1 0.8 -0.5
v 1.1 0.8 -0.5
v 1.3 0.8 -0.5
v 0.1 0.9 -0.1
v 0.4 0.9 -0.1
v 0.6 0.9 -0.1
v 1.1 0.9 -0.1
v 0.1 0.9 -0.5
v 0.4 0.9 -0.5
v 0.6 0.9 -0.5
v 1.1 0.9 -0.5
v 0.4 1 -0.1
v 0.6 1 -0.1
v 0.4 1 -0.5
v 0.6 1 -0.5

# faces
f 3/6/1 2/6/1 1/6/1
f 4/6/1 2/6/1 3/6/1
f 7/6/1 6/6/1 5/6/1
f 8/6/1 6/6/1 7/6/1
f 11/6/1 10/6/1 9/6/1
f 12/6/1 10/6/1 11/6/1
f 15/6/1 14/6/1 13/6/1
f 16/6/1 14/6/1 15/6/1
f 19/6/1 18/6/1 17/6/1
f 20/6/1 18/6/1 19/6/1
f 23/6/1 22/6/1 21/6/1
f 24/6/1 22/6/1 23/6/1
f 27/6/1 26/6/1 25/6/1
f 28/6/1 26/6/1 27/6/1
f 31/6/1 30/6/1 29/6/1
f 32/6/1 30/6/1 31/6/1
f 35/6/1 34/6/1 33/6/1
f 36/6/1 34/6/1 35/6/1
f 39/6/1 38/6/1 37/6/1
f 40/6/1 38/6/1 39/6/1
f 43/6/1 42/6/1 41/6/1
f 44/6/1 42/6/1 43/6/1
f 47/6/1 46/6/1 45/6/1
f 48/6/1 46/6/1 47/6/1
f 51/6/1 50/6/1 49/6/1
f 52/6/1 50/6/1 51/6/1
f 55/6/1 54/6/1 53/6/1
f 56/6/1 54/6/1 55/6/1
f 57/6/2 58/6/2 59/6/2
f 59/6/2 58/6/2 60/6/2
f 61/6/2 62/6/2 63/6/2
f 63/6/2 62/6/2 64/6/2
f 65/6/2 66/6/2 67/6/2
f 67/6/2 66/6/2 68/6/2
f 69/6/2 70/6/2 71/6/2
f 71/6/2 70/6/2 72/6/2
f 73/6/2 74/6/2 75/6/2
f 75/6/2 74/6/2 76/6/2
f 77/6/2 78/6/2 79/6/2
f 79/6/2 78/6/2 80/6/2
f 81/6/2 82/6/2 83/6/2
f 83/6/2 82/6/2 84/6/2
f 85/6/2 86/6/2 87/6/2
f 87/6/2 86/6/2 88/6/2
f 89/6/2 90/6/2 91/6/2
f 91/6/2 90/6/2 92/6/2
f 93/6/2 94/6/2 95/6/2
f 95/6/2 94/6/2 96/6/2
f 100/6/3 98/6/3 97/6/3
f 101/6/3 98/6/3 100/6/3
f 104/6/3 100/6/3 99/6/3
f 105/3/3 101/3/3 100/3/3
f 105/6/3 100/6/3 104/6/3
f 106/6/3 102/6/3 101/6/3
f 106/3/3 101/3/3 105/3/3
f 107/6/3 102/6/3 106/6/3
f 109/1/3 105/1/3 104/1/3
f 109/6/3 104/6/3 103/6/3
f 110/2/3 106/2/3 105/2/3
f 110/1/3 105/1/3 109/1/3
f 111/3/3 107/3/3 106/3/3
f 111/2/3 106/2/3 110/2/3
f 113/6/3 109/6/3 103/6/3
f 114/2/3 110/2/3 109/2/3
f 114/6/3 109/6/3 113/6/3
f 115/1/3 111/1/3 110/1/3
f 115/2/3 110/2/3 114/2/3
f 116/3/3 107/3/3 111/3/3
f 116/1/3 111/1/3 115/1/3
f 117/6/3 108/6/3 107/6/3
f 117/3/3 107/3/3 116/3/3
f 118/6/3 108/6/3 117/6/3
f 120/6/3 113/6/3 112/6/3
f 120/2/3 114/2/3 113/2/3
f 121/1/3 116/1/3 115/1/3
f 121/2/3 114/2/3 120/2/3
f 121/1/3 115/1/3 114/1/3
f 122/1/3 116/1/3 121/1/3
f 123/2/3 117/2/3 116/2/3
f 123/1/3 116/1/3 122/1/3
f 124/3/3 118/3/3 117/3/3
f 124/2/3 117/2/3 123/2/3
f 126/6/3 120/6/3 112/6/3
f 127/1/3 122/1/3 121/1/3
f 127/1/3 121/1/3 120/1/3
f 127/6/3 120/6/3 126/6/3
f 128/1/3 122/1/3 127/1/3
f 129/2/3 123/2/3 122/2/3
f 129/1/3 122/1/3 128/1/3
f 130/1/3 124/1/3 123/1/3
f 130/2/3 123/2/3 129/2/3
f 131/3/3 118/3/3 124/3/3
f 131/1/3 124/1/3 130/1/3
f 132/6/3 119/6/3 118/6/3
f 132/3/3 118/3/3 131/3/3
f 133/6/3 119/6/3 132/6/3
f 135/6/3 126/6/3 125/6/3
f 135/1/3 128/1/3 127/1/3
f 135/1/3 127/1/3 126/1/3
f 136/2/3 129/2/3 128/2/3
f 136/1/3 128/1/3 135/1/3
f 137/1/3 130/1/3 129/1/3
f 137/2/3 129/2/3 136/2/3
f 137/1/3 131/1/3 130/1/3
f 138/1/3 131/1/3 137/1/3
f 139/2/3 132/2/3 131/2/3
f 139/1/3 131/1/3 138/1/3
f 140/3/3 133/3/3 132/3/3
f 140/2/3 132/2/3 139/2/3
f 141/2/3 136/2/3 135/2/3
f 141/6/3 135/6/3 125/6/3
f 142/1/3 138/1/3 137/1/3
f 142/2/3 136/2/3 141/2/3
f 142/1/3 137/1/3 136/1/3
f 143/2/3 139/2/3 138/2/3
f 143/1/3 138/1/3 142/1/3
f 144/1/3 140/1/3 139/1/3
f 144/2/3 139/2/3 143/2/3
f 145/3/3 133/3/3 140/3/3
f 145/1/3 140/1/3 144/1/3
f 146/6/3 134/6/3 133/6/3
f 146/3/3 133/3/3 145/3/3
f 148/6/3 144/6/3 143/6/3
f 148/6/3 141/6/3 125/6/3
f 148/6/3 146/6/3 145/6/3
f 148/6/3 143/6/3 142/6/3
f 148/6/3 145/6/3 144/6/3
f 148/6/3 142/6/3 141/6/3
f 149/6/3 146/6/3 148/6/3
f 150/6/3 146/6/3 149/6/3
f 151/6/3 134/6/3 146/6/3
f 151/6/3 146/6/3 150/6/3
f 152/6/3 134/6/3 151/6/3
f 154/6/3 148/6/3 147/6/3
f 155/5/3 149/5/3 148/5/3
f 155/6/3 148/6/3 154/6/3
f 156/3/3 150/3/3 149/3/3
f 156/5/3 149/5/3 155/5/3
f 157/5/3 151/5/3 150/5/3
f 157/3/3 150/3/3 156/3/3
f 158/3/3 152/3/3 151/3/3
f 158/5/3 151/5/3 157/5/3
f 159/6/3 153/6/3 152/6/3
f 159/3/3 152/3/3 158/3/3
f 160/6/3 153/6/3 159/6/3
f 161/6/3 158/6/3 157/6/3
f 161/6/3 159/6/3 158/6/3
f 161/6/3 157/6/3 156/6/3
f 161/6/3 156/6/3 155/6/3
f 162/6/3 159/6/3 161/6/3
f 163/6/3 159/6/3 162/6/3
f 164/6/3 159/6/3 163/6/3
f 165/6/3 159/6/3 164/6/3
f 167/6/3 163/6/3 162/6/3
f 168/5/3 164/5/3 163/5/3
f 168/6/3 163/6/3 167/6/3
f 169/5/3 164/5/3 168/5/3
f 171/6/3 167/6/3 166/6/3
f 171/6/3 168/6/3 167/6/3
f 172/3/3 169/3/3 168/3/3
f 172/6/3 168/6/3 171/6/3
f 173/5/3 164/5/3 169/5/3
f 173/3/3 169/3/3 172/3/3
f 174/4/3 165/4/3 164/4/3
f 174/5/3 164/5/3 173/5/3
f 176/6/3 171/6/3 170/6/3
f 177/5/3 172/5/3 171/5/3
f 177/6/3 171/6/3 176/6/3
f 178/3/3 173/3/3 172/3/3
f 178/5/3 172/5/3 177/5/3
f 178/5/3 177/5/3 176/5/3
f 178/3/3 174/3/3 173/3/3
f 179/3/3 174/3/3 178/3/3
f 180/4/3 165/4/3 174/4/3
f 180/3/3 174/3/3 179/3/3
f 181/6/3 159/6/3 165/6/3
f 181/4/3 165/4/3 180/4/3
f 182/6/3 159/6/3 181/6/3
f 183/6/3 176/6/3 175/6/3
f 184/5/3 179/5/3 178/5/3
f 184/6/3 176/6/3 183/6/3
f 184/5/3 178/5/3 176/5/3
f 185/5/3 179/5/3 184/5/3
f 186/5/3 179/5/3 185/5/3
f 187/3/3 180/3/3 179/3/3
f 187/5/3 179/5/3 186/5/3
f 188/6/3 181/6/3 180/6/3
f 188/3/3 180/3/3 187/3/3
f 189/6/3 185/6/3 184/6/3
f 190/5/3 186/5/3 185/5/3
f 190/6/3 185/6/3 189/6/3
f 191/5/3 186/5/3 190/5/3
f 192/4/3 187/4/3 186/4/3
f 192/5/3 186/5/3 191/5/3
f 192/4/3 188/4/3 187/4/3
f 193/4/3 188/4/3 192/4/3
f 194/6/3 181/6/3 188/6/3
f 194/4/3 188/4/3 193/4/3
f 195/6/3 181/6/3 194/6/3
f 196/6/3 191/6/3 190/6/3
f 197/4/3 193/4/3 192/4/3
f 197/6/3 191/6/3 196/6/3
f 197/4/3 192/4/3 191/4/3
f 198/6/3 194/6/3 193/6/3
f 198/4/3 193/4/3 197/4/3
f 199/6/3 194/6/3 198/6/3
f 200/6/3 198/6/3 197/6/3
f 201/6/3 198/6/3 200/6/3
f 202/6/4 203/6/4 205/6/4
f 205/6/4 203/6/4 206/6/4
f 204/6/4 205/6/4 209/6/4
f 205/3/4 206/3/4 210/3/4
f 209/6/4 205/6/4 210/6/4
f 206/6/4 207/6/4 211/6/4
f 210/3/4 206/3/4 211/3/4
f 211/6/4 207/6/4 212/6/4
f 209/1/4 210/1/4 214/1/4
f 208/6/4 209/6/4 214/6/4
f 210/2/4 211/2/4 215/2/4
f 214/1/4 210/1/4 215/1/4
f 211/3/4 212/3/4 216/3/4
f 215/2/4 211/2/4 216/2/4
f 208/6/4 214/6/4 218/6/4
f 214/2/4 215/2/4 219/2/4
f 218/6/4 214/6/4 219/6/4
f 215/1/4 216/1/4 220/1/4
f 219/2/4 215/2/4 220/2/4
f 216/3/4 212/3/4 221/3/4
f 220/1/4 216/1/4 221/1/4
f 212/6/4 213/6/4 222/6/4
f 221/3/4 212/3/4 222/3/4
f 222/6/4 213/6/4 223/6/4
f 217/6/4 218/6/4 225/6/4
f 218/2/4 219/2/4 225/2/4
f 220/1/4 221/1/4 226/1/4
f 225/2/4 219/2/4 226/2/4
f 219/1/4 220/1/4 226/1/4
f 226/1/4 221/1/4 227/1/4
f 221/2/4 222/2/4 228/2/4
f 227/1/4 221/1/4 228/1/4
f 222/3/4 223/3/4 229/3/4
f 228/2/4 222/2/4 229/2/4
f 217/6/4 225/6/4 231/6/4
f 226/1/4 227/1/4 232/1/4
f 225/1/4 226/1/4 232/1/4
f 231/6/4 225/6/4 232/6/4
f 232/1/4 227/1/4 233/1/4
f 227/2/4 228/2/4 234/2/4
f 233/1/4 227/1/4 234/1/4
f 228/1/4 229/1/4 235/1/4
f 234/2/4 228/2/4 235/2/4
f 229/3/4 223/3/4 236/3/4
f 235/1/4 229/1/4 236/1/4
f 223/6/4 224/6/4 237/6/4
f 236/3/4 223/3/4 237/3/4
f 237/6/4 224/6/4 238/6/4
f 230/6/4 231/6/4 240/6/4
f 232/1/4 233/1/4 240/1/4
f 231/1/4 232/1/4 240/1/4
f 233/2/4 234/2/4 241/2/4
f 240/1/4 233/1/4 241/1/4
f 234/1/4 235/1/4 242/1/4
f 241/2/4 234/2/4 242/2/4
f 235/1/4 236/1/4 242/1/4
f 242/1/4 236/1/4 243/1/4
f 236/2/4 237/2/4 244/2/4
f 243/1/4 236/1/4 244/1/4
f 237/3/4 238/3/4 245/3/4
f 244/2/4 237/2/4 245/2/4
f 240/2/4 241/2/4 246/2/4
f 230/6/4 240/6/4 246/6/4
f 242/1/4 243/1/4 247/1/4
f 246/2/4 241/2/4 247/2/4
f 241/1/4 242/1/4 247/1/4
f 243/2/4 244/2/4 248/2/4
f 247/1/4 243/1/4 248/1/4
f 244/1/4 245/1/4 249/1/4
f 248/2/4 244/2/4 249/2/4
f 245/3/4 238/3/4 250/3/4
f 249/1/4 245/1/4 250/1/4
f 238/6/4 239/6/4 251/6/4
f 250/3/4 238/3/4 251/3/4
f 248/6/4 249/6/4 253/6/4
f 230/6/4 246/6/4 253/6/4
f 250/6/4 251/6/4 253/6/4
f 247/6/4 248/6/4 253/6/4
f 249/6/4 250/6/4 253/6/4
f 246/6/4 247/6/4 253/6/4
f 253/6/4 251/6/4 254/6/4
f 254/6/4 251/6/4 255/6/4
f 251/6/4 239/6/4 256/6/4
f 255/6/4 251/6/4 256/6/4
f 256/6/4 239/6/4 257/6/4
f 252/6/4 253/6/4 259/6/4
f 253/5/4 254/5/4 260/5/4
f 259/6/4 253/6/4 260/6/4
f 254/3/4 255/3/4 261/3/4
f 260/5/4 254/5/4 261/5/4
f 255/5/4 256/5/4 262/5/4
f 261/3/4 255/3/4 262/3/4
f 256/3/4 257/3/4 263/3/4
f 262/5/4 256/5/4 263/5/4
f 257/6/4 258/6/4 264/6/4
f 263/3/4 257/3/4 264/3/4
f 264/6/4 258/6/4 265/6/4
f 262/6/4 263/6/4 266/6/4
f 263/6/4 264/6/4 266/6/4
f 261/6/4 262/6/4 266/6/4
f 260/6/4 261/6/4 266/6/4
f 266/6/4 264/6/4 267/6/4
f 267/6/4 264/6/4 268/6/4
f 268/6/4 264/6/4 269/6/4
f 269/6/4 264/6/4 270/6/4
f 267/6/4 268/6/4 272/6/4
f 268/5/4 269/5/4 273/5/4
f 272/6/4 268/6/4 273/6/4
f 273/5/4 269/5/4 274/5/4
f 271/6/4 272/6/4 276/6/4
f 272/6/4 273/6/4 276/6/4
f 273/3/4 274/3/4 277/3/4
f 276/6/4 273/6/4 277/6/4
f 274/5/4 269/5/4 278/5/4
f 277/3/4 274/3/4 278/3/4
f 269/4/4 270/4/4 279/4/4
f 278/5/4 269/5/4 279/5/4
f 275/6/4 276/6/4 281/6/4
f 276/5/4 277/5/4 282/5/4
f 281/6/4 276/6/4 282/6/4
f 277/3/4 278/3/4 283/3/4
f 282/5/4 277/5/4 283/5/4
f 281/5/4 282/5/4 283/5/4
f 278/3/4 279/3/4 283/3/4
f 283/3/4 279/3/4 284/3/4
f 279/4/4 270/4/4 285/4/4
f 284/3/4 279/3/4 285/3/4
f 270/6/4 264/6/4 286/6/4
f 285/4/4 270/4/4 286/4/4
f 286/6/4 264/6/4 287/6/4
f 280/6/4 281/6/4 288/6/4
f 283/5/4 284/5/4 289/5/4
f 288/6/4 281/6/4 289/6/4
f 281/5/4 283/5/4 289/5/4
f 289/5/4 284/5/4 290/5/4
f 290/5/4 284/5/4 291/5/4
f 284/3/4 285/3/4 292/3/4
f 291/5/4 284/5/4 292/5/4
f 285/6/4 286/6/4 293/6/4
f 292/3/4 285/3/4 293/3/4
f 289/6/4 290/6/4 294/6/4
f 290/5/4 291/5/4 295/5/4
f 294/6/4 290/6/4 295/6/4
f 295/5/4 291/5/4 296/5/4
f 291/4/4 292/4/4 297/4/4
f 296/5/4 291/5/4 297/5/4
f 292/4/4 293/4/4 297/4/4
f 297/4/4 293/4/4 298/4/4
f 293/6/4 286/6/4 299/6/4
f 298/4/4 293/4/4 299/4/4
f 299/6/4 286/6/4 300/6/4
f 295/6/4 296/6/4 301/6/4
f 297/4/4 298/4/4 302/4/4
f 301/6/4 296/6/4 302/6/4
f 296/4/4 297/4/4 302/4/4
f 298/6/4 299/6/4 303/6/4
f 302/4/4 298/4/4 303/4/4
f 303/6/4 299/6/4 304/6/4
f 302/6/4 303/6/4 305/6/4
f 305/6/4 303/6/4 306/6/4
f 309/6/5 308/6/5 307/6/5
f 310/6/5 308/6/5 309/6/5
f 317/6/5 312/6/5 311/6/5
f 318/6/5 312/6/5 317/6/5
f 319/6/5 314/6/5 313/6/5
f 320/6/5 314/6/5 319/6/5
f 321/6/5 316/6/5 315/6/5
f 322/6/5 316/6/5 321/6/5
f 329/6/5 324/6/5 323/6/5
f 330/6/5 324/6/5 329/6/5
f 331/6/5 326/6/5 325/6/5
f 332/6/5 326/6/5 331/6/5
f 333/6/5 328/6/5 327/6/5
f 334/6/5 328/6/5 333/6/5
f 339/6/5 336/6/5 335/6/5
f 340/6/5 336/6/5 339/6/5
f 341/6/5 338/6/5 337/6/5
f 342/6/5 338/6/5 341/6/5
f 347/6/5 344/6/5 343/6/5
f 348/6/5 344/6/5 347/6/5
f 349/6/5 346/6/5 345/6/5
f 350/6/5 346/6/5 349/6/5
f 357/6/5 352/6/5 351/6/5
f 358/6/5 352/6/5 357/6/5
f 359/6/5 354/6/5 353/6/5
f 360/6/5 354/6/5 359/6/5
f 361/6/5 356/6/5 355/6/5
f 362/6/5 356/6/5 361/6/5
f 363/6/6 364/6/6 365/6/6
f 365/6/6 364/6/6 366/6/6
f 367/6/6 368/6/6 371/6/6
f 371/6/6 368/6/6 372/6/6
f 369/6/6 370/6/6 373/6/6
f 373/6/6 370/6/6 374/6/6
f 375/6/6 376/6/6 379/6/6
f 379/6/6 376/6/6 380/6/6
f 377/6/6 378/6/6 381/6/6
f 381/6/6 378/6/6 382/6/6
f 383/6/6 384/6/6 387/6/6
f 387/6/6 384/6/6 388/6/6
f 385/6/6 386/6/6 389/6/6
f 389/6/6 386/6/6 390/6/6
f 391/6/6 392/6/6 395/6/6
f 395/6/6 392/6/6 396/6/6
f 393/6/6 394/6/6 397/6/6
f 397/6/6 394/6/6 398/6/6
f 399/6/6 400/6/6 401/6/6
f 401/6/6 400/6/6 402/6/6
