# MagicaVoxel @ Ephtracy

# group
o 

# material
mtllib untitled.mtl
usemtl palette

# normals
vn -1 0 0
vn 1 0 0
vn 0 0 1
vn 0 0 -1
vn 0 -1 0
vn 0 1 0

# texcoords
vt 0.0644531 0.5
vt 0.0683594 0.5
vt 0.970703 0.5
vt 0.978516 0.5
vt 0.982422 0.5
vt 0.990234 0.5
vt 0.994141 0.5

# verts
v -0.1 1.9 2
v -0.1 1.9 1.8
v -0.1 2 2
v -0.1 2 1.8
v -0.1 2.1 2
v -0.1 2.1 1.8
v 0 2.1 2
v 0 2.1 1.8
v 0 2.2 2
v 0 2.2 1.8
v 0.1 2.2 2
v 0.1 2.2 1.8
v 0.1 2.3 2
v 0.1 2.3 1.8
v 0.2 2.3 2
v 0.2 2.3 1.8
v 0.2 2.4 2
v 0.2 2.4 1.8
v 0.3 2.4 2
v 0.3 2.4 1.8
v 0.3 2.5 2
v 0.3 2.5 1.8
v 0.4 2.5 2
v 0.4 2.5 1.8
v 0.4 2.6 2
v 0.4 2.6 1.8
v 0.4 2.9 2
v 0.4 2.9 1.8
v 0.4 3 2
v 0.4 3 1.8
v 0.5 2.6 2
v 0.5 2.6 1.8
v 0.5 2.7 2
v 0.5 2.7 1.8
v 0.5 2.8 2
v 0.5 2.8 1.8
v 0.5 2.9 2
v 0.5 2.9 1.8
v 0.5 3 2
v 0.5 3 1.8
v 0.5 3.1 2
v 0.5 3.1 1.8
v 0.6 2.7 2
v 0.6 2.7 1.8
v 0.6 2.8 2
v 0.6 2.8 1.8
v 0.6 3.1 2
v 0.6 3.1 1.8
v 0.6 3.2 2
v 0.6 3.2 1.8
v 0.7 3.2 2
v 0.7 3.2 1.8
v 0.7 3.3 2
v 0.7 3.3 1.8
v 0.8 2.5 2
v 0.8 2.5 1.8
v 0.8 2.6 2
v 0.8 2.6 1.8
v 0.8 3.3 2
v 0.8 3.3 1.8
v 0.8 3.4 2
v 0.8 3.4 1.8
v 0.9 2.4 2
v 0.9 2.4 1.8
v 0.9 2.5 2
v 0.9 2.5 1.8
v 0.9 3.4 2
v 0.9 3.4 1.8
v 0.9 3.5 2
v 0.9 3.5 1.8
v 0.1 1.9 2
v 0.1 1.9 1.8
v 0.1 2 2
v 0.1 2 1.8
v 0.2 2 2
v 0.2 2 1.8
v 0.2 2.1 2
v 0.2 2.1 1.8
v 0.3 2.1 2
v 0.3 2.1 1.8
v 0.3 2.2 2
v 0.3 2.2 1.8
v 0.4 2.2 2
v 0.4 2.2 1.8
v 0.4 2.3 2
v 0.4 2.3 1.8
v 0.5 2.3 2
v 0.5 2.3 1.8
v 0.5 2.4 2
v 0.5 2.4 1.8
v 0.6 2.4 2
v 0.6 2.4 1.8
v 0.6 2.5 2
v 0.6 2.5 1.8
v 0.7 2.5 2
v 0.7 2.5 1.8
v 0.7 2.6 2
v 0.7 2.6 1.8
v 1 2.4 2
v 1 2.4 1.8
v 1 2.5 2
v 1 2.5 1.8
v 1.1 2.5 2
v 1.1 2.5 1.8
v 1.1 2.6 2
v 1.1 2.6 1.8
v 1.2 2.6 2
v 1.2 2.6 1.8
v 1.2 2.7 2
v 1.2 2.7 1.8
v 1.3 2.7 2
v 1.3 2.7 1.8
v 1.3 2.8 2
v 1.3 2.8 1.8
v 1.4 2.8 2
v 1.4 2.8 1.8
v 1.4 2.9 2
v 1.4 2.9 1.8
v 1.4 3.4 2
v 1.4 3.4 1.8
v 1.4 3.5 2
v 1.4 3.5 1.8
v 1.5 2.9 2
v 1.5 2.9 1.8
v 1.5 3.4 2
v 1.5 3.4 1.8
v -0.1 1.9 2
v -0.1 2 2
v -0.1 2.1 2
v 0 1.9 2
v 0 2 2
v 0 2.1 2
v 0 2.2 2
v 0.1 1.9 2
v 0.1 2 2
v 0.1 2.1 2
v 0.1 2.2 2
v 0.1 2.3 2
v 0.2 2 2
v 0.2 2.1 2
v 0.2 2.2 2
v 0.2 2.3 2
v 0.2 2.4 2
v 0.3 2.1 2
v 0.3 2.2 2
v 0.3 2.3 2
v 0.3 2.4 2
v 0.3 2.5 2
v 0.4 2.2 2
v 0.4 2.3 2
v 0.4 2.4 2
v 0.4 2.5 2
v 0.4 2.6 2
v 0.4 2.9 2
v 0.4 3 2
v 0.5 2.3 2
v 0.5 2.4 2
v 0.5 2.5 2
v 0.5 2.6 2
v 0.5 2.7 2
v 0.5 2.8 2
v 0.5 2.9 2
v 0.5 3 2
v 0.5 3.1 2
v 0.6 2.4 2
v 0.6 2.5 2
v 0.6 2.6 2
v 0.6 2.7 2
v 0.6 2.8 2
v 0.6 3.1 2
v 0.6 3.2 2
v 0.7 2.5 2
v 0.7 2.6 2
v 0.7 2.7 2
v 0.7 2.8 2
v 0.7 2.9 2
v 0.7 3 2
v 0.7 3.1 2
v 0.7 3.2 2
v 0.7 3.3 2
v 0.8 2.5 2
v 0.8 2.6 2
v 0.8 2.7 2
v 0.8 2.8 2
v 0.8 3 2
v 0.8 3.1 2
v 0.8 3.2 2
v 0.8 3.3 2
v 0.8 3.4 2
v 0.9 2.4 2
v 0.9 2.5 2
v 0.9 2.6 2
v 0.9 2.8 2
v 0.9 2.9 2
v 0.9 3 2
v 0.9 3.1 2
v 0.9 3.2 2
v 0.9 3.3 2
v 0.9 3.4 2
v 0.9 3.5 2
v 1 2.4 2
v 1 2.5 2
v 1 2.7 2
v 1 2.8 2
v 1 2.9 2
v 1 3 2
v 1 3.1 2
v 1 3.2 2
v 1 3.3 2
v 1 3.4 2
v 1.1 2.5 2
v 1.1 2.6 2
v 1.1 2.9 2
v 1.1 3 2
v 1.1 3.1 2
v 1.1 3.2 2
v 1.2 2.6 2
v 1.2 2.7 2
v 1.2 2.8 2
v 1.2 3 2
v 1.2 3.1 2
v 1.2 3.2 2
v 1.2 3.3 2
v 1.3 2.7 2
v 1.3 2.8 2
v 1.3 2.9 2
v 1.3 3.1 2
v 1.3 3.3 2
v 1.3 3.4 2
v 1.4 2.8 2
v 1.4 2.9 2
v 1.4 3.3 2
v 1.4 3.4 2
v 1.4 3.5 2
v 1.5 2.9 2
v 1.5 3.4 2
v -0.1 1.9 1.8
v -0.1 2 1.8
v -0.1 2.1 1.8
v 0 1.9 1.8
v 0 2 1.8
v 0 2.1 1.8
v 0 2.2 1.8
v 0.1 1.9 1.8
v 0.1 2 1.8
v 0.1 2.1 1.8
v 0.1 2.2 1.8
v 0.1 2.3 1.8
v 0.2 2 1.8
v 0.2 2.1 1.8
v 0.2 2.2 1.8
v 0.2 2.3 1.8
v 0.2 2.4 1.8
v 0.3 2.1 1.8
v 0.3 2.2 1.8
v 0.3 2.3 1.8
v 0.3 2.4 1.8
v 0.3 2.5 1.8
v 0.4 2.2 1.8
v 0.4 2.3 1.8
v 0.4 2.4 1.8
v 0.4 2.5 1.8
v 0.4 2.6 1.8
v 0.4 2.9 1.8
v 0.4 3 1.8
v 0.5 2.3 1.8
v 0.5 2.4 1.8
v 0.5 2.5 1.8
v 0.5 2.6 1.8
v 0.5 2.7 1.8
v 0.5 2.8 1.8
v 0.5 2.9 1.8
v 0.5 3 1.8
v 0.5 3.1 1.8
v 0.6 2.4 1.8
v 0.6 2.5 1.8
v 0.6 2.6 1.8
v 0.6 2.7 1.8
v 0.6 2.8 1.8
v 0.6 3.1 1.8
v 0.6 3.2 1.8
v 0.7 2.5 1.8
v 0.7 2.6 1.8
v 0.7 2.7 1.8
v 0.7 2.8 1.8
v 0.7 2.9 1.8
v 0.7 3 1.8
v 0.7 3.1 1.8
v 0.7 3.2 1.8
v 0.7 3.3 1.8
v 0.8 2.5 1.8
v 0.8 2.6 1.8
v 0.8 2.7 1.8
v 0.8 2.8 1.8
v 0.8 3 1.8
v 0.8 3.1 1.8
v 0.8 3.2 1.8
v 0.8 3.3 1.8
v 0.8 3.4 1.8
v 0.9 2.4 1.8
v 0.9 2.5 1.8
v 0.9 2.6 1.8
v 0.9 2.8 1.8
v 0.9 2.9 1.8
v 0.9 3 1.8
v 0.9 3.1 1.8
v 0.9 3.2 1.8
v 0.9 3.3 1.8
v 0.9 3.4 1.8
v 0.9 3.5 1.8
v 1 2.4 1.8
v 1 2.5 1.8
v 1 2.7 1.8
v 1 2.8 1.8
v 1 2.9 1.8
v 1 3 1.8
v 1 3.1 1.8
v 1 3.2 1.8
v 1 3.3 1.8
v 1 3.4 1.8
v 1.1 2.5 1.8
v 1.1 2.6 1.8
v 1.1 2.9 1.8
v 1.1 3 1.8
v 1.1 3.1 1.8
v 1.1 3.2 1.8
v 1.2 2.6 1.8
v 1.2 2.7 1.8
v 1.2 2.8 1.8
v 1.2 3 1.8
v 1.2 3.1 1.8
v 1.2 3.2 1.8
v 1.2 3.3 1.8
v 1.3 2.7 1.8
v 1.3 2.8 1.8
v 1.3 2.9 1.8
v 1.3 3.1 1.8
v 1.3 3.3 1.8
v 1.3 3.4 1.8
v 1.4 2.8 1.8
v 1.4 2.9 1.8
v 1.4 3.3 1.8
v 1.4 3.4 1.8
v 1.4 3.5 1.8
v 1.5 2.9 1.8
v 1.5 3.4 1.8
v -0.1 1.9 2
v 0 1.9 2
v 0.1 1.9 2
v -0.1 1.9 1.8
v 0 1.9 1.8
v 0.1 1.9 1.8
v 0.1 2 2
v 0.2 2 2
v 0.1 2 1.8
v 0.2 2 1.8
v 0.2 2.1 2
v 0.3 2.1 2
v 0.2 2.1 1.8
v 0.3 2.1 1.8
v 0.3 2.2 2
v 0.4 2.2 2
v 0.3 2.2 1.8
v 0.4 2.2 1.8
v 0.4 2.3 2
v 0.5 2.3 2
v 0.4 2.3 1.8
v 0.5 2.3 1.8
v 0.5 2.4 2
v 0.6 2.4 2
v 0.9 2.4 2
v 1 2.4 2
v 0.5 2.4 1.8
v 0.6 2.4 1.8
v 0.9 2.4 1.8
v 1 2.4 1.8
v 0.6 2.5 2
v 0.7 2.5 2
v 0.8 2.5 2
v 0.9 2.5 2
v 1 2.5 2
v 1.1 2.5 2
v 0.6 2.5 1.8
v 0.7 2.5 1.8
v 0.8 2.5 1.8
v 0.9 2.5 1.8
v 1 2.5 1.8
v 1.1 2.5 1.8
v 0.7 2.6 2
v 0.8 2.6 2
v 1.1 2.6 2
v 1.2 2.6 2
v 0.7 2.6 1.8
v 0.8 2.6 1.8
v 1.1 2.6 1.8
v 1.2 2.6 1.8
v 1.2 2.7 2
v 1.3 2.7 2
v 1.2 2.7 1.8
v 1.3 2.7 1.8
v 0.5 2.8 2
v 0.6 2.8 2
v 1.3 2.8 2
v 1.4 2.8 2
v 0.5 2.8 1.8
v 0.6 2.8 1.8
v 1.3 2.8 1.8
v 1.4 2.8 1.8
v 0.4 2.9 2
v 0.5 2.9 2
v 1.4 2.9 2
v 1.5 2.9 2
v 0.4 2.9 1.8
v 0.5 2.9 1.8
v 1.4 2.9 1.8
v 1.5 2.9 1.8
v -0.1 2.1 2
v 0 2.1 2
v -0.1 2.1 1.8
v 0 2.1 1.8
v 0 2.2 2
v 0.1 2.2 2
v 0 2.2 1.8
v 0.1 2.2 1.8
v 0.1 2.3 2
v 0.2 2.3 2
v 0.1 2.3 1.8
v 0.2 2.3 1.8
v 0.2 2.4 2
v 0.3 2.4 2
v 0.2 2.4 1.8
v 0.3 2.4 1.8
v 0.3 2.5 2
v 0.4 2.5 2
v 0.3 2.5 1.8
v 0.4 2.5 1.8
v 0.4 2.6 2
v 0.5 2.6 2
v 0.4 2.6 1.8
v 0.5 2.6 1.8
v 0.5 2.7 2
v 0.6 2.7 2
v 0.5 2.7 1.8
v 0.6 2.7 1.8
v 0.4 3 2
v 0.5 3 2
v 0.4 3 1.8
v 0.5 3 1.8
v 0.5 3.1 2
v 0.6 3.1 2
v 0.5 3.1 1.8
v 0.6 3.1 1.8
v 0.6 3.2 2
v 0.7 3.2 2
v 0.6 3.2 1.8
v 0.7 3.2 1.8
v 0.7 3.3 2
v 0.8 3.3 2
v 0.7 3.3 1.8
v 0.8 3.3 1.8
v 0.8 3.4 2
v 0.9 3.4 2
v 1.4 3.4 2
v 1.5 3.4 2
v 0.8 3.4 1.8
v 0.9 3.4 1.8
v 1.4 3.4 1.8
v 1.5 3.4 1.8
v 0.9 3.5 2
v 1.4 3.5 2
v 0.9 3.5 1.8
v 1.4 3.5 1.8

# faces
f 3/2/1 2/2/1 1/2/1
f 4/2/1 2/2/1 3/2/1
f 5/1/1 4/1/1 3/1/1
f 6/1/1 4/1/1 5/1/1
f 9/1/1 8/1/1 7/1/1
f 10/1/1 8/1/1 9/1/1
f 13/1/1 12/1/1 11/1/1
f 14/1/1 12/1/1 13/1/1
f 17/1/1 16/1/1 15/1/1
f 18/1/1 16/1/1 17/1/1
f 21/1/1 20/1/1 19/1/1
f 22/1/1 20/1/1 21/1/1
f 25/1/1 24/1/1 23/1/1
f 26/1/1 24/1/1 25/1/1
f 29/7/1 28/7/1 27/7/1
f 30/7/1 28/7/1 29/7/1
f 33/1/1 32/1/1 31/1/1
f 34/1/1 32/1/1 33/1/1
f 37/7/1 36/7/1 35/7/1
f 38/7/1 36/7/1 37/7/1
f 41/7/1 40/7/1 39/7/1
f 42/7/1 40/7/1 41/7/1
f 45/1/1 44/1/1 43/1/1
f 46/1/1 44/1/1 45/1/1
f 49/7/1 48/7/1 47/7/1
f 50/7/1 48/7/1 49/7/1
f 53/7/1 52/7/1 51/7/1
f 54/7/1 52/7/1 53/7/1
f 57/7/1 56/7/1 55/7/1
f 58/7/1 56/7/1 57/7/1
f 61/7/1 60/7/1 59/7/1
f 62/7/1 60/7/1 61/7/1
f 65/7/1 64/7/1 63/7/1
f 66/7/1 64/7/1 65/7/1
f 69/7/1 68/7/1 67/7/1
f 70/7/1 68/7/1 69/7/1
f 71/1/2 72/1/2 73/1/2
f 73/1/2 72/1/2 74/1/2
f 75/1/2 76/1/2 77/1/2
f 77/1/2 76/1/2 78/1/2
f 79/1/2 80/1/2 81/1/2
f 81/1/2 80/1/2 82/1/2
f 83/1/2 84/1/2 85/1/2
f 85/1/2 84/1/2 86/1/2
f 87/1/2 88/1/2 89/1/2
f 89/1/2 88/1/2 90/1/2
f 91/1/2 92/1/2 93/1/2
f 93/1/2 92/1/2 94/1/2
f 95/1/2 96/1/2 97/1/2
f 97/1/2 96/1/2 98/1/2
f 99/7/2 100/7/2 101/7/2
f 101/7/2 100/7/2 102/7/2
f 103/7/2 104/7/2 105/7/2
f 105/7/2 104/7/2 106/7/2
f 107/7/2 108/7/2 109/7/2
f 109/7/2 108/7/2 110/7/2
f 111/7/2 112/7/2 113/7/2
f 113/7/2 112/7/2 114/7/2
f 115/7/2 116/7/2 117/7/2
f 117/7/2 116/7/2 118/7/2
f 119/7/2 120/7/2 121/7/2
f 121/7/2 120/7/2 122/7/2
f 123/7/2 124/7/2 125/7/2
f 125/7/2 124/7/2 126/7/2
f 130/2/3 128/2/3 127/2/3
f 131/1/3 129/1/3 128/1/3
f 131/2/3 128/2/3 130/2/3
f 132/1/3 129/1/3 131/1/3
f 134/1/3 131/1/3 130/1/3
f 135/2/3 132/2/3 131/2/3
f 135/1/3 131/1/3 134/1/3
f 136/1/3 133/1/3 132/1/3
f 136/2/3 132/2/3 135/2/3
f 137/1/3 133/1/3 136/1/3
f 139/1/3 136/1/3 135/1/3
f 140/2/3 137/2/3 136/2/3
f 140/1/3 136/1/3 139/1/3
f 141/1/3 138/1/3 137/1/3
f 141/2/3 137/2/3 140/2/3
f 142/1/3 138/1/3 141/1/3
f 144/1/3 141/1/3 140/1/3
f 145/2/3 142/2/3 141/2/3
f 145/1/3 141/1/3 144/1/3
f 146/1/3 143/1/3 142/1/3
f 146/2/3 142/2/3 145/2/3
f 147/1/3 143/1/3 146/1/3
f 149/1/3 146/1/3 145/1/3
f 150/2/3 147/2/3 146/2/3
f 150/1/3 146/1/3 149/1/3
f 151/1/3 148/1/3 147/1/3
f 151/2/3 147/2/3 150/2/3
f 152/1/3 148/1/3 151/1/3
f 156/1/3 151/1/3 150/1/3
f 157/2/3 152/2/3 151/2/3
f 157/1/3 151/1/3 156/1/3
f 158/1/3 153/1/3 152/1/3
f 158/2/3 152/2/3 157/2/3
f 159/1/3 153/1/3 158/1/3
f 162/7/3 155/7/3 154/7/3
f 163/7/3 155/7/3 162/7/3
f 165/1/3 158/1/3 157/1/3
f 166/2/3 159/2/3 158/2/3
f 166/1/3 158/1/3 165/1/3
f 167/1/3 160/1/3 159/1/3
f 167/2/3 159/2/3 166/2/3
f 168/1/3 160/1/3 167/1/3
f 169/7/3 164/7/3 163/7/3
f 169/7/3 163/7/3 162/7/3
f 169/7/3 162/7/3 161/7/3
f 170/7/3 164/7/3 169/7/3
f 172/1/3 167/1/3 166/1/3
f 173/2/3 168/2/3 167/2/3
f 173/1/3 167/1/3 172/1/3
f 174/1/3 169/1/3 168/1/3
f 174/2/3 168/2/3 173/2/3
f 175/7/3 171/7/3 170/7/3
f 175/1/3 169/1/3 174/1/3
f 175/7/3 170/7/3 169/7/3
f 176/7/3 171/7/3 175/7/3
f 177/7/3 171/7/3 176/7/3
f 178/7/3 171/7/3 177/7/3
f 179/7/3 171/7/3 178/7/3
f 182/1/3 174/1/3 173/1/3
f 183/7/3 175/7/3 174/7/3
f 183/1/3 174/1/3 182/1/3
f 184/3/3 176/3/3 175/3/3
f 184/7/3 175/7/3 183/7/3
f 185/7/3 177/7/3 176/7/3
f 185/6/3 178/6/3 177/6/3
f 186/7/3 179/7/3 178/7/3
f 186/6/3 178/6/3 185/6/3
f 186/7/3 180/7/3 179/7/3
f 187/7/3 180/7/3 186/7/3
f 188/7/3 180/7/3 187/7/3
f 191/7/3 182/7/3 181/7/3
f 192/3/3 183/3/3 182/3/3
f 192/3/3 184/3/3 183/3/3
f 192/7/3 182/7/3 191/7/3
f 193/3/3 176/3/3 184/3/3
f 193/3/3 184/3/3 192/3/3
f 194/7/3 185/7/3 176/7/3
f 194/3/3 176/3/3 193/3/3
f 194/7/3 186/7/3 185/7/3
f 195/7/3 186/7/3 194/7/3
f 196/6/3 187/6/3 186/6/3
f 196/7/3 186/7/3 195/7/3
f 197/7/3 189/7/3 188/7/3
f 197/6/3 187/6/3 196/6/3
f 197/7/3 188/7/3 187/7/3
f 198/7/3 189/7/3 197/7/3
f 199/7/3 189/7/3 198/7/3
f 201/7/3 193/7/3 192/7/3
f 201/7/3 191/7/3 190/7/3
f 201/7/3 192/7/3 191/7/3
f 202/7/3 193/7/3 201/7/3
f 203/7/3 193/7/3 202/7/3
f 204/4/3 194/4/3 193/4/3
f 204/7/3 193/7/3 203/7/3
f 204/4/3 195/4/3 194/4/3
f 205/4/3 195/4/3 204/4/3
f 206/7/3 196/7/3 195/7/3
f 206/4/3 195/4/3 205/4/3
f 206/7/3 197/7/3 196/7/3
f 207/7/3 197/7/3 206/7/3
f 208/6/3 198/6/3 197/6/3
f 208/7/3 197/7/3 207/7/3
f 209/7/3 200/7/3 199/7/3
f 209/6/3 198/6/3 208/6/3
f 209/7/3 199/7/3 198/7/3
f 210/7/3 200/7/3 209/7/3
f 211/7/3 203/7/3 202/7/3
f 212/7/3 203/7/3 211/7/3
f 213/5/3 205/5/3 204/5/3
f 213/4/3 206/4/3 205/4/3
f 213/4/3 207/4/3 206/4/3
f 213/5/3 204/5/3 203/5/3
f 214/4/3 207/4/3 213/4/3
f 215/7/3 208/7/3 207/7/3
f 215/4/3 207/4/3 214/4/3
f 215/7/3 209/7/3 208/7/3
f 216/7/3 209/7/3 215/7/3
f 217/7/3 203/7/3 212/7/3
f 218/5/3 214/5/3 213/5/3
f 218/7/3 203/7/3 217/7/3
f 218/5/3 213/5/3 203/5/3
f 219/5/3 214/5/3 218/5/3
f 220/4/3 216/4/3 215/4/3
f 220/5/3 214/5/3 219/5/3
f 220/4/3 215/4/3 214/4/3
f 221/4/3 216/4/3 220/4/3
f 222/7/3 209/7/3 216/7/3
f 222/4/3 216/4/3 221/4/3
f 223/6/3 210/6/3 209/6/3
f 223/7/3 209/7/3 222/7/3
f 224/7/3 219/7/3 218/7/3
f 225/5/3 221/5/3 220/5/3
f 225/7/3 219/7/3 224/7/3
f 225/5/3 220/5/3 219/5/3
f 226/5/3 221/5/3 225/5/3
f 227/4/3 222/4/3 221/4/3
f 227/5/3 221/5/3 226/5/3
f 227/4/3 223/4/3 222/4/3
f 228/6/3 210/6/3 223/6/3
f 228/4/3 223/4/3 227/4/3
f 229/7/3 200/7/3 210/7/3
f 229/6/3 210/6/3 228/6/3
f 230/7/3 226/7/3 225/7/3
f 231/5/3 227/5/3 226/5/3
f 231/7/3 226/7/3 230/7/3
f 231/5/3 228/5/3 227/5/3
f 232/4/3 229/4/3 228/4/3
f 232/5/3 228/5/3 231/5/3
f 233/7/3 200/7/3 229/7/3
f 233/4/3 229/4/3 232/4/3
f 234/7/3 200/7/3 233/7/3
f 235/7/3 232/7/3 231/7/3
f 235/7/3 233/7/3 232/7/3
f 236/7/3 233/7/3 235/7/3
f 237/2/4 238/2/4 240/2/4
f 238/1/4 239/1/4 241/1/4
f 240/2/4 238/2/4 241/2/4
f 241/1/4 239/1/4 242/1/4
f 240/1/4 241/1/4 244/1/4
f 241/2/4 242/2/4 245/2/4
f 244/1/4 241/1/4 245/1/4
f 242/1/4 243/1/4 246/1/4
f 245/2/4 242/2/4 246/2/4
f 246/1/4 243/1/4 247/1/4
f 245/1/4 246/1/4 249/1/4
f 246/2/4 247/2/4 250/2/4
f 249/1/4 246/1/4 250/1/4
f 247/1/4 248/1/4 251/1/4
f 250/2/4 247/2/4 251/2/4
f 251/1/4 248/1/4 252/1/4
f 250/1/4 251/1/4 254/1/4
f 251/2/4 252/2/4 255/2/4
f 254/1/4 251/1/4 255/1/4
f 252/1/4 253/1/4 256/1/4
f 255/2/4 252/2/4 256/2/4
f 256/1/4 253/1/4 257/1/4
f 255/1/4 256/1/4 259/1/4
f 256/2/4 257/2/4 260/2/4
f 259/1/4 256/1/4 260/1/4
f 257/1/4 258/1/4 261/1/4
f 260/2/4 257/2/4 261/2/4
f 261/1/4 258/1/4 262/1/4
f 260/1/4 261/1/4 266/1/4
f 261/2/4 262/2/4 267/2/4
f 266/1/4 261/1/4 267/1/4
f 262/1/4 263/1/4 268/1/4
f 267/2/4 262/2/4 268/2/4
f 268/1/4 263/1/4 269/1/4
f 264/7/4 265/7/4 272/7/4
f 272/7/4 265/7/4 273/7/4
f 267/1/4 268/1/4 275/1/4
f 268/2/4 269/2/4 276/2/4
f 275/1/4 268/1/4 276/1/4
f 269/1/4 270/1/4 277/1/4
f 276/2/4 269/2/4 277/2/4
f 277/1/4 270/1/4 278/1/4
f 273/7/4 274/7/4 279/7/4
f 272/7/4 273/7/4 279/7/4
f 271/7/4 272/7/4 279/7/4
f 279/7/4 274/7/4 280/7/4
f 276/1/4 277/1/4 282/1/4
f 277/2/4 278/2/4 283/2/4
f 282/1/4 277/1/4 283/1/4
f 278/1/4 279/1/4 284/1/4
f 283/2/4 278/2/4 284/2/4
f 280/7/4 281/7/4 285/7/4
f 284/1/4 279/1/4 285/1/4
f 279/7/4 280/7/4 285/7/4
f 285/7/4 281/7/4 286/7/4
f 286/7/4 281/7/4 287/7/4
f 287/7/4 281/7/4 288/7/4
f 288/7/4 281/7/4 289/7/4
f 283/1/4 284/1/4 292/1/4
f 284/7/4 285/7/4 293/7/4
f 292/1/4 284/1/4 293/1/4
f 285/3/4 286/3/4 294/3/4
f 293/7/4 285/7/4 294/7/4
f 286/7/4 287/7/4 295/7/4
f 287/6/4 288/6/4 295/6/4
f 288/7/4 289/7/4 296/7/4
f 295/6/4 288/6/4 296/6/4
f 289/7/4 290/7/4 296/7/4
f 296/7/4 290/7/4 297/7/4
f 297/7/4 290/7/4 298/7/4
f 291/7/4 292/7/4 301/7/4
f 292/3/4 293/3/4 302/3/4
f 293/3/4 294/3/4 302/3/4
f 301/7/4 292/7/4 302/7/4
f 294/3/4 286/3/4 303/3/4
f 302/3/4 294/3/4 303/3/4
f 286/7/4 295/7/4 304/7/4
f 303/3/4 286/3/4 304/3/4
f 295/7/4 296/7/4 304/7/4
f 304/7/4 296/7/4 305/7/4
f 296/6/4 297/6/4 306/6/4
f 305/7/4 296/7/4 306/7/4
f 298/7/4 299/7/4 307/7/4
f 306/6/4 297/6/4 307/6/4
f 297/7/4 298/7/4 307/7/4
f 307/7/4 299/7/4 308/7/4
f 308/7/4 299/7/4 309/7/4
f 302/7/4 303/7/4 311/7/4
f 300/7/4 301/7/4 311/7/4
f 301/7/4 302/7/4 311/7/4
f 311/7/4 303/7/4 312/7/4
f 312/7/4 303/7/4 313/7/4
f 303/4/4 304/4/4 314/4/4
f 313/7/4 303/7/4 314/7/4
f 304/4/4 305/4/4 314/4/4
f 314/4/4 305/4/4 315/4/4
f 305/7/4 306/7/4 316/7/4
f 315/4/4 305/4/4 316/4/4
f 306/7/4 307/7/4 316/7/4
f 316/7/4 307/7/4 317/7/4
f 307/6/4 308/6/4 318/6/4
f 317/7/4 307/7/4 318/7/4
f 309/7/4 310/7/4 319/7/4
f 318/6/4 308/6/4 319/6/4
f 308/7/4 309/7/4 319/7/4
f 319/7/4 310/7/4 320/7/4
f 312/7/4 313/7/4 321/7/4
f 321/7/4 313/7/4 322/7/4
f 314/5/4 315/5/4 323/5/4
f 315/4/4 316/4/4 323/4/4
f 316/4/4 317/4/4 323/4/4
f 313/5/4 314/5/4 323/5/4
f 323/4/4 317/4/4 324/4/4
f 317/7/4 318/7/4 325/7/4
f 324/4/4 317/4/4 325/4/4
f 318/7/4 319/7/4 325/7/4
f 325/7/4 319/7/4 326/7/4
f 322/7/4 313/7/4 327/7/4
f 323/5/4 324/5/4 328/5/4
f 327/7/4 313/7/4 328/7/4
f 313/5/4 323/5/4 328/5/4
f 328/5/4 324/5/4 329/5/4
f 325/4/4 326/4/4 330/4/4
f 329/5/4 324/5/4 330/5/4
f 324/4/4 325/4/4 330/4/4
f 330/4/4 326/4/4 331/4/4
f 326/7/4 319/7/4 332/7/4
f 331/4/4 326/4/4 332/4/4
f 319/6/4 320/6/4 333/6/4
f 332/7/4 319/7/4 333/7/4
f 328/7/4 329/7/4 334/7/4
f 330/5/4 331/5/4 335/5/4
f 334/7/4 329/7/4 335/7/4
f 329/5/4 330/5/4 335/5/4
f 335/5/4 331/5/4 336/5/4
f 331/4/4 332/4/4 337/4/4
f 336/5/4 331/5/4 337/5/4
f 332/4/4 333/4/4 337/4/4
f 333/6/4 320/6/4 338/6/4
f 337/4/4 333/4/4 338/4/4
f 320/7/4 310/7/4 339/7/4
f 338/6/4 320/6/4 339/6/4
f 335/7/4 336/7/4 340/7/4
f 336/5/4 337/5/4 341/5/4
f 340/7/4 336/7/4 341/7/4
f 337/5/4 338/5/4 341/5/4
f 338/4/4 339/4/4 342/4/4
f 341/5/4 338/5/4 342/5/4
f 339/7/4 310/7/4 343/7/4
f 342/4/4 339/4/4 343/4/4
f 343/7/4 310/7/4 344/7/4
f 341/7/4 342/7/4 345/7/4
f 342/7/4 343/7/4 345/7/4
f 345/7/4 343/7/4 346/7/4
f 350/2/5 348/2/5 347/2/5
f 351/1/5 349/1/5 348/1/5
f 351/2/5 348/2/5 350/2/5
f 352/1/5 349/1/5 351/1/5
f 355/1/5 354/1/5 353/1/5
f 356/1/5 354/1/5 355/1/5
f 359/1/5 358/1/5 357/1/5
f 360/1/5 358/1/5 359/1/5
f 363/1/5 362/1/5 361/1/5
f 364/1/5 362/1/5 363/1/5
f 367/1/5 366/1/5 365/1/5
f 368/1/5 366/1/5 367/1/5
f 373/1/5 370/1/5 369/1/5
f 374/1/5 370/1/5 373/1/5
f 375/7/5 372/7/5 371/7/5
f 376/7/5 372/7/5 375/7/5
f 383/1/5 378/1/5 377/1/5
f 384/1/5 378/1/5 383/1/5
f 385/7/5 380/7/5 379/7/5
f 386/7/5 380/7/5 385/7/5
f 387/7/5 382/7/5 381/7/5
f 388/7/5 382/7/5 387/7/5
f 393/1/5 390/1/5 389/1/5
f 394/1/5 390/1/5 393/1/5
f 395/7/5 392/7/5 391/7/5
f 396/7/5 392/7/5 395/7/5
f 399/7/5 398/7/5 397/7/5
f 400/7/5 398/7/5 399/7/5
f 405/7/5 402/7/5 401/7/5
f 406/7/5 402/7/5 405/7/5
f 407/7/5 404/7/5 403/7/5
f 408/7/5 404/7/5 407/7/5
f 413/7/5 410/7/5 409/7/5
f 414/7/5 410/7/5 413/7/5
f 415/7/5 412/7/5 411/7/5
f 416/7/5 412/7/5 415/7/5
f 417/1/6 418/1/6 419/1/6
f 419/1/6 418/1/6 420/1/6
f 421/1/6 422/1/6 423/1/6
f 423/1/6 422/1/6 424/1/6
f 425/1/6 426/1/6 427/1/6
f 427/1/6 426/1/6 428/1/6
f 429/1/6 430/1/6 431/1/6
f 431/1/6 430/1/6 432/1/6
f 433/1/6 434/1/6 435/1/6
f 435/1/6 434/1/6 436/1/6
f 437/1/6 438/1/6 439/1/6
f 439/1/6 438/1/6 440/1/6
f 441/1/6 442/1/6 443/1/6
f 443/1/6 442/1/6 444/1/6
f 445/7/6 446/7/6 447/7/6
f 447/7/6 446/7/6 448/7/6
f 449/7/6 450/7/6 451/7/6
f 451/7/6 450/7/6 452/7/6
f 453/7/6 454/7/6 455/7/6
f 455/7/6 454/7/6 456/7/6
f 457/7/6 458/7/6 459/7/6
f 459/7/6 458/7/6 460/7/6
f 461/7/6 462/7/6 465/7/6
f 465/7/6 462/7/6 466/7/6
f 463/7/6 464/7/6 467/7/6
f 467/7/6 464/7/6 468/7/6
f 469/7/6 470/7/6 471/7/6
f 471/7/6 470/7/6 472/7/6
