# MagicaVoxel @ Ephtracy

# group
o 

# material
mtllib 3.mtl
usemtl palette

# normals
vn -1 0 0
vn 1 0 0
vn 0 0 1
vn 0 0 -1
vn 0 -1 0
vn 0 1 0

# texcoords
vt 0.0332031 0.5
vt 0.0917969 0.5
vt 0.365234 0.5
vt 0.373047 0.5
vt 0.564453 0.5
vt 0.970703 0.5
vt 0.982422 0.5

# verts
v -1.1 2.7 0
v -1.1 2.7 -2
v -1.1 2.9 0
v -1.1 2.9 -2
v -1 0.9 -0.1
v -1 0.9 -2
v -1 1.1 -0.1
v -1 1.1 -2
v -1 2.7 -0.1
v -1 2.7 -2
v -1 2.9 0
v -1 2.9 -2
v -1 3 0
v -1 3 -2
v -0.9 3 0
v -0.9 3 -2
v -0.9 3.1 0
v -0.9 3.1 -2
v -0.8 3.1 0
v -0.8 3.1 -2
v -0.8 3.2 0
v -0.8 3.2 -2
v -0.7 0.9 0.2
v -0.7 0.9 -0.1
v -0.7 1 0.2
v -0.7 1 0.1
v -0.7 1.1 0.1
v -0.7 1.1 -0.1
v -0.7 3.2 0
v -0.7 3.2 -2
v -0.7 3.3 0
v -0.7 3.3 -2
v -0.6 3.3 0
v -0.6 3.3 -2
v -0.6 3.4 0
v -0.6 3.4 -2
v -0.5 3.4 0
v -0.5 3.4 -2
v -0.5 3.5 0
v -0.5 3.5 -2
v -0.4 3.5 0
v -0.4 3.5 -2
v -0.4 3.6 0
v -0.4 3.6 -2
v -0.3 3.6 0
v -0.3 3.6 -2
v -0.3 3.7 0
v -0.3 3.7 -2
v -0.2 3.7 0
v -0.2 3.7 -2
v -0.2 3.8 0
v -0.2 3.8 -2
v -0.1 3.8 0
v -0.1 3.8 -2
v -0.1 3.9 0
v -0.1 3.9 -2
v 0.1 1.8 0
v 0.1 1.8 -0.1
v 0.1 2.6 0
v 0.1 2.6 -0.1
v 0.1 3.6 0
v 0.1 3.6 -0.1
v 0.1 3.7 0
v 0.1 3.7 -0.1
v 0.2 3.5 0
v 0.2 3.5 -0.1
v 0.2 3.6 0
v 0.2 3.6 -0.1
v 0.3 3.4 0
v 0.3 3.4 -0.1
v 0.3 3.5 0
v 0.3 3.5 -0.1
v 0.4 3.3 0
v 0.4 3.3 -0.1
v 0.4 3.4 0
v 0.4 3.4 -0.1
v 0.5 1.9 0
v 0.5 1.9 -0.1
v 0.5 2.1 0
v 0.5 2.1 -0.1
v 0.5 2.2 0
v 0.5 2.2 -0.1
v 0.5 2.5 0
v 0.5 2.5 -0.1
v 0.5 3.2 0
v 0.5 3.2 -0.1
v 0.5 3.3 0
v 0.5 3.3 -0.1
v 0.6 3.1 0
v 0.6 3.1 -0.1
v 0.6 3.2 0
v 0.6 3.2 -0.1
v 0.7 3 0
v 0.7 3 -0.1
v 0.7 3.1 0
v 0.7 3.1 -0.1
v 0.8 1.9 0
v 0.8 1.9 -0.1
v 0.8 2.1 0
v 0.8 2.1 -0.1
v 0.8 2.2 0
v 0.8 2.2 -0.1
v 0.8 2.5 0
v 0.8 2.5 -0.1
v 0.8 2.9 0
v 0.8 2.9 -0.1
v 0.8 3 0
v 0.8 3 -0.1
v 0.9 2.8 0
v 0.9 2.8 -0.1
v 0.9 2.9 0
v 0.9 2.9 -0.1
v 1 2.7 0
v 1 2.7 -0.1
v 1 2.8 0
v 1 2.8 -0.1
v -1 2.7 0
v -1 2.7 -0.1
v -1 2.8 0
v -1 2.8 -0.1
v -0.9 2.8 0
v -0.9 2.8 -0.1
v -0.9 2.9 0
v -0.9 2.9 -0.1
v -0.8 2.9 0
v -0.8 2.9 -0.1
v -0.8 3 0
v -0.8 3 -0.1
v -0.7 3 0
v -0.7 3 -0.1
v -0.7 3.1 0
v -0.7 3.1 -0.1
v -0.6 3.1 0
v -0.6 3.1 -0.1
v -0.6 3.2 0
v -0.6 3.2 -0.1
v -0.5 3.2 0
v -0.5 3.2 -0.1
v -0.5 3.3 0
v -0.5 3.3 -0.1
v -0.4 3.3 0
v -0.4 3.3 -0.1
v -0.4 3.4 0
v -0.4 3.4 -0.1
v -0.3 3.4 0
v -0.3 3.4 -0.1
v -0.3 3.5 0
v -0.3 3.5 -0.1
v -0.2 3.5 0
v -0.2 3.5 -0.1
v -0.2 3.6 0
v -0.2 3.6 -0.1
v -0.1 0.9 0.2
v -0.1 0.9 -0.1
v -0.1 1 0.2
v -0.1 1 0.1
v -0.1 1.1 0.1
v -0.1 1.1 -0.1
v -0.1 3.6 0
v -0.1 3.6 -0.1
v -0.1 3.7 0
v -0.1 3.7 -0.1
v 0.1 3.8 0
v 0.1 3.8 -2
v 0.1 3.9 0
v 0.1 3.9 -2
v 0.2 1.9 0
v 0.2 1.9 -0.1
v 0.2 2.1 0
v 0.2 2.1 -0.1
v 0.2 2.2 0
v 0.2 2.2 -0.1
v 0.2 2.5 0
v 0.2 2.5 -0.1
v 0.2 3.7 0
v 0.2 3.7 -2
v 0.2 3.8 0
v 0.2 3.8 -2
v 0.3 3.6 0
v 0.3 3.6 -2
v 0.3 3.7 0
v 0.3 3.7 -2
v 0.4 3.5 0
v 0.4 3.5 -2
v 0.4 3.6 0
v 0.4 3.6 -2
v 0.5 3.4 0
v 0.5 3.4 -2
v 0.5 3.5 0
v 0.5 3.5 -2
v 0.6 1.9 0
v 0.6 1.9 -0.1
v 0.6 2.1 0
v 0.6 2.1 -0.1
v 0.6 2.2 0
v 0.6 2.2 -0.1
v 0.6 2.5 0
v 0.6 2.5 -0.1
v 0.6 3.3 0
v 0.6 3.3 -2
v 0.6 3.4 0
v 0.6 3.4 -2
v 0.7 3.2 0
v 0.7 3.2 -2
v 0.7 3.3 0
v 0.7 3.3 -2
v 0.8 3.1 0
v 0.8 3.1 -2
v 0.8 3.2 0
v 0.8 3.2 -2
v 0.9 1.8 0
v 0.9 1.8 -0.1
v 0.9 2.6 0
v 0.9 2.6 -0.1
v 0.9 3 0
v 0.9 3 -2
v 0.9 3.1 0
v 0.9 3.1 -2
v 1 0.9 -0.1
v 1 0.9 -2
v 1 1.1 -0.1
v 1 1.1 -2
v 1 2.7 -0.1
v 1 2.7 -2
v 1 2.9 0
v 1 2.9 -2
v 1 3 0
v 1 3 -2
v 1.1 2.7 0
v 1.1 2.7 -2
v 1.1 2.9 0
v 1.1 2.9 -2
v -0.7 0.9 0.2
v -0.7 1 0.2
v -0.1 0.9 0.2
v -0.1 1 0.2
v -0.7 1 0.1
v -0.7 1.1 0.1
v -0.1 1 0.1
v -0.1 1.1 0.1
v -1.1 2.7 0
v -1.1 2.9 0
v -1 2.7 0
v -1 2.8 0
v -1 2.9 0
v -1 3 0
v -0.9 2.8 0
v -0.9 2.9 0
v -0.9 3 0
v -0.9 3.1 0
v -0.8 2.9 0
v -0.8 3 0
v -0.8 3.1 0
v -0.8 3.2 0
v -0.7 3 0
v -0.7 3.1 0
v -0.7 3.2 0
v -0.7 3.3 0
v -0.6 3.1 0
v -0.6 3.2 0
v -0.6 3.3 0
v -0.6 3.4 0
v -0.5 3.2 0
v -0.5 3.3 0
v -0.5 3.4 0
v -0.5 3.5 0
v -0.4 3.3 0
v -0.4 3.4 0
v -0.4 3.5 0
v -0.4 3.6 0
v -0.3 3.4 0
v -0.3 3.5 0
v -0.3 3.6 0
v -0.3 3.7 0
v -0.2 3.5 0
v -0.2 3.6 0
v -0.2 3.7 0
v -0.2 3.8 0
v -0.1 3.6 0
v -0.1 3.7 0
v -0.1 3.8 0
v -0.1 3.9 0
v 0.1 1.8 0
v 0.1 2.6 0
v 0.1 3.6 0
v 0.1 3.7 0
v 0.1 3.8 0
v 0.1 3.9 0
v 0.2 1.9 0
v 0.2 2.1 0
v 0.2 2.2 0
v 0.2 2.5 0
v 0.2 3.5 0
v 0.2 3.6 0
v 0.2 3.7 0
v 0.2 3.8 0
v 0.3 3.4 0
v 0.3 3.5 0
v 0.3 3.6 0
v 0.3 3.7 0
v 0.4 3.3 0
v 0.4 3.4 0
v 0.4 3.5 0
v 0.4 3.6 0
v 0.5 1.9 0
v 0.5 2.1 0
v 0.5 2.2 0
v 0.5 2.5 0
v 0.5 3.2 0
v 0.5 3.3 0
v 0.5 3.4 0
v 0.5 3.5 0
v 0.6 1.9 0
v 0.6 2.1 0
v 0.6 2.2 0
v 0.6 2.5 0
v 0.6 3.1 0
v 0.6 3.2 0
v 0.6 3.3 0
v 0.6 3.4 0
v 0.7 3 0
v 0.7 3.1 0
v 0.7 3.2 0
v 0.7 3.3 0
v 0.8 1.9 0
v 0.8 2.1 0
v 0.8 2.2 0
v 0.8 2.5 0
v 0.8 2.9 0
v 0.8 3 0
v 0.8 3.1 0
v 0.8 3.2 0
v 0.9 1.8 0
v 0.9 2.6 0
v 0.9 2.8 0
v 0.9 2.9 0
v 0.9 3 0
v 0.9 3.1 0
v 1 2.7 0
v 1 2.8 0
v 1 2.9 0
v 1 3 0
v 1.1 2.7 0
v 1.1 2.9 0
v -1 0.9 -0.1
v -1 1.1 -0.1
v -1 2.7 -0.1
v -1 2.8 -0.1
v -0.9 2.8 -0.1
v -0.9 2.9 -0.1
v -0.8 2.9 -0.1
v -0.8 3 -0.1
v -0.7 0.9 -0.1
v -0.7 1.1 -0.1
v -0.7 1.2 -0.1
v -0.7 1.9 -0.1
v -0.7 3 -0.1
v -0.7 3.1 -0.1
v -0.6 1.2 -0.1
v -0.6 1.9 -0.1
v -0.6 3.1 -0.1
v -0.6 3.2 -0.1
v -0.5 1.2 -0.1
v -0.5 1.9 -0.1
v -0.5 3.2 -0.1
v -0.5 3.3 -0.1
v -0.4 3.3 -0.1
v -0.4 3.4 -0.1
v -0.3 1.2 -0.1
v -0.3 1.9 -0.1
v -0.3 3.4 -0.1
v -0.3 3.5 -0.1
v -0.2 1.2 -0.1
v -0.2 1.9 -0.1
v -0.2 3.5 -0.1
v -0.2 3.6 -0.1
v -0.1 0.9 -0.1
v -0.1 1.1 -0.1
v -0.1 1.2 -0.1
v -0.1 1.9 -0.1
v -0.1 3.6 -0.1
v -0.1 3.7 -0.1
v 0.1 1.8 -0.1
v 0.1 2.6 -0.1
v 0.1 3.6 -0.1
v 0.1 3.7 -0.1
v 0.2 1.9 -0.1
v 0.2 2.1 -0.1
v 0.2 2.2 -0.1
v 0.2 2.5 -0.1
v 0.2 3.5 -0.1
v 0.2 3.6 -0.1
v 0.3 3.4 -0.1
v 0.3 3.5 -0.1
v 0.4 3.3 -0.1
v 0.4 3.4 -0.1
v 0.5 1.9 -0.1
v 0.5 2.1 -0.1
v 0.5 2.2 -0.1
v 0.5 2.5 -0.1
v 0.5 3.2 -0.1
v 0.5 3.3 -0.1
v 0.6 1.9 -0.1
v 0.6 2.1 -0.1
v 0.6 2.2 -0.1
v 0.6 2.5 -0.1
v 0.6 3.1 -0.1
v 0.6 3.2 -0.1
v 0.7 3 -0.1
v 0.7 3.1 -0.1
v 0.8 1.9 -0.1
v 0.8 2.1 -0.1
v 0.8 2.2 -0.1
v 0.8 2.5 -0.1
v 0.8 2.9 -0.1
v 0.8 3 -0.1
v 0.9 1.8 -0.1
v 0.9 2.6 -0.1
v 0.9 2.8 -0.1
v 0.9 2.9 -0.1
v 1 0.9 -0.1
v 1 1.1 -0.1
v 1 2.7 -0.1
v 1 2.8 -0.1
v -1.1 2.7 -2
v -1.1 2.9 -2
v -1 0.9 -2
v -1 1.1 -2
v -1 2.7 -2
v -1 2.8 -2
v -1 2.9 -2
v -1 3 -2
v -0.9 2.8 -2
v -0.9 2.9 -2
v -0.9 3 -2
v -0.9 3.1 -2
v -0.8 2.9 -2
v -0.8 3 -2
v -0.8 3.1 -2
v -0.8 3.2 -2
v -0.7 3 -2
v -0.7 3.1 -2
v -0.7 3.2 -2
v -0.7 3.3 -2
v -0.6 3.1 -2
v -0.6 3.2 -2
v -0.6 3.3 -2
v -0.6 3.4 -2
v -0.5 3.2 -2
v -0.5 3.3 -2
v -0.5 3.4 -2
v -0.5 3.5 -2
v -0.4 3.3 -2
v -0.4 3.4 -2
v -0.4 3.5 -2
v -0.4 3.6 -2
v -0.3 3.4 -2
v -0.3 3.5 -2
v -0.3 3.6 -2
v -0.3 3.7 -2
v -0.2 3.5 -2
v -0.2 3.6 -2
v -0.2 3.7 -2
v -0.2 3.8 -2
v -0.1 3.6 -2
v -0.1 3.7 -2
v -0.1 3.8 -2
v -0.1 3.9 -2
v 0.1 3.6 -2
v 0.1 3.7 -2
v 0.1 3.8 -2
v 0.1 3.9 -2
v 0.2 3.5 -2
v 0.2 3.6 -2
v 0.2 3.7 -2
v 0.2 3.8 -2
v 0.3 3.4 -2
v 0.3 3.5 -2
v 0.3 3.6 -2
v 0.3 3.7 -2
v 0.4 3.3 -2
v 0.4 3.4 -2
v 0.4 3.5 -2
v 0.4 3.6 -2
v 0.5 3.2 -2
v 0.5 3.3 -2
v 0.5 3.4 -2
v 0.5 3.5 -2
v 0.6 3.1 -2
v 0.6 3.2 -2
v 0.6 3.3 -2
v 0.6 3.4 -2
v 0.7 3 -2
v 0.7 3.1 -2
v 0.7 3.2 -2
v 0.7 3.3 -2
v 0.8 2.9 -2
v 0.8 3 -2
v 0.8 3.1 -2
v 0.8 3.2 -2
v 0.9 2.8 -2
v 0.9 2.9 -2
v 0.9 3 -2
v 0.9 3.1 -2
v 1 0.9 -2
v 1 1.1 -2
v 1 2.7 -2
v 1 2.8 -2
v 1 2.9 -2
v 1 3 -2
v 1.1 2.7 -2
v 1.1 2.9 -2
v -0.7 0.9 0.2
v -0.1 0.9 0.2
v -1 0.9 -0.1
v -0.7 0.9 -0.1
v -0.1 0.9 -0.1
v 1 0.9 -0.1
v -1 0.9 -2
v 1 0.9 -2
v 0.1 1.8 0
v 0.9 1.8 0
v 0.1 1.8 -0.1
v 0.9 1.8 -0.1
v 0.2 2.1 0
v 0.5 2.1 0
v 0.6 2.1 0
v 0.8 2.1 0
v 0.2 2.1 -0.1
v 0.5 2.1 -0.1
v 0.6 2.1 -0.1
v 0.8 2.1 -0.1
v 0.2 2.5 0
v 0.5 2.5 0
v 0.6 2.5 0
v 0.8 2.5 0
v 0.2 2.5 -0.1
v 0.5 2.5 -0.1
v 0.6 2.5 -0.1
v 0.8 2.5 -0.1
v -1.1 2.7 0
v -1 2.7 0
v 1 2.7 0
v 1.1 2.7 0
v -1 2.7 -0.1
v 1 2.7 -0.1
v -1.1 2.7 -2
v -1 2.7 -2
v 1 2.7 -2
v 1.1 2.7 -2
v -1 2.8 0
v -0.9 2.8 0
v 0.9 2.8 0
v 1 2.8 0
v -1 2.8 -0.1
v -0.9 2.8 -0.1
v 0.9 2.8 -0.1
v 1 2.8 -0.1
v -0.9 2.9 0
v -0.8 2.9 0
v 0.8 2.9 0
v 0.9 2.9 0
v -0.9 2.9 -0.1
v -0.8 2.9 -0.1
v 0.8 2.9 -0.1
v 0.9 2.9 -0.1
v -0.8 3 0
v -0.7 3 0
v 0.7 3 0
v 0.8 3 0
v -0.8 3 -0.1
v -0.7 3 -0.1
v 0.7 3 -0.1
v 0.8 3 -0.1
v -0.7 3.1 0
v -0.6 3.1 0
v 0.6 3.1 0
v 0.7 3.1 0
v -0.7 3.1 -0.1
v -0.6 3.1 -0.1
v 0.6 3.1 -0.1
v 0.7 3.1 -0.1
v -0.6 3.2 0
v -0.5 3.2 0
v 0.5 3.2 0
v 0.6 3.2 0
v -0.6 3.2 -0.1
v -0.5 3.2 -0.1
v 0.5 3.2 -0.1
v 0.6 3.2 -0.1
v -0.5 3.3 0
v -0.4 3.3 0
v 0.4 3.3 0
v 0.5 3.3 0
v -0.5 3.3 -0.1
v -0.4 3.3 -0.1
v 0.4 3.3 -0.1
v 0.5 3.3 -0.1
v -0.4 3.4 0
v -0.3 3.4 0
v 0.3 3.4 0
v 0.4 3.4 0
v -0.4 3.4 -0.1
v -0.3 3.4 -0.1
v 0.3 3.4 -0.1
v 0.4 3.4 -0.1
v -0.3 3.5 0
v -0.2 3.5 0
v 0.2 3.5 0
v 0.3 3.5 0
v -0.3 3.5 -0.1
v -0.2 3.5 -0.1
v 0.2 3.5 -0.1
v 0.3 3.5 -0.1
v -0.2 3.6 0
v -0.1 3.6 0
v 0.1 3.6 0
v 0.2 3.6 0
v -0.2 3.6 -0.1
v -0.1 3.6 -0.1
v 0.1 3.6 -0.1
v 0.2 3.6 -0.1
v -0.1 3.7 0
v 0.1 3.7 0
v -0.1 3.7 -0.1
v 0.1 3.7 -0.1
v -0.7 1 0.2
v -0.1 1 0.2
v -0.7 1 0.1
v -0.1 1 0.1
v -0.7 1.1 0.1
v -0.1 1.1 0.1
v -0.7 1.1 -0.1
v -0.1 1.1 -0.1
v 0.2 1.9 0
v 0.5 1.9 0
v 0.6 1.9 0
v 0.8 1.9 0
v 0.2 1.9 -0.1
v 0.5 1.9 -0.1
v 0.6 1.9 -0.1
v 0.8 1.9 -0.1
v 0.2 2.2 0
v 0.5 2.2 0
v 0.6 2.2 0
v 0.8 2.2 0
v 0.2 2.2 -0.1
v 0.5 2.2 -0.1
v 0.6 2.2 -0.1
v 0.8 2.2 -0.1
v 0.1 2.6 0
v 0.9 2.6 0
v 0.1 2.6 -0.1
v 0.9 2.6 -0.1
v -1.1 2.9 0
v -1 2.9 0
v 1 2.9 0
v 1.1 2.9 0
v -1.1 2.9 -2
v -1 2.9 -2
v 1 2.9 -2
v 1.1 2.9 -2
v -1 3 0
v -0.9 3 0
v 0.9 3 0
v 1 3 0
v -1 3 -2
v -0.9 3 -2
v 0.9 3 -2
v 1 3 -2
v -0.9 3.1 0
v -0.8 3.1 0
v 0.8 3.1 0
v 0.9 3.1 0
v -0.9 3.1 -2
v -0.8 3.1 -2
v 0.8 3.1 -2
v 0.9 3.1 -2
v -0.8 3.2 0
v -0.7 3.2 0
v 0.7 3.2 0
v 0.8 3.2 0
v -0.8 3.2 -2
v -0.7 3.2 -2
v 0.7 3.2 -2
v 0.8 3.2 -2
v -0.7 3.3 0
v -0.6 3.3 0
v 0.6 3.3 0
v 0.7 3.3 0
v -0.7 3.3 -2
v -0.6 3.3 -2
v 0.6 3.3 -2
v 0.7 3.3 -2
v -0.6 3.4 0
v -0.5 3.4 0
v 0.5 3.4 0
v 0.6 3.4 0
v -0.6 3.4 -2
v -0.5 3.4 -2
v 0.5 3.4 -2
v 0.6 3.4 -2
v -0.5 3.5 0
v -0.4 3.5 0
v 0.4 3.5 0
v 0.5 3.5 0
v -0.5 3.5 -2
v -0.4 3.5 -2
v 0.4 3.5 -2
v 0.5 3.5 -2
v -0.4 3.6 0
v -0.3 3.6 0
v 0.3 3.6 0
v 0.4 3.6 0
v -0.4 3.6 -2
v -0.3 3.6 -2
v 0.3 3.6 -2
v 0.4 3.6 -2
v -0.3 3.7 0
v -0.2 3.7 0
v 0.2 3.7 0
v 0.3 3.7 0
v -0.3 3.7 -2
v -0.2 3.7 -2
v 0.2 3.7 -2
v 0.3 3.7 -2
v -0.2 3.8 0
v -0.1 3.8 0
v 0.1 3.8 0
v 0.2 3.8 0
v -0.2 3.8 -2
v -0.1 3.8 -2
v 0.1 3.8 -2
v 0.2 3.8 -2
v -0.1 3.9 0
v 0.1 3.9 0
v -0.1 3.9 -2
v 0.1 3.9 -2

# faces
f 3/2/1 2/2/1 1/2/1
f 4/2/1 2/2/1 3/2/1
f 7/7/1 6/7/1 5/7/1
f 8/7/1 6/7/1 7/7/1
f 9/1/1 8/1/1 7/1/1
f 10/1/1 8/1/1 9/1/1
f 13/2/1 12/2/1 11/2/1
f 14/2/1 12/2/1 13/2/1
f 17/2/1 16/2/1 15/2/1
f 18/2/1 16/2/1 17/2/1
f 21/2/1 20/2/1 19/2/1
f 22/2/1 20/2/1 21/2/1
f 25/7/1 24/7/1 23/7/1
f 26/7/1 24/7/1 25/7/1
f 27/7/1 24/7/1 26/7/1
f 28/7/1 24/7/1 27/7/1
f 31/2/1 30/2/1 29/2/1
f 32/2/1 30/2/1 31/2/1
f 35/2/1 34/2/1 33/2/1
f 36/2/1 34/2/1 35/2/1
f 39/2/1 38/2/1 37/2/1
f 40/2/1 38/2/1 39/2/1
f 43/2/1 42/2/1 41/2/1
f 44/2/1 42/2/1 43/2/1
f 47/2/1 46/2/1 45/2/1
f 48/2/1 46/2/1 47/2/1
f 51/2/1 50/2/1 49/2/1
f 52/2/1 50/2/1 51/2/1
f 55/2/1 54/2/1 53/2/1
f 56/2/1 54/2/1 55/2/1
f 59/6/1 58/6/1 57/6/1
f 60/6/1 58/6/1 59/6/1
f 63/2/1 62/2/1 61/2/1
f 64/2/1 62/2/1 63/2/1
f 67/2/1 66/2/1 65/2/1
f 68/2/1 66/2/1 67/2/1
f 71/2/1 70/2/1 69/2/1
f 72/2/1 70/2/1 71/2/1
f 75/2/1 74/2/1 73/2/1
f 76/2/1 74/2/1 75/2/1
f 79/6/1 78/6/1 77/6/1
f 80/6/1 78/6/1 79/6/1
f 83/6/1 82/6/1 81/6/1
f 84/6/1 82/6/1 83/6/1
f 87/2/1 86/2/1 85/2/1
f 88/2/1 86/2/1 87/2/1
f 91/2/1 90/2/1 89/2/1
f 92/2/1 90/2/1 91/2/1
f 95/2/1 94/2/1 93/2/1
f 96/2/1 94/2/1 95/2/1
f 99/6/1 98/6/1 97/6/1
f 100/6/1 98/6/1 99/6/1
f 103/6/1 102/6/1 101/6/1
f 104/6/1 102/6/1 103/6/1
f 107/2/1 106/2/1 105/2/1
f 108/2/1 106/2/1 107/2/1
f 111/2/1 110/2/1 109/2/1
f 112/2/1 110/2/1 111/2/1
f 115/2/1 114/2/1 113/2/1
f 116/2/1 114/2/1 115/2/1
f 117/2/2 118/2/2 119/2/2
f 119/2/2 118/2/2 120/2/2
f 121/2/2 122/2/2 123/2/2
f 123/2/2 122/2/2 124/2/2
f 125/2/2 126/2/2 127/2/2
f 127/2/2 126/2/2 128/2/2
f 129/2/2 130/2/2 131/2/2
f 131/2/2 130/2/2 132/2/2
f 133/2/2 134/2/2 135/2/2
f 135/2/2 134/2/2 136/2/2
f 137/2/2 138/2/2 139/2/2
f 139/2/2 138/2/2 140/2/2
f 141/2/2 142/2/2 143/2/2
f 143/2/2 142/2/2 144/2/2
f 145/2/2 146/2/2 147/2/2
f 147/2/2 146/2/2 148/2/2
f 149/2/2 150/2/2 151/2/2
f 151/2/2 150/2/2 152/2/2
f 153/7/2 154/7/2 155/7/2
f 155/7/2 154/7/2 156/7/2
f 156/7/2 154/7/2 157/7/2
f 157/7/2 154/7/2 158/7/2
f 159/2/2 160/2/2 161/2/2
f 161/2/2 160/2/2 162/2/2
f 163/2/2 164/2/2 165/2/2
f 165/2/2 164/2/2 166/2/2
f 167/6/2 168/6/2 169/6/2
f 169/6/2 168/6/2 170/6/2
f 171/6/2 172/6/2 173/6/2
f 173/6/2 172/6/2 174/6/2
f 175/2/2 176/2/2 177/2/2
f 177/2/2 176/2/2 178/2/2
f 179/2/2 180/2/2 181/2/2
f 181/2/2 180/2/2 182/2/2
f 183/2/2 184/2/2 185/2/2
f 185/2/2 184/2/2 186/2/2
f 187/2/2 188/2/2 189/2/2
f 189/2/2 188/2/2 190/2/2
f 191/6/2 192/6/2 193/6/2
f 193/6/2 192/6/2 194/6/2
f 195/6/2 196/6/2 197/6/2
f 197/6/2 196/6/2 198/6/2
f 199/2/2 200/2/2 201/2/2
f 201/2/2 200/2/2 202/2/2
f 203/2/2 204/2/2 205/2/2
f 205/2/2 204/2/2 206/2/2
f 207/2/2 208/2/2 209/2/2
f 209/2/2 208/2/2 210/2/2
f 211/6/2 212/6/2 213/6/2
f 213/6/2 212/6/2 214/6/2
f 215/2/2 216/2/2 217/2/2
f 217/2/2 216/2/2 218/2/2
f 219/7/2 220/7/2 221/7/2
f 221/7/2 220/7/2 222/7/2
f 221/1/2 222/1/2 223/1/2
f 223/1/2 222/1/2 224/1/2
f 225/2/2 226/2/2 227/2/2
f 227/2/2 226/2/2 228/2/2
f 229/2/2 230/2/2 231/2/2
f 231/2/2 230/2/2 232/2/2
f 235/7/3 234/7/3 233/7/3
f 236/7/3 234/7/3 235/7/3
f 239/7/3 238/7/3 237/7/3
f 240/7/3 238/7/3 239/7/3
f 243/2/3 242/2/3 241/2/3
f 244/2/3 242/2/3 243/2/3
f 245/2/3 242/2/3 244/2/3
f 247/2/3 246/2/3 245/2/3
f 247/2/3 245/2/3 244/2/3
f 248/2/3 246/2/3 247/2/3
f 249/2/3 246/2/3 248/2/3
f 251/2/3 250/2/3 249/2/3
f 251/2/3 249/2/3 248/2/3
f 252/2/3 250/2/3 251/2/3
f 253/2/3 250/2/3 252/2/3
f 255/2/3 254/2/3 253/2/3
f 255/2/3 253/2/3 252/2/3
f 256/2/3 254/2/3 255/2/3
f 257/2/3 254/2/3 256/2/3
f 259/2/3 258/2/3 257/2/3
f 259/2/3 257/2/3 256/2/3
f 260/2/3 258/2/3 259/2/3
f 261/2/3 258/2/3 260/2/3
f 263/2/3 262/2/3 261/2/3
f 263/2/3 261/2/3 260/2/3
f 264/2/3 262/2/3 263/2/3
f 265/2/3 262/2/3 264/2/3
f 267/2/3 266/2/3 265/2/3
f 267/2/3 265/2/3 264/2/3
f 268/2/3 266/2/3 267/2/3
f 269/2/3 266/2/3 268/2/3
f 271/2/3 270/2/3 269/2/3
f 271/2/3 269/2/3 268/2/3
f 272/2/3 270/2/3 271/2/3
f 273/2/3 270/2/3 272/2/3
f 275/2/3 274/2/3 273/2/3
f 275/2/3 273/2/3 272/2/3
f 276/2/3 274/2/3 275/2/3
f 277/2/3 274/2/3 276/2/3
f 279/2/3 278/2/3 277/2/3
f 279/2/3 277/2/3 276/2/3
f 280/2/3 278/2/3 279/2/3
f 281/2/3 278/2/3 280/2/3
f 286/2/3 282/2/3 281/2/3
f 286/2/3 281/2/3 280/2/3
f 287/2/3 282/2/3 286/2/3
f 288/2/3 282/2/3 287/2/3
f 289/6/3 284/6/3 283/6/3
f 290/6/3 284/6/3 289/6/3
f 291/6/3 284/6/3 290/6/3
f 292/6/3 284/6/3 291/6/3
f 294/2/3 286/2/3 285/2/3
f 294/2/3 287/2/3 286/2/3
f 295/2/3 287/2/3 294/2/3
f 296/2/3 287/2/3 295/2/3
f 298/2/3 295/2/3 294/2/3
f 298/2/3 294/2/3 293/2/3
f 299/2/3 295/2/3 298/2/3
f 300/2/3 295/2/3 299/2/3
f 302/2/3 298/2/3 297/2/3
f 302/2/3 299/2/3 298/2/3
f 303/2/3 299/2/3 302/2/3
f 304/2/3 299/2/3 303/2/3
f 305/6/3 289/6/3 283/6/3
f 306/6/3 291/6/3 290/6/3
f 307/6/3 291/6/3 306/6/3
f 308/6/3 284/6/3 292/6/3
f 310/2/3 302/2/3 301/2/3
f 310/2/3 303/2/3 302/2/3
f 311/2/3 303/2/3 310/2/3
f 312/2/3 303/2/3 311/2/3
f 313/6/3 307/6/3 306/6/3
f 313/6/3 305/6/3 283/6/3
f 313/6/3 308/6/3 307/6/3
f 313/6/3 306/6/3 305/6/3
f 314/6/3 308/6/3 313/6/3
f 315/6/3 308/6/3 314/6/3
f 316/6/3 284/6/3 308/6/3
f 316/6/3 308/6/3 315/6/3
f 318/2/3 311/2/3 310/2/3
f 318/2/3 310/2/3 309/2/3
f 319/2/3 311/2/3 318/2/3
f 320/2/3 311/2/3 319/2/3
f 322/2/3 319/2/3 318/2/3
f 322/2/3 318/2/3 317/2/3
f 323/2/3 319/2/3 322/2/3
f 324/2/3 319/2/3 323/2/3
f 325/6/3 313/6/3 283/6/3
f 326/6/3 315/6/3 314/6/3
f 327/6/3 315/6/3 326/6/3
f 328/6/3 284/6/3 316/6/3
f 330/2/3 322/2/3 321/2/3
f 330/2/3 323/2/3 322/2/3
f 331/2/3 323/2/3 330/2/3
f 332/2/3 323/2/3 331/2/3
f 333/6/3 327/6/3 326/6/3
f 333/6/3 325/6/3 283/6/3
f 333/6/3 328/6/3 327/6/3
f 333/6/3 326/6/3 325/6/3
f 334/6/3 284/6/3 328/6/3
f 334/6/3 328/6/3 333/6/3
f 336/2/3 331/2/3 330/2/3
f 336/2/3 330/2/3 329/2/3
f 337/2/3 331/2/3 336/2/3
f 338/2/3 331/2/3 337/2/3
f 340/2/3 336/2/3 335/2/3
f 340/2/3 337/2/3 336/2/3
f 341/2/3 337/2/3 340/2/3
f 342/2/3 337/2/3 341/2/3
f 343/2/3 340/2/3 339/2/3
f 343/2/3 341/2/3 340/2/3
f 344/2/3 341/2/3 343/2/3
f 349/1/3 347/1/3 346/1/3
f 349/1/3 348/1/3 347/1/3
f 351/1/3 350/1/3 349/1/3
f 353/7/3 346/7/3 345/7/3
f 354/1/3 352/1/3 351/1/3
f 354/7/3 346/7/3 353/7/3
f 354/1/3 349/1/3 346/1/3
f 354/1/3 351/1/3 349/1/3
f 355/1/3 352/1/3 354/1/3
f 356/1/3 352/1/3 355/1/3
f 357/1/3 352/1/3 356/1/3
f 359/7/3 355/7/3 354/7/3
f 359/4/3 356/4/3 355/4/3
f 360/1/3 358/1/3 357/1/3
f 360/4/3 356/4/3 359/4/3
f 360/1/3 357/1/3 356/1/3
f 361/1/3 358/1/3 360/1/3
f 363/7/3 359/7/3 354/7/3
f 363/3/3 360/3/3 359/3/3
f 364/1/3 362/1/3 361/1/3
f 364/3/3 360/3/3 363/3/3
f 364/1/3 361/1/3 360/1/3
f 365/1/3 362/1/3 364/1/3
f 367/1/3 365/1/3 364/1/3
f 367/1/3 366/1/3 365/1/3
f 369/7/3 363/7/3 354/7/3
f 369/4/3 364/4/3 363/4/3
f 370/1/3 368/1/3 367/1/3
f 370/4/3 364/4/3 369/4/3
f 370/1/3 367/1/3 364/1/3
f 371/1/3 368/1/3 370/1/3
f 373/7/3 369/7/3 354/7/3
f 373/3/3 370/3/3 369/3/3
f 374/1/3 372/1/3 371/1/3
f 374/3/3 370/3/3 373/3/3
f 374/1/3 371/1/3 370/1/3
f 375/1/3 372/1/3 374/1/3
f 378/7/3 373/7/3 354/7/3
f 379/4/3 374/4/3 373/4/3
f 379/7/3 373/7/3 378/7/3
f 380/1/3 376/1/3 375/1/3
f 380/4/3 374/4/3 379/4/3
f 380/1/3 375/1/3 374/1/3
f 381/1/3 376/1/3 380/1/3
f 383/1/3 379/1/3 378/1/3
f 383/1/3 382/1/3 381/1/3
f 383/1/3 381/1/3 380/1/3
f 383/1/3 380/1/3 379/1/3
f 384/1/3 382/1/3 383/1/3
f 385/1/3 382/1/3 384/1/3
f 386/1/3 382/1/3 385/1/3
f 391/1/3 385/1/3 384/1/3
f 392/1/3 385/1/3 391/1/3
f 393/1/3 391/1/3 384/1/3
f 394/1/3 391/1/3 393/1/3
f 395/1/3 393/1/3 384/1/3
f 396/1/3 393/1/3 395/1/3
f 397/5/3 388/5/3 387/5/3
f 398/5/3 388/5/3 397/5/3
f 399/5/3 390/5/3 389/5/3
f 400/5/3 390/5/3 399/5/3
f 401/1/3 395/1/3 384/1/3
f 402/1/3 395/1/3 401/1/3
f 407/1/3 401/1/3 384/1/3
f 408/1/3 401/1/3 407/1/3
f 409/1/3 407/1/3 384/1/3
f 410/1/3 407/1/3 409/1/3
f 411/5/3 404/5/3 403/5/3
f 412/5/3 404/5/3 411/5/3
f 413/5/3 406/5/3 405/5/3
f 414/5/3 406/5/3 413/5/3
f 415/1/3 409/1/3 384/1/3
f 416/1/3 409/1/3 415/1/3
f 417/1/3 383/1/3 378/1/3
f 418/1/3 415/1/3 384/1/3
f 419/1/3 415/1/3 418/1/3
f 420/1/3 415/1/3 419/1/3
f 421/7/3 378/7/3 377/7/3
f 422/1/3 417/1/3 378/1/3
f 422/7/3 378/7/3 421/7/3
f 422/1/3 418/1/3 417/1/3
f 422/1/3 419/1/3 418/1/3
f 423/1/3 419/1/3 422/1/3
f 424/1/3 419/1/3 423/1/3
f 425/2/4 426/2/4 429/2/4
f 429/2/4 426/2/4 430/2/4
f 430/2/4 426/2/4 431/2/4
f 428/1/4 429/1/4 433/1/4
f 431/2/4 432/2/4 433/2/4
f 430/2/4 431/2/4 433/2/4
f 429/1/4 430/1/4 433/1/4
f 433/2/4 432/2/4 434/2/4
f 434/2/4 432/2/4 435/2/4
f 433/1/4 434/1/4 437/1/4
f 435/2/4 436/2/4 437/2/4
f 434/2/4 435/2/4 437/2/4
f 437/2/4 436/2/4 438/2/4
f 438/2/4 436/2/4 439/2/4
f 437/1/4 438/1/4 441/1/4
f 439/2/4 440/2/4 441/2/4
f 438/2/4 439/2/4 441/2/4
f 441/2/4 440/2/4 442/2/4
f 442/2/4 440/2/4 443/2/4
f 441/1/4 442/1/4 445/1/4
f 443/2/4 444/2/4 445/2/4
f 442/2/4 443/2/4 445/2/4
f 445/2/4 444/2/4 446/2/4
f 446/2/4 444/2/4 447/2/4
f 445/1/4 446/1/4 449/1/4
f 447/2/4 448/2/4 449/2/4
f 446/2/4 447/2/4 449/2/4
f 449/2/4 448/2/4 450/2/4
f 450/2/4 448/2/4 451/2/4
f 449/1/4 450/1/4 453/1/4
f 451/2/4 452/2/4 453/2/4
f 450/2/4 451/2/4 453/2/4
f 453/2/4 452/2/4 454/2/4
f 454/2/4 452/2/4 455/2/4
f 453/1/4 454/1/4 457/1/4
f 455/2/4 456/2/4 457/2/4
f 454/2/4 455/2/4 457/2/4
f 457/2/4 456/2/4 458/2/4
f 458/2/4 456/2/4 459/2/4
f 457/1/4 458/1/4 461/1/4
f 459/2/4 460/2/4 461/2/4
f 458/2/4 459/2/4 461/2/4
f 461/2/4 460/2/4 462/2/4
f 462/2/4 460/2/4 463/2/4
f 461/1/4 462/1/4 465/1/4
f 463/2/4 464/2/4 465/2/4
f 462/2/4 463/2/4 465/2/4
f 465/2/4 464/2/4 466/2/4
f 466/2/4 464/2/4 467/2/4
f 461/1/4 465/1/4 469/1/4
f 465/1/4 466/1/4 469/1/4
f 467/2/4 468/2/4 470/2/4
f 469/1/4 466/1/4 470/1/4
f 466/2/4 467/2/4 470/2/4
f 470/2/4 468/2/4 471/2/4
f 471/2/4 468/2/4 472/2/4
f 457/1/4 461/1/4 473/1/4
f 461/1/4 469/1/4 473/1/4
f 470/2/4 471/2/4 474/2/4
f 473/1/4 469/1/4 474/1/4
f 469/2/4 470/2/4 474/2/4
f 474/2/4 471/2/4 475/2/4
f 475/2/4 471/2/4 476/2/4
f 453/1/4 457/1/4 477/1/4
f 457/1/4 473/1/4 477/1/4
f 474/2/4 475/2/4 478/2/4
f 477/1/4 473/1/4 478/1/4
f 473/2/4 474/2/4 478/2/4
f 478/2/4 475/2/4 479/2/4
f 479/2/4 475/2/4 480/2/4
f 449/1/4 453/1/4 481/1/4
f 453/1/4 477/1/4 481/1/4
f 478/2/4 479/2/4 482/2/4
f 481/1/4 477/1/4 482/1/4
f 477/2/4 478/2/4 482/2/4
f 482/2/4 479/2/4 483/2/4
f 483/2/4 479/2/4 484/2/4
f 445/1/4 449/1/4 485/1/4
f 449/1/4 481/1/4 485/1/4
f 482/2/4 483/2/4 486/2/4
f 485/1/4 481/1/4 486/1/4
f 481/2/4 482/2/4 486/2/4
f 486/2/4 483/2/4 487/2/4
f 487/2/4 483/2/4 488/2/4
f 441/1/4 445/1/4 489/1/4
f 445/1/4 485/1/4 489/1/4
f 486/2/4 487/2/4 490/2/4
f 489/1/4 485/1/4 490/1/4
f 485/2/4 486/2/4 490/2/4
f 490/2/4 487/2/4 491/2/4
f 491/2/4 487/2/4 492/2/4
f 437/1/4 441/1/4 493/1/4
f 441/1/4 489/1/4 493/1/4
f 490/2/4 491/2/4 494/2/4
f 493/1/4 489/1/4 494/1/4
f 489/2/4 490/2/4 494/2/4
f 494/2/4 491/2/4 495/2/4
f 495/2/4 491/2/4 496/2/4
f 433/1/4 437/1/4 497/1/4
f 437/1/4 493/1/4 497/1/4
f 494/2/4 495/2/4 498/2/4
f 497/1/4 493/1/4 498/1/4
f 493/2/4 494/2/4 498/2/4
f 498/2/4 495/2/4 499/2/4
f 499/2/4 495/2/4 500/2/4
f 428/1/4 433/1/4 501/1/4
f 433/1/4 497/1/4 501/1/4
f 498/2/4 499/2/4 502/2/4
f 501/1/4 497/1/4 502/1/4
f 497/2/4 498/2/4 502/2/4
f 502/2/4 499/2/4 503/2/4
f 503/2/4 499/2/4 504/2/4
f 427/7/4 428/7/4 505/7/4
f 428/1/4 501/1/4 506/1/4
f 505/7/4 428/7/4 506/7/4
f 506/1/4 501/1/4 507/1/4
f 501/2/4 502/2/4 508/2/4
f 507/1/4 501/1/4 508/1/4
f 502/2/4 503/2/4 508/2/4
f 508/2/4 503/2/4 509/2/4
f 509/2/4 503/2/4 510/2/4
f 508/2/4 509/2/4 511/2/4
f 507/2/4 508/2/4 511/2/4
f 511/2/4 509/2/4 512/2/4
f 516/7/5 514/7/5 513/7/5
f 517/7/5 514/7/5 516/7/5
f 519/7/5 516/7/5 515/7/5
f 519/7/5 518/7/5 517/7/5
f 519/7/5 517/7/5 516/7/5
f 520/7/5 518/7/5 519/7/5
f 523/6/5 522/6/5 521/6/5
f 524/6/5 522/6/5 523/6/5
f 529/6/5 526/6/5 525/6/5
f 530/6/5 526/6/5 529/6/5
f 531/6/5 528/6/5 527/6/5
f 532/6/5 528/6/5 531/6/5
f 537/6/5 534/6/5 533/6/5
f 538/6/5 534/6/5 537/6/5
f 539/6/5 536/6/5 535/6/5
f 540/6/5 536/6/5 539/6/5
f 545/2/5 542/2/5 541/2/5
f 546/2/5 544/2/5 543/2/5
f 547/2/5 545/2/5 541/2/5
f 548/2/5 545/2/5 547/2/5
f 549/2/5 544/2/5 546/2/5
f 550/2/5 544/2/5 549/2/5
f 555/2/5 552/2/5 551/2/5
f 556/2/5 552/2/5 555/2/5
f 557/2/5 554/2/5 553/2/5
f 558/2/5 554/2/5 557/2/5
f 563/2/5 560/2/5 559/2/5
f 564/2/5 560/2/5 563/2/5
f 565/2/5 562/2/5 561/2/5
f 566/2/5 562/2/5 565/2/5
f 571/2/5 568/2/5 567/2/5
f 572/2/5 568/2/5 571/2/5
f 573/2/5 570/2/5 569/2/5
f 574/2/5 570/2/5 573/2/5
f 579/2/5 576/2/5 575/2/5
f 580/2/5 576/2/5 579/2/5
f 581/2/5 578/2/5 577/2/5
f 582/2/5 578/2/5 581/2/5
f 587/2/5 584/2/5 583/2/5
f 588/2/5 584/2/5 587/2/5
f 589/2/5 586/2/5 585/2/5
f 590/2/5 586/2/5 589/2/5
f 595/2/5 592/2/5 591/2/5
f 596/2/5 592/2/5 595/2/5
f 597/2/5 594/2/5 593/2/5
f 598/2/5 594/2/5 597/2/5
f 603/2/5 600/2/5 599/2/5
f 604/2/5 600/2/5 603/2/5
f 605/2/5 602/2/5 601/2/5
f 606/2/5 602/2/5 605/2/5
f 611/2/5 608/2/5 607/2/5
f 612/2/5 608/2/5 611/2/5
f 613/2/5 610/2/5 609/2/5
f 614/2/5 610/2/5 613/2/5
f 619/2/5 616/2/5 615/2/5
f 620/2/5 616/2/5 619/2/5
f 621/2/5 618/2/5 617/2/5
f 622/2/5 618/2/5 621/2/5
f 625/2/5 624/2/5 623/2/5
f 626/2/5 624/2/5 625/2/5
f 627/7/6 628/7/6 629/7/6
f 629/7/6 628/7/6 630/7/6
f 631/7/6 632/7/6 633/7/6
f 633/7/6 632/7/6 634/7/6
f 635/6/6 636/6/6 639/6/6
f 639/6/6 636/6/6 640/6/6
f 637/6/6 638/6/6 641/6/6
f 641/6/6 638/6/6 642/6/6
f 643/6/6 644/6/6 647/6/6
f 647/6/6 644/6/6 648/6/6
f 645/6/6 646/6/6 649/6/6
f 649/6/6 646/6/6 650/6/6
f 651/6/6 652/6/6 653/6/6
f 653/6/6 652/6/6 654/6/6
f 655/2/6 656/2/6 659/2/6
f 659/2/6 656/2/6 660/2/6
f 657/2/6 658/2/6 661/2/6
f 661/2/6 658/2/6 662/2/6
f 663/2/6 664/2/6 667/2/6
f 667/2/6 664/2/6 668/2/6
f 665/2/6 666/2/6 669/2/6
f 669/2/6 666/2/6 670/2/6
f 671/2/6 672/2/6 675/2/6
f 675/2/6 672/2/6 676/2/6
f 673/2/6 674/2/6 677/2/6
f 677/2/6 674/2/6 678/2/6
f 679/2/6 680/2/6 683/2/6
f 683/2/6 680/2/6 684/2/6
f 681/2/6 682/2/6 685/2/6
f 685/2/6 682/2/6 686/2/6
f 687/2/6 688/2/6 691/2/6
f 691/2/6 688/2/6 692/2/6
f 689/2/6 690/2/6 693/2/6
f 693/2/6 690/2/6 694/2/6
f 695/2/6 696/2/6 699/2/6
f 699/2/6 696/2/6 700/2/6
f 697/2/6 698/2/6 701/2/6
f 701/2/6 698/2/6 702/2/6
f 703/2/6 704/2/6 707/2/6
f 707/2/6 704/2/6 708/2/6
f 705/2/6 706/2/6 709/2/6
f 709/2/6 706/2/6 710/2/6
f 711/2/6 712/2/6 715/2/6
f 715/2/6 712/2/6 716/2/6
f 713/2/6 714/2/6 717/2/6
f 717/2/6 714/2/6 718/2/6
f 719/2/6 720/2/6 723/2/6
f 723/2/6 720/2/6 724/2/6
f 721/2/6 722/2/6 725/2/6
f 725/2/6 722/2/6 726/2/6
f 727/2/6 728/2/6 731/2/6
f 731/2/6 728/2/6 732/2/6
f 729/2/6 730/2/6 733/2/6
f 733/2/6 730/2/6 734/2/6
f 735/2/6 736/2/6 737/2/6
f 737/2/6 736/2/6 738/2/6
