# MagicaVoxel @ Ephtracy

# group
o 

# material
mtllib stone.mtl
usemtl palette

# normals
vn -1 0 0
vn 1 0 0
vn 0 0 1
vn 0 0 -1
vn 0 -1 0
vn 0 1 0

# texcoords
vt 0.974609 0.5
vt 0.978516 0.5
vt 0.982422 0.5
vt 0.986328 0.5

# verts
v -0.5 0 0.5
v -0.5 0 0.4
v -0.5 0 0.3
v -0.5 0 0.1
v -0.5 0 0
v -0.5 0 -0.1
v -0.5 0 -0.2
v -0.5 0 -0.4
v -0.5 0 -0.5
v -0.5 0.1 0.5
v -0.5 0.1 0.4
v -0.5 0.1 0.3
v -0.5 0.1 0.1
v -0.5 0.1 0
v -0.5 0.1 -0.1
v -0.5 0.1 -0.2
v -0.5 0.1 -0.4
v -0.5 0.1 -0.5
v -0.5 0.2 0.5
v -0.5 0.2 0.4
v -0.5 0.2 0.3
v -0.5 0.2 0.2
v -0.5 0.2 0.1
v -0.5 0.2 -0.2
v -0.5 0.2 -0.3
v -0.5 0.2 -0.4
v -0.5 0.2 -0.5
v -0.5 0.3 0.5
v -0.5 0.3 0.4
v -0.5 0.3 0.3
v -0.5 0.3 0.2
v -0.5 0.3 0
v -0.5 0.3 -0.2
v -0.5 0.3 -0.3
v -0.5 0.3 -0.4
v -0.5 0.3 -0.5
v -0.5 0.4 0.5
v -0.5 0.4 0.4
v -0.5 0.4 0.3
v -0.5 0.4 0.2
v -0.5 0.4 0.1
v -0.5 0.4 0
v -0.5 0.4 -0.1
v -0.5 0.4 -0.2
v -0.5 0.4 -0.3
v -0.5 0.4 -0.4
v -0.5 0.4 -0.5
v -0.5 0.5 0.4
v -0.5 0.5 0.3
v -0.5 0.5 0.1
v -0.5 0.5 0
v -0.5 0.5 -0.2
v -0.5 0.5 -0.3
v -0.5 0.5 -0.4
v -0.5 0.5 -0.5
v -0.5 0.6 0.5
v -0.5 0.6 0.4
v -0.5 0.6 0.3
v -0.5 0.6 0.2
v -0.5 0.6 0.1
v -0.5 0.6 0
v -0.5 0.6 -0.1
v -0.5 0.6 -0.3
v -0.5 0.6 -0.4
v -0.5 0.7 0.5
v -0.5 0.7 0.4
v -0.5 0.7 0.3
v -0.5 0.7 0.2
v -0.5 0.7 0.1
v -0.5 0.7 0
v -0.5 0.7 -0.2
v -0.5 0.7 -0.3
v -0.5 0.8 0.3
v -0.5 0.8 0.2
v -0.5 0.8 0.1
v -0.5 0.8 0
v -0.5 0.8 -0.2
v -0.5 0.8 -0.3
v -0.5 0.8 -0.4
v -0.5 0.8 -0.5
v -0.5 0.9 0.3
v -0.5 0.9 0.2
v -0.5 0.9 0.1
v -0.5 0.9 0
v -0.5 0.9 -0.1
v -0.5 0.9 -0.2
v -0.5 0.9 -0.4
v -0.5 0.9 -0.5
v -0.5 1 0.5
v -0.5 1 0.4
v -0.5 1 0.3
v -0.5 1 0.2
v -0.5 1 0.1
v -0.5 1 0
v -0.5 1 -0.1
v -0.5 1 -0.2
v -0.5 1 -0.5
v 0.5 0 0.5
v 0.5 0 0.4
v 0.5 0 0.1
v 0.5 0 0
v 0.5 0 -0.1
v 0.5 0 -0.2
v 0.5 0 -0.3
v 0.5 0 -0.5
v 0.5 0.1 0.3
v 0.5 0.1 0.2
v 0.5 0.1 0.1
v 0.5 0.1 0
v 0.5 0.1 -0.1
v 0.5 0.1 -0.2
v 0.5 0.1 -0.3
v 0.5 0.1 -0.4
v 0.5 0.1 -0.5
v 0.5 0.2 0.5
v 0.5 0.2 0.4
v 0.5 0.2 0.3
v 0.5 0.2 0.2
v 0.5 0.2 0.1
v 0.5 0.2 0
v 0.5 0.2 -0.1
v 0.5 0.2 -0.2
v 0.5 0.2 -0.4
v 0.5 0.2 -0.5
v 0.5 0.3 0.5
v 0.5 0.3 0.4
v 0.5 0.3 0.2
v 0.5 0.3 0.1
v 0.5 0.3 -0.1
v 0.5 0.3 -0.3
v 0.5 0.3 -0.4
v 0.5 0.4 0.4
v 0.5 0.4 0.2
v 0.5 0.4 0.1
v 0.5 0.4 0
v 0.5 0.4 -0.1
v 0.5 0.4 -0.3
v 0.5 0.4 -0.4
v 0.5 0.4 -0.5
v 0.5 0.5 0.4
v 0.5 0.5 0.2
v 0.5 0.5 0.1
v 0.5 0.5 0
v 0.5 0.5 -0.1
v 0.5 0.5 -0.3
v 0.5 0.5 -0.4
v 0.5 0.5 -0.5
v 0.5 0.6 0.5
v 0.5 0.6 0.4
v 0.5 0.6 0.3
v 0.5 0.6 0.2
v 0.5 0.6 0.1
v 0.5 0.6 -0.3
v 0.5 0.6 -0.5
v 0.5 0.7 0.5
v 0.5 0.7 0.4
v 0.5 0.7 0.3
v 0.5 0.7 0.2
v 0.5 0.7 0.1
v 0.5 0.7 -0.1
v 0.5 0.7 -0.2
v 0.5 0.7 -0.3
v 0.5 0.7 -0.4
v 0.5 0.7 -0.5
v 0.5 0.8 0.4
v 0.5 0.8 0.3
v 0.5 0.8 0.2
v 0.5 0.8 -0.1
v 0.5 0.8 -0.2
v 0.5 0.8 -0.3
v 0.5 0.8 -0.4
v 0.5 0.8 -0.5
v 0.5 0.9 0.4
v 0.5 0.9 0.3
v 0.5 0.9 0.1
v 0.5 0.9 0
v 0.5 0.9 -0.2
v 0.5 0.9 -0.3
v 0.5 0.9 -0.4
v 0.5 1 0.5
v 0.5 1 0
v 0.5 1 -0.3
v 0.5 1 -0.5
v -0.5 0 0.5
v -0.5 0.1 0.5
v -0.5 0.2 0.5
v -0.5 0.3 0.5
v -0.5 0.4 0.5
v -0.5 0.6 0.5
v -0.5 0.7 0.5
v -0.5 1 0.5
v -0.4 0.1 0.5
v -0.4 0.2 0.5
v -0.4 0.3 0.5
v -0.4 0.4 0.5
v -0.4 0.6 0.5
v -0.4 0.7 0.5
v -0.4 0.8 0.5
v -0.4 0.9 0.5
v -0.4 1 0.5
v -0.3 0.1 0.5
v -0.3 0.2 0.5
v -0.3 0.3 0.5
v -0.3 0.6 0.5
v -0.3 0.7 0.5
v -0.3 0.8 0.5
v -0.3 0.9 0.5
v -0.2 0 0.5
v -0.2 0.1 0.5
v -0.2 0.3 0.5
v -0.2 0.4 0.5
v -0.2 0.6 0.5
v -0.2 0.7 0.5
v -0.2 0.8 0.5
v -0.1 0 0.5
v -0.1 0.1 0.5
v -0.1 0.2 0.5
v -0.1 0.3 0.5
v -0.1 0.4 0.5
v -0.1 0.5 0.5
v -0.1 0.6 0.5
v -0.1 0.7 0.5
v -0.1 0.8 0.5
v 0 0.1 0.5
v 0 0.3 0.5
v 0 0.4 0.5
v 0 0.6 0.5
v 0 0.7 0.5
v 0 0.8 0.5
v 0 0.9 0.5
v 0 1 0.5
v 0.1 0.6 0.5
v 0.1 0.7 0.5
v 0.1 0.8 0.5
v 0.1 0.9 0.5
v 0.2 0 0.5
v 0.2 0.1 0.5
v 0.2 0.2 0.5
v 0.2 0.3 0.5
v 0.2 0.4 0.5
v 0.2 0.5 0.5
v 0.2 0.6 0.5
v 0.2 0.9 0.5
v 0.2 1 0.5
v 0.3 0.4 0.5
v 0.3 0.5 0.5
v 0.3 0.6 0.5
v 0.3 0.7 0.5
v 0.3 0.8 0.5
v 0.3 0.9 0.5
v 0.3 1 0.5
v 0.4 0 0.5
v 0.4 0.1 0.5
v 0.4 0.2 0.5
v 0.4 0.3 0.5
v 0.4 0.5 0.5
v 0.4 0.6 0.5
v 0.4 0.7 0.5
v 0.5 0 0.5
v 0.5 0.2 0.5
v 0.5 0.3 0.5
v 0.5 0.6 0.5
v 0.5 0.7 0.5
v 0.5 1 0.5
v -0.5 0 -0.5
v -0.5 0.1 -0.5
v -0.5 0.2 -0.5
v -0.5 0.3 -0.5
v -0.5 0.4 -0.5
v -0.5 0.5 -0.5
v -0.5 0.8 -0.5
v -0.5 0.9 -0.5
v -0.5 1 -0.5
v -0.4 0 -0.5
v -0.4 0.1 -0.5
v -0.4 0.2 -0.5
v -0.4 0.3 -0.5
v -0.4 0.6 -0.5
v -0.4 0.7 -0.5
v -0.4 0.8 -0.5
v -0.4 0.9 -0.5
v -0.4 1 -0.5
v -0.3 0.4 -0.5
v -0.3 0.5 -0.5
v -0.3 0.6 -0.5
v -0.3 0.8 -0.5
v -0.3 0.9 -0.5
v -0.3 1 -0.5
v -0.2 0 -0.5
v -0.2 0.1 -0.5
v -0.2 0.2 -0.5
v -0.2 0.3 -0.5
v -0.2 0.4 -0.5
v -0.2 0.8 -0.5
v -0.2 0.9 -0.5
v -0.1 0.1 -0.5
v -0.1 0.2 -0.5
v -0.1 0.4 -0.5
v -0.1 0.5 -0.5
v -0.1 0.6 -0.5
v -0.1 0.7 -0.5
v -0.1 0.9 -0.5
v -0.1 1 -0.5
v 0 0.1 -0.5
v 0 0.2 -0.5
v 0 0.3 -0.5
v 0 0.4 -0.5
v 0 0.5 -0.5
v 0 0.6 -0.5
v 0 0.7 -0.5
v 0 0.8 -0.5
v 0 0.9 -0.5
v 0 1 -0.5
v 0.1 0.3 -0.5
v 0.1 0.4 -0.5
v 0.1 0.5 -0.5
v 0.1 0.8 -0.5
v 0.1 0.9 -0.5
v 0.2 0 -0.5
v 0.2 0.1 -0.5
v 0.2 0.3 -0.5
v 0.2 0.4 -0.5
v 0.2 0.5 -0.5
v 0.2 0.6 -0.5
v 0.2 0.7 -0.5
v 0.2 0.8 -0.5
v 0.2 0.9 -0.5
v 0.2 1 -0.5
v 0.3 0.1 -0.5
v 0.3 0.2 -0.5
v 0.3 0.3 -0.5
v 0.3 0.4 -0.5
v 0.3 0.5 -0.5
v 0.3 0.6 -0.5
v 0.3 0.7 -0.5
v 0.3 0.8 -0.5
v 0.3 0.9 -0.5
v 0.3 1 -0.5
v 0.4 0 -0.5
v 0.4 0.1 -0.5
v 0.4 0.5 -0.5
v 0.4 0.6 -0.5
v 0.4 0.9 -0.5
v 0.4 1 -0.5
v 0.5 0 -0.5
v 0.5 0.1 -0.5
v 0.5 0.2 -0.5
v 0.5 0.4 -0.5
v 0.5 0.5 -0.5
v 0.5 0.6 -0.5
v 0.5 0.7 -0.5
v 0.5 0.8 -0.5
v 0.5 1 -0.5
v -0.5 0 0.5
v -0.2 0 0.5
v -0.1 0 0.5
v 0.2 0 0.5
v 0.4 0 0.5
v 0.5 0 0.5
v -0.5 0 0.4
v -0.3 0 0.4
v -0.2 0 0.4
v -0.1 0 0.4
v 0.2 0 0.4
v 0.3 0 0.4
v 0.4 0 0.4
v 0.5 0 0.4
v -0.5 0 0.3
v -0.4 0 0.3
v -0.3 0 0.3
v -0.1 0 0.3
v 0.1 0 0.3
v 0.3 0 0.3
v 0.4 0 0.3
v -0.4 0 0.2
v -0.1 0 0.2
v 0 0 0.2
v 0.1 0 0.2
v -0.5 0 0.1
v -0.4 0 0.1
v -0.3 0 0.1
v 0 0 0.1
v 0.1 0 0.1
v 0.2 0 0.1
v 0.4 0 0.1
v 0.5 0 0.1
v -0.5 0 0
v -0.4 0 0
v -0.3 0 0
v -0.2 0 0
v -0.1 0 0
v 0 0 0
v 0.2 0 0
v 0.4 0 0
v 0.5 0 0
v -0.5 0 -0.1
v -0.4 0 -0.1
v -0.2 0 -0.1
v -0.1 0 -0.1
v 0.1 0 -0.1
v 0.3 0 -0.1
v 0.5 0 -0.1
v -0.5 0 -0.2
v -0.4 0 -0.2
v -0.3 0 -0.2
v -0.2 0 -0.2
v -0.1 0 -0.2
v 0.1 0 -0.2
v 0.2 0 -0.2
v 0.3 0 -0.2
v 0.5 0 -0.2
v -0.4 0 -0.3
v -0.3 0 -0.3
v -0.2 0 -0.3
v -0.1 0 -0.3
v 0.2 0 -0.3
v 0.3 0 -0.3
v 0.4 0 -0.3
v 0.5 0 -0.3
v -0.5 0 -0.4
v -0.4 0 -0.4
v -0.3 0 -0.4
v -0.2 0 -0.4
v 0.2 0 -0.4
v 0.3 0 -0.4
v -0.5 0 -0.5
v -0.4 0 -0.5
v -0.2 0 -0.5
v 0.2 0 -0.5
v 0.4 0 -0.5
v 0.5 0 -0.5
v -0.5 1 0.5
v -0.4 1 0.5
v 0 1 0.5
v 0.2 1 0.5
v 0.3 1 0.5
v 0.5 1 0.5
v -0.5 1 0.4
v -0.4 1 0.4
v -0.2 1 0.4
v 0 1 0.4
v 0.1 1 0.4
v 0.2 1 0.4
v 0.3 1 0.4
v -0.5 1 0.3
v -0.4 1 0.3
v -0.3 1 0.3
v -0.2 1 0.3
v -0.1 1 0.3
v 0 1 0.3
v 0.1 1 0.3
v 0.2 1 0.3
v 0.4 1 0.3
v -0.5 1 0.2
v -0.3 1 0.2
v -0.1 1 0.2
v 0 1 0.2
v 0.2 1 0.2
v 0.4 1 0.2
v -0.5 1 0.1
v -0.4 1 0.1
v -0.3 1 0.1
v -0.2 1 0.1
v 0 1 0.1
v 0.1 1 0.1
v 0.2 1 0.1
v 0.3 1 0.1
v -0.5 1 0
v -0.4 1 0
v -0.3 1 0
v -0.2 1 0
v 0.1 1 0
v 0.2 1 0
v 0.3 1 0
v 0.4 1 0
v 0.5 1 0
v -0.5 1 -0.1
v -0.4 1 -0.1
v -0.3 1 -0.1
v -0.2 1 -0.1
v -0.1 1 -0.1
v 0 1 -0.1
v 0.1 1 -0.1
v 0.2 1 -0.1
v 0.3 1 -0.1
v 0.4 1 -0.1
v -0.5 1 -0.2
v -0.4 1 -0.2
v 0.2 1 -0.2
v 0.3 1 -0.2
v 0.4 1 -0.2
v -0.3 1 -0.3
v -0.1 1 -0.3
v 0 1 -0.3
v 0.2 1 -0.3
v 0.3 1 -0.3
v 0.4 1 -0.3
v 0.5 1 -0.3
v -0.4 1 -0.4
v -0.3 1 -0.4
v -0.1 1 -0.4
v 0 1 -0.4
v 0.2 1 -0.4
v 0.3 1 -0.4
v 0.4 1 -0.4
v -0.5 1 -0.5
v -0.4 1 -0.5
v -0.3 1 -0.5
v -0.1 1 -0.5
v 0 1 -0.5
v 0.2 1 -0.5
v 0.3 1 -0.5
v 0.4 1 -0.5
v 0.5 1 -0.5

# faces
f 10/2/1 2/2/1 1/2/1
f 11/1/1 3/1/1 2/1/1
f 11/2/1 2/2/1 10/2/1
f 12/2/1 4/2/1 3/2/1
f 12/1/1 3/1/1 11/1/1
f 13/1/1 5/1/1 4/1/1
f 13/2/1 4/2/1 12/2/1
f 14/3/1 6/3/1 5/3/1
f 14/1/1 5/1/1 13/1/1
f 15/2/1 7/2/1 6/2/1
f 15/3/1 6/3/1 14/3/1
f 16/4/1 8/4/1 7/4/1
f 16/2/1 7/2/1 15/2/1
f 17/2/1 9/2/1 8/2/1
f 17/4/1 8/4/1 16/4/1
f 18/2/1 9/2/1 17/2/1
f 19/4/1 11/4/1 10/4/1
f 20/1/1 12/1/1 11/1/1
f 20/4/1 11/4/1 19/4/1
f 20/1/1 13/1/1 12/1/1
f 21/1/1 13/1/1 20/1/1
f 22/1/1 13/1/1 21/1/1
f 23/2/1 16/2/1 15/2/1
f 23/1/1 13/1/1 22/1/1
f 23/2/1 14/2/1 13/2/1
f 23/2/1 15/2/1 14/2/1
f 23/2/1 17/2/1 16/2/1
f 24/2/1 17/2/1 23/2/1
f 25/2/1 17/2/1 24/2/1
f 26/1/1 18/1/1 17/1/1
f 26/2/1 17/2/1 25/2/1
f 27/1/1 18/1/1 26/1/1
f 28/2/1 21/2/1 20/2/1
f 28/2/1 20/2/1 19/2/1
f 29/2/1 21/2/1 28/2/1
f 30/1/1 22/1/1 21/1/1
f 30/2/1 21/2/1 29/2/1
f 31/2/1 23/2/1 22/2/1
f 31/1/1 22/1/1 30/1/1
f 31/2/1 24/2/1 23/2/1
f 32/2/1 24/2/1 31/2/1
f 33/3/1 25/3/1 24/3/1
f 33/2/1 24/2/1 32/2/1
f 34/4/1 27/4/1 26/4/1
f 34/3/1 25/3/1 33/3/1
f 34/4/1 26/4/1 25/4/1
f 35/4/1 27/4/1 34/4/1
f 36/4/1 27/4/1 35/4/1
f 37/1/1 29/1/1 28/1/1
f 38/2/1 30/2/1 29/2/1
f 38/1/1 29/1/1 37/1/1
f 38/2/1 31/2/1 30/2/1
f 39/2/1 31/2/1 38/2/1
f 40/3/1 32/3/1 31/3/1
f 40/2/1 31/2/1 39/2/1
f 41/3/1 32/3/1 40/3/1
f 42/2/1 33/2/1 32/2/1
f 42/3/1 32/3/1 41/3/1
f 43/2/1 33/2/1 42/2/1
f 44/1/1 34/1/1 33/1/1
f 44/2/1 33/2/1 43/2/1
f 45/3/1 35/3/1 34/3/1
f 45/1/1 34/1/1 44/1/1
f 46/2/1 36/2/1 35/2/1
f 46/3/1 35/3/1 45/3/1
f 47/2/1 36/2/1 46/2/1
f 48/2/1 39/2/1 38/2/1
f 48/2/1 38/2/1 37/2/1
f 49/4/1 40/4/1 39/4/1
f 49/2/1 39/2/1 48/2/1
f 50/2/1 41/2/1 40/2/1
f 50/1/1 43/1/1 42/1/1
f 50/1/1 42/1/1 41/1/1
f 51/1/1 43/1/1 50/1/1
f 52/3/1 45/3/1 44/3/1
f 52/2/1 44/2/1 43/2/1
f 53/2/1 46/2/1 45/2/1
f 53/3/1 45/3/1 52/3/1
f 54/3/1 47/3/1 46/3/1
f 54/2/1 46/2/1 53/2/1
f 55/3/1 47/3/1 54/3/1
f 56/2/1 48/2/1 37/2/1
f 57/3/1 49/3/1 48/3/1
f 57/2/1 48/2/1 56/2/1
f 58/4/1 40/4/1 49/4/1
f 58/3/1 49/3/1 57/3/1
f 59/2/1 51/2/1 50/2/1
f 59/4/1 40/4/1 58/4/1
f 59/2/1 50/2/1 40/2/1
f 60/2/1 51/2/1 59/2/1
f 61/1/1 43/1/1 51/1/1
f 61/2/1 51/2/1 60/2/1
f 62/2/1 53/2/1 52/2/1
f 62/1/1 43/1/1 61/1/1
f 62/2/1 52/2/1 43/2/1
f 62/2/1 55/2/1 54/2/1
f 62/2/1 54/2/1 53/2/1
f 63/2/1 55/2/1 62/2/1
f 64/2/1 55/2/1 63/2/1
f 65/4/1 57/4/1 56/4/1
f 65/4/1 58/4/1 57/4/1
f 66/4/1 58/4/1 65/4/1
f 67/2/1 60/2/1 59/2/1
f 67/4/1 58/4/1 66/4/1
f 67/2/1 59/2/1 58/2/1
f 68/2/1 60/2/1 67/2/1
f 69/4/1 61/4/1 60/4/1
f 69/2/1 60/2/1 68/2/1
f 69/4/1 62/4/1 61/4/1
f 69/4/1 63/4/1 62/4/1
f 70/4/1 63/4/1 69/4/1
f 71/4/1 63/4/1 70/4/1
f 72/1/1 64/1/1 63/1/1
f 72/4/1 63/4/1 71/4/1
f 73/3/1 68/3/1 67/3/1
f 73/2/1 67/2/1 66/2/1
f 74/1/1 69/1/1 68/1/1
f 74/3/1 68/3/1 73/3/1
f 75/2/1 70/2/1 69/2/1
f 75/1/1 69/1/1 74/1/1
f 76/3/1 71/3/1 70/3/1
f 76/2/1 70/2/1 75/2/1
f 77/2/1 72/2/1 71/2/1
f 77/3/1 71/3/1 76/3/1
f 78/1/1 64/1/1 72/1/1
f 78/2/1 72/2/1 77/2/1
f 79/2/1 55/2/1 64/2/1
f 79/1/1 64/1/1 78/1/1
f 80/2/1 55/2/1 79/2/1
f 81/2/1 75/2/1 74/2/1
f 81/2/1 73/2/1 66/2/1
f 81/2/1 74/2/1 73/2/1
f 82/2/1 75/2/1 81/2/1
f 83/3/1 76/3/1 75/3/1
f 83/2/1 75/2/1 82/2/1
f 84/2/1 78/2/1 77/2/1
f 84/3/1 76/3/1 83/3/1
f 84/2/1 77/2/1 76/2/1
f 84/2/1 79/2/1 78/2/1
f 85/2/1 79/2/1 84/2/1
f 86/2/1 79/2/1 85/2/1
f 87/3/1 80/3/1 79/3/1
f 87/2/1 79/2/1 86/2/1
f 88/3/1 80/3/1 87/3/1
f 89/1/1 66/1/1 65/1/1
f 90/2/1 81/2/1 66/2/1
f 90/1/1 66/1/1 89/1/1
f 91/3/1 82/3/1 81/3/1
f 91/2/1 81/2/1 90/2/1
f 92/2/1 83/2/1 82/2/1
f 92/3/1 82/3/1 91/3/1
f 93/1/1 84/1/1 83/1/1
f 93/2/1 83/2/1 92/2/1
f 94/2/1 85/2/1 84/2/1
f 94/1/1 84/1/1 93/1/1
f 95/4/1 86/4/1 85/4/1
f 95/2/1 85/2/1 94/2/1
f 96/2/1 87/2/1 86/2/1
f 96/4/1 86/4/1 95/4/1
f 96/2/1 88/2/1 87/2/1
f 97/2/1 88/2/1 96/2/1
f 99/2/2 100/2/2 106/2/2
f 106/2/2 100/2/2 107/2/2
f 100/4/2 101/4/2 108/4/2
f 107/2/2 100/2/2 108/2/2
f 101/2/2 102/2/2 109/2/2
f 108/4/2 101/4/2 109/4/2
f 102/4/2 103/4/2 110/4/2
f 109/2/2 102/2/2 110/2/2
f 103/2/2 104/2/2 111/2/2
f 110/4/2 103/4/2 111/4/2
f 104/3/2 105/3/2 112/3/2
f 111/2/2 104/2/2 112/2/2
f 112/3/2 105/3/2 113/3/2
f 113/3/2 105/3/2 114/3/2
f 98/1/2 99/1/2 115/1/2
f 99/2/2 106/2/2 116/2/2
f 115/1/2 99/1/2 116/1/2
f 106/3/2 107/3/2 117/3/2
f 116/2/2 106/2/2 117/2/2
f 107/2/2 108/2/2 118/2/2
f 117/3/2 107/3/2 118/3/2
f 108/2/2 109/2/2 118/2/2
f 118/2/2 109/2/2 119/2/2
f 109/4/2 110/4/2 120/4/2
f 119/2/2 109/2/2 120/2/2
f 110/1/2 111/1/2 121/1/2
f 120/4/2 110/4/2 121/4/2
f 111/2/2 112/2/2 122/2/2
f 121/1/2 111/1/2 122/1/2
f 112/2/2 113/2/2 122/2/2
f 113/4/2 114/4/2 123/4/2
f 122/2/2 113/2/2 123/2/2
f 123/4/2 114/4/2 124/4/2
f 115/4/2 116/4/2 125/4/2
f 116/2/2 117/2/2 126/2/2
f 125/4/2 116/4/2 126/4/2
f 117/2/2 118/2/2 126/2/2
f 118/1/2 119/1/2 127/1/2
f 126/2/2 118/2/2 127/2/2
f 119/2/2 120/2/2 128/2/2
f 127/1/2 119/1/2 128/1/2
f 121/2/2 122/2/2 128/2/2
f 122/2/2 123/2/2 128/2/2
f 123/2/2 124/2/2 128/2/2
f 120/2/2 121/2/2 128/2/2
f 128/2/2 124/2/2 129/2/2
f 129/2/2 124/2/2 130/2/2
f 130/2/2 124/2/2 131/2/2
f 126/2/2 127/2/2 132/2/2
f 125/2/2 126/2/2 132/2/2
f 127/4/2 128/4/2 133/4/2
f 132/2/2 127/2/2 133/2/2
f 128/3/2 129/3/2 134/3/2
f 133/4/2 128/4/2 134/4/2
f 134/3/2 129/3/2 135/3/2
f 129/2/2 130/2/2 136/2/2
f 135/3/2 129/3/2 136/3/2
f 130/1/2 131/1/2 137/1/2
f 136/2/2 130/2/2 137/2/2
f 131/2/2 124/2/2 138/2/2
f 137/1/2 131/1/2 138/1/2
f 138/2/2 124/2/2 139/2/2
f 125/2/2 132/2/2 140/2/2
f 132/1/2 133/1/2 140/1/2
f 134/2/2 135/2/2 141/2/2
f 140/1/2 133/1/2 141/1/2
f 133/2/2 134/2/2 141/2/2
f 141/2/2 135/2/2 142/2/2
f 136/4/2 137/4/2 143/4/2
f 142/2/2 135/2/2 143/2/2
f 135/4/2 136/4/2 143/4/2
f 143/4/2 137/4/2 144/4/2
f 137/2/2 138/2/2 145/2/2
f 144/4/2 137/4/2 145/4/2
f 138/4/2 139/4/2 146/4/2
f 145/2/2 138/2/2 146/2/2
f 146/4/2 139/4/2 147/4/2
f 140/2/2 141/2/2 148/2/2
f 125/2/2 140/2/2 148/2/2
f 148/2/2 141/2/2 149/2/2
f 149/2/2 141/2/2 150/2/2
f 141/1/2 142/1/2 151/1/2
f 150/2/2 141/2/2 151/2/2
f 143/2/2 144/2/2 152/2/2
f 151/1/2 142/1/2 152/1/2
f 142/2/2 143/2/2 152/2/2
f 144/1/2 145/1/2 153/1/2
f 146/3/2 147/3/2 153/3/2
f 145/3/2 146/3/2 153/3/2
f 153/3/2 147/3/2 154/3/2
f 148/3/2 149/3/2 155/3/2
f 149/4/2 150/4/2 156/4/2
f 155/3/2 149/3/2 156/3/2
f 150/3/2 151/3/2 157/3/2
f 156/4/2 150/4/2 157/4/2
f 151/2/2 152/2/2 158/2/2
f 157/3/2 151/3/2 158/3/2
f 152/2/2 144/2/2 159/2/2
f 158/2/2 152/2/2 159/2/2
f 144/1/2 153/1/2 160/1/2
f 159/2/2 144/2/2 160/2/2
f 160/1/2 153/1/2 161/1/2
f 153/2/2 154/2/2 162/2/2
f 161/1/2 153/1/2 162/1/2
f 162/2/2 154/2/2 163/2/2
f 163/2/2 154/2/2 164/2/2
f 156/2/2 157/2/2 165/2/2
f 155/2/2 156/2/2 165/2/2
f 157/4/2 158/4/2 166/4/2
f 165/2/2 157/2/2 166/2/2
f 158/1/2 159/1/2 167/1/2
f 166/4/2 158/4/2 167/4/2
f 160/4/2 161/4/2 168/4/2
f 159/2/2 160/2/2 168/2/2
f 161/2/2 162/2/2 169/2/2
f 168/4/2 161/4/2 169/4/2
f 162/2/2 163/2/2 169/2/2
f 169/2/2 163/2/2 170/2/2
f 163/1/2 164/1/2 171/1/2
f 170/2/2 163/2/2 171/2/2
f 171/1/2 164/1/2 172/1/2
f 155/2/2 165/2/2 173/2/2
f 165/3/2 166/3/2 173/3/2
f 166/1/2 167/1/2 174/1/2
f 173/3/2 166/3/2 174/3/2
f 167/1/2 159/1/2 175/1/2
f 174/1/2 167/1/2 175/1/2
f 159/2/2 168/2/2 175/2/2
f 168/2/2 169/2/2 175/2/2
f 175/2/2 169/2/2 176/2/2
f 169/4/2 170/4/2 177/4/2
f 176/2/2 169/2/2 177/2/2
f 170/1/2 171/1/2 178/1/2
f 177/4/2 170/4/2 178/4/2
f 171/2/2 172/2/2 179/2/2
f 178/1/2 171/1/2 179/1/2
f 175/2/2 176/2/2 180/2/2
f 173/2/2 174/2/2 180/2/2
f 155/2/2 173/2/2 180/2/2
f 174/2/2 175/2/2 180/2/2
f 177/3/2 178/3/2 181/3/2
f 180/2/2 176/2/2 181/2/2
f 176/3/2 177/3/2 181/3/2
f 178/2/2 179/2/2 182/2/2
f 181/3/2 178/3/2 182/3/2
f 179/2/2 172/2/2 183/2/2
f 182/2/2 179/2/2 183/2/2
f 192/2/3 185/2/3 184/2/3
f 192/4/3 186/4/3 185/4/3
f 193/2/3 187/2/3 186/2/3
f 193/4/3 186/4/3 192/4/3
f 194/1/3 188/1/3 187/1/3
f 194/2/3 187/2/3 193/2/3
f 195/2/3 189/2/3 188/2/3
f 195/1/3 188/1/3 194/1/3
f 196/4/3 190/4/3 189/4/3
f 196/2/3 189/2/3 195/2/3
f 197/1/3 191/1/3 190/1/3
f 197/4/3 190/4/3 196/4/3
f 198/1/3 191/1/3 197/1/3
f 199/1/3 191/1/3 198/1/3
f 200/1/3 191/1/3 199/1/3
f 201/2/3 192/2/3 184/2/3
f 201/3/3 193/3/3 192/3/3
f 201/3/3 194/3/3 193/3/3
f 202/3/3 194/3/3 201/3/3
f 203/2/3 195/2/3 194/2/3
f 203/3/3 194/3/3 202/3/3
f 204/1/3 196/1/3 195/1/3
f 204/4/3 197/4/3 196/4/3
f 205/3/3 198/3/3 197/3/3
f 205/4/3 197/4/3 204/4/3
f 206/1/3 199/1/3 198/1/3
f 206/3/3 198/3/3 205/3/3
f 207/3/3 200/3/3 199/3/3
f 207/1/3 199/1/3 206/1/3
f 208/2/3 201/2/3 184/2/3
f 209/1/3 202/1/3 201/1/3
f 209/2/3 201/2/3 208/2/3
f 210/2/3 195/2/3 203/2/3
f 210/2/3 203/2/3 202/2/3
f 211/1/3 204/1/3 195/1/3
f 211/2/3 195/2/3 210/2/3
f 212/2/3 206/2/3 205/2/3
f 212/1/3 204/1/3 211/1/3
f 212/2/3 205/2/3 204/2/3
f 212/2/3 207/2/3 206/2/3
f 213/2/3 207/2/3 212/2/3
f 214/2/3 207/2/3 213/2/3
f 215/3/3 209/3/3 208/3/3
f 216/1/3 202/1/3 209/1/3
f 216/3/3 209/3/3 215/3/3
f 217/2/3 210/2/3 202/2/3
f 217/1/3 202/1/3 216/1/3
f 218/1/3 211/1/3 210/1/3
f 218/2/3 210/2/3 217/2/3
f 219/2/3 212/2/3 211/2/3
f 219/1/3 211/1/3 218/1/3
f 219/2/3 213/2/3 212/2/3
f 220/2/3 213/2/3 219/2/3
f 221/2/3 213/2/3 220/2/3
f 222/3/3 214/3/3 213/3/3
f 222/2/3 213/2/3 221/2/3
f 223/2/3 207/2/3 214/2/3
f 223/3/3 214/3/3 222/3/3
f 224/1/3 217/1/3 216/1/3
f 224/4/3 216/4/3 215/4/3
f 224/1/3 218/1/3 217/1/3
f 225/3/3 219/3/3 218/3/3
f 225/1/3 218/1/3 224/1/3
f 226/2/3 220/2/3 219/2/3
f 226/3/3 219/3/3 225/3/3
f 227/2/3 222/2/3 221/2/3
f 227/1/3 221/1/3 220/1/3
f 228/4/3 223/4/3 222/4/3
f 228/2/3 222/2/3 227/2/3
f 229/2/3 207/2/3 223/2/3
f 229/4/3 223/4/3 228/4/3
f 230/3/3 200/3/3 207/3/3
f 230/2/3 207/2/3 229/2/3
f 231/3/3 200/3/3 230/3/3
f 232/1/3 228/1/3 227/1/3
f 232/1/3 227/1/3 220/1/3
f 233/2/3 229/2/3 228/2/3
f 233/1/3 228/1/3 232/1/3
f 233/2/3 231/2/3 230/2/3
f 233/2/3 230/2/3 229/2/3
f 234/2/3 231/2/3 233/2/3
f 235/2/3 231/2/3 234/2/3
f 236/4/3 224/4/3 215/4/3
f 237/2/3 225/2/3 224/2/3
f 237/4/3 224/4/3 236/4/3
f 238/2/3 225/2/3 237/2/3
f 239/4/3 226/4/3 225/4/3
f 239/2/3 225/2/3 238/2/3
f 240/2/3 220/2/3 226/2/3
f 240/4/3 226/4/3 239/4/3
f 241/1/3 232/1/3 220/1/3
f 241/2/3 220/2/3 240/2/3
f 242/2/3 233/2/3 232/2/3
f 242/1/3 232/1/3 241/1/3
f 242/2/3 234/2/3 233/2/3
f 243/2/3 231/2/3 235/2/3
f 243/1/3 235/1/3 234/1/3
f 244/2/3 231/2/3 243/2/3
f 245/2/3 240/2/3 239/2/3
f 245/2/3 239/2/3 238/2/3
f 245/3/3 241/3/3 240/3/3
f 246/2/3 242/2/3 241/2/3
f 246/3/3 241/3/3 245/3/3
f 247/2/3 234/2/3 242/2/3
f 247/2/3 242/2/3 246/2/3
f 248/2/3 234/2/3 247/2/3
f 249/1/3 243/1/3 234/1/3
f 249/2/3 234/2/3 248/2/3
f 250/3/3 244/3/3 243/3/3
f 250/1/3 243/1/3 249/1/3
f 251/3/3 244/3/3 250/3/3
f 252/2/3 237/2/3 236/2/3
f 253/1/3 238/1/3 237/1/3
f 253/2/3 237/2/3 252/2/3
f 254/2/3 246/2/3 245/2/3
f 254/1/3 238/1/3 253/1/3
f 254/2/3 245/2/3 238/2/3
f 255/2/3 246/2/3 254/2/3
f 256/1/3 247/1/3 246/1/3
f 256/2/3 246/2/3 255/2/3
f 257/4/3 248/4/3 247/4/3
f 257/1/3 247/1/3 256/1/3
f 258/2/3 249/2/3 248/2/3
f 258/4/3 248/4/3 257/4/3
f 258/2/3 251/2/3 250/2/3
f 258/2/3 250/2/3 249/2/3
f 259/1/3 253/1/3 252/1/3
f 259/1/3 254/1/3 253/1/3
f 260/4/3 255/4/3 254/4/3
f 260/1/3 254/1/3 259/1/3
f 261/2/3 257/2/3 256/2/3
f 261/4/3 255/4/3 260/4/3
f 261/2/3 256/2/3 255/2/3
f 262/3/3 258/3/3 257/3/3
f 262/2/3 257/2/3 261/2/3
f 263/2/3 251/2/3 258/2/3
f 263/3/3 258/3/3 262/3/3
f 264/2/3 251/2/3 263/2/3
f 265/2/4 266/2/4 274/2/4
f 266/1/4 267/1/4 275/1/4
f 274/2/4 266/2/4 275/2/4
f 267/4/4 268/4/4 276/4/4
f 275/1/4 267/1/4 276/1/4
f 268/2/4 269/2/4 277/2/4
f 276/4/4 268/4/4 277/4/4
f 270/2/4 271/2/4 278/2/4
f 278/2/4 271/2/4 279/2/4
f 271/3/4 272/3/4 280/3/4
f 279/2/4 271/2/4 280/2/4
f 272/2/4 273/2/4 281/2/4
f 280/3/4 272/3/4 281/3/4
f 281/2/4 273/2/4 282/2/4
f 269/3/4 270/3/4 283/3/4
f 277/2/4 269/2/4 283/2/4
f 276/2/4 277/2/4 283/2/4
f 270/2/4 278/2/4 284/2/4
f 283/3/4 270/3/4 284/3/4
f 278/4/4 279/4/4 285/4/4
f 284/2/4 278/2/4 285/2/4
f 279/2/4 280/2/4 286/2/4
f 280/2/4 281/2/4 286/2/4
f 281/3/4 282/3/4 287/3/4
f 286/2/4 281/2/4 287/2/4
f 287/3/4 282/3/4 288/3/4
f 274/3/4 275/3/4 289/3/4
f 275/1/4 276/1/4 290/1/4
f 289/3/4 275/3/4 290/3/4
f 283/2/4 284/2/4 291/2/4
f 290/1/4 276/1/4 291/1/4
f 276/2/4 283/2/4 291/2/4
f 291/2/4 284/2/4 292/2/4
f 292/2/4 284/2/4 293/2/4
f 279/2/4 286/2/4 294/2/4
f 286/3/4 287/3/4 294/3/4
f 287/2/4 288/2/4 295/2/4
f 294/3/4 287/3/4 295/3/4
f 289/4/4 290/4/4 296/4/4
f 290/2/4 291/2/4 296/2/4
f 291/2/4 292/2/4 296/2/4
f 296/2/4 292/2/4 297/2/4
f 293/2/4 284/2/4 298/2/4
f 292/4/4 293/4/4 298/4/4
f 284/1/4 285/1/4 299/1/4
f 298/2/4 284/2/4 299/2/4
f 285/4/4 279/4/4 300/4/4
f 299/1/4 285/1/4 300/1/4
f 279/2/4 294/2/4 301/2/4
f 300/4/4 279/4/4 301/4/4
f 294/2/4 295/2/4 301/2/4
f 295/2/4 288/2/4 302/2/4
f 301/2/4 295/2/4 302/2/4
f 302/2/4 288/2/4 303/2/4
f 296/3/4 297/3/4 304/3/4
f 289/4/4 296/4/4 304/4/4
f 297/2/4 292/2/4 305/2/4
f 304/3/4 297/3/4 305/3/4
f 292/4/4 298/4/4 306/4/4
f 305/2/4 292/2/4 306/2/4
f 298/1/4 299/1/4 307/1/4
f 306/4/4 298/4/4 307/4/4
f 299/3/4 300/3/4 308/3/4
f 307/1/4 299/1/4 308/1/4
f 300/2/4 301/2/4 309/2/4
f 308/3/4 300/3/4 309/3/4
f 301/2/4 302/2/4 309/2/4
f 309/2/4 302/2/4 310/2/4
f 310/2/4 302/2/4 311/2/4
f 302/4/4 303/4/4 312/4/4
f 311/2/4 302/2/4 312/2/4
f 312/4/4 303/4/4 313/4/4
f 305/2/4 306/2/4 314/2/4
f 304/2/4 305/2/4 314/2/4
f 306/2/4 307/2/4 314/2/4
f 307/4/4 308/4/4 315/4/4
f 314/2/4 307/2/4 315/2/4
f 308/2/4 309/2/4 316/2/4
f 315/4/4 308/4/4 316/4/4
f 309/2/4 310/2/4 316/2/4
f 312/2/4 313/2/4 317/2/4
f 311/2/4 312/2/4 317/2/4
f 310/3/4 311/3/4 317/3/4
f 317/2/4 313/2/4 318/2/4
f 289/4/4 304/4/4 319/4/4
f 304/2/4 314/2/4 320/2/4
f 319/4/4 304/4/4 320/4/4
f 314/1/4 315/1/4 321/1/4
f 320/2/4 314/2/4 321/2/4
f 315/2/4 316/2/4 322/2/4
f 321/1/4 315/1/4 322/1/4
f 316/2/4 310/2/4 323/2/4
f 322/2/4 316/2/4 323/2/4
f 323/2/4 310/2/4 324/2/4
f 310/3/4 317/3/4 325/3/4
f 324/2/4 310/2/4 325/2/4
f 317/4/4 318/4/4 326/4/4
f 325/3/4 317/3/4 326/3/4
f 318/2/4 313/2/4 327/2/4
f 326/4/4 318/4/4 327/4/4
f 327/2/4 313/2/4 328/2/4
f 320/1/4 321/1/4 329/1/4
f 319/2/4 320/2/4 329/2/4
f 329/1/4 321/1/4 330/1/4
f 321/2/4 322/2/4 331/2/4
f 330/1/4 321/1/4 331/1/4
f 322/2/4 323/2/4 331/2/4
f 331/2/4 323/2/4 332/2/4
f 323/1/4 324/1/4 333/1/4
f 332/2/4 323/2/4 333/2/4
f 325/2/4 326/2/4 334/2/4
f 333/1/4 324/1/4 334/1/4
f 324/2/4 325/2/4 334/2/4
f 334/2/4 326/2/4 335/2/4
f 326/4/4 327/4/4 336/4/4
f 335/2/4 326/2/4 336/2/4
f 327/1/4 328/1/4 337/1/4
f 336/4/4 327/4/4 337/4/4
f 337/1/4 328/1/4 338/1/4
f 319/2/4 329/2/4 339/2/4
f 329/4/4 330/4/4 340/4/4
f 339/2/4 329/2/4 340/2/4
f 332/4/4 333/4/4 341/4/4
f 334/2/4 335/2/4 341/2/4
f 333/2/4 334/2/4 341/2/4
f 341/2/4 335/2/4 342/2/4
f 337/3/4 338/3/4 343/3/4
f 336/2/4 337/2/4 343/2/4
f 343/3/4 338/3/4 344/3/4
f 339/3/4 340/3/4 345/3/4
f 340/4/4 330/4/4 346/4/4
f 345/3/4 340/3/4 346/3/4
f 331/2/4 332/2/4 347/2/4
f 346/4/4 330/4/4 347/4/4
f 330/2/4 331/2/4 347/2/4
f 332/4/4 341/4/4 348/4/4
f 347/2/4 332/2/4 348/2/4
f 341/3/4 342/3/4 349/3/4
f 348/4/4 341/4/4 349/4/4
f 342/2/4 335/2/4 350/2/4
f 349/3/4 342/3/4 350/3/4
f 335/1/4 336/1/4 351/1/4
f 350/2/4 335/2/4 351/2/4
f 343/2/4 344/2/4 352/2/4
f 351/1/4 336/1/4 352/1/4
f 336/2/4 343/2/4 352/2/4
f 352/2/4 344/2/4 353/2/4
f 360/2/5 355/2/5 354/2/5
f 361/2/5 355/2/5 360/2/5
f 362/3/5 356/3/5 355/3/5
f 362/2/5 355/2/5 361/2/5
f 363/4/5 357/4/5 356/4/5
f 363/3/5 356/3/5 362/3/5
f 364/2/5 358/2/5 357/2/5
f 364/4/5 357/4/5 363/4/5
f 365/2/5 358/2/5 364/2/5
f 366/1/5 359/1/5 358/1/5
f 366/2/5 358/2/5 365/2/5
f 367/1/5 359/1/5 366/1/5
f 368/1/5 361/1/5 360/1/5
f 369/1/5 361/1/5 368/1/5
f 370/2/5 365/2/5 364/2/5
f 370/1/5 361/1/5 369/1/5
f 370/2/5 362/2/5 361/2/5
f 370/2/5 363/2/5 362/2/5
f 370/2/5 364/2/5 363/2/5
f 371/2/5 365/2/5 370/2/5
f 372/2/5 365/2/5 371/2/5
f 373/4/5 366/4/5 365/4/5
f 373/2/5 365/2/5 372/2/5
f 374/2/5 367/2/5 366/2/5
f 374/4/5 366/4/5 373/4/5
f 375/2/5 369/2/5 368/2/5
f 375/3/5 370/3/5 369/3/5
f 375/3/5 371/3/5 370/3/5
f 376/2/5 372/2/5 371/2/5
f 376/3/5 371/3/5 375/3/5
f 377/2/5 372/2/5 376/2/5
f 378/1/5 373/1/5 372/1/5
f 378/2/5 372/2/5 377/2/5
f 378/1/5 374/1/5 373/1/5
f 379/2/5 377/2/5 376/2/5
f 379/2/5 375/2/5 368/2/5
f 379/2/5 376/2/5 375/2/5
f 380/2/5 377/2/5 379/2/5
f 381/2/5 377/2/5 380/2/5
f 382/4/5 378/4/5 377/4/5
f 382/2/5 377/2/5 381/2/5
f 383/1/5 374/1/5 378/1/5
f 383/4/5 378/4/5 382/4/5
f 384/1/5 374/1/5 383/1/5
f 385/2/5 367/2/5 374/2/5
f 385/1/5 374/1/5 384/1/5
f 386/2/5 367/2/5 385/2/5
f 387/1/5 380/1/5 379/1/5
f 388/2/5 381/2/5 380/2/5
f 388/1/5 380/1/5 387/1/5
f 389/4/5 382/4/5 381/4/5
f 389/2/5 381/2/5 388/2/5
f 390/4/5 382/4/5 389/4/5
f 391/4/5 382/4/5 390/4/5
f 392/2/5 384/2/5 383/2/5
f 392/4/5 382/4/5 391/4/5
f 392/2/5 383/2/5 382/2/5
f 393/3/5 385/3/5 384/3/5
f 393/2/5 384/2/5 392/2/5
f 394/4/5 386/4/5 385/4/5
f 394/3/5 385/3/5 393/3/5
f 395/4/5 386/4/5 394/4/5
f 396/3/5 388/3/5 387/3/5
f 397/2/5 390/2/5 389/2/5
f 397/3/5 388/3/5 396/3/5
f 397/2/5 389/2/5 388/2/5
f 398/4/5 391/4/5 390/4/5
f 398/2/5 390/2/5 397/2/5
f 399/2/5 392/2/5 391/2/5
f 399/4/5 391/4/5 398/4/5
f 399/2/5 393/2/5 392/2/5
f 399/2/5 394/2/5 393/2/5
f 399/2/5 395/2/5 394/2/5
f 400/2/5 395/2/5 399/2/5
f 401/2/5 395/2/5 400/2/5
f 402/2/5 395/2/5 401/2/5
f 403/2/5 397/2/5 396/2/5
f 403/2/5 398/2/5 397/2/5
f 404/2/5 398/2/5 403/2/5
f 405/2/5 398/2/5 404/2/5
f 406/3/5 399/3/5 398/3/5
f 406/2/5 398/2/5 405/2/5
f 406/3/5 400/3/5 399/3/5
f 407/3/5 400/3/5 406/3/5
f 408/2/5 401/2/5 400/2/5
f 408/3/5 400/3/5 407/3/5
f 409/2/5 401/2/5 408/2/5
f 410/4/5 402/4/5 401/4/5
f 410/2/5 401/2/5 409/2/5
f 411/4/5 402/4/5 410/4/5
f 412/1/5 405/1/5 404/1/5
f 412/4/5 404/4/5 403/4/5
f 413/2/5 407/2/5 406/2/5
f 413/1/5 405/1/5 412/1/5
f 413/2/5 406/2/5 405/2/5
f 414/2/5 407/2/5 413/2/5
f 415/1/5 409/1/5 408/1/5
f 415/2/5 407/2/5 414/2/5
f 415/1/5 408/1/5 407/1/5
f 416/2/5 411/2/5 410/2/5
f 416/1/5 409/1/5 415/1/5
f 416/2/5 410/2/5 409/2/5
f 417/2/5 411/2/5 416/2/5
f 418/2/5 411/2/5 417/2/5
f 419/2/5 411/2/5 418/2/5
f 420/4/5 412/4/5 403/4/5
f 421/2/5 413/2/5 412/2/5
f 421/4/5 412/4/5 420/4/5
f 422/1/5 414/1/5 413/1/5
f 422/2/5 413/2/5 421/2/5
f 423/2/5 415/2/5 414/2/5
f 423/1/5 414/1/5 422/1/5
f 423/2/5 416/2/5 415/2/5
f 424/4/5 417/4/5 416/4/5
f 424/2/5 416/2/5 423/2/5
f 425/2/5 418/2/5 417/2/5
f 425/4/5 417/4/5 424/4/5
f 426/2/5 421/2/5 420/2/5
f 427/3/5 422/3/5 421/3/5
f 427/2/5 421/2/5 426/2/5
f 427/3/5 423/3/5 422/3/5
f 428/4/5 424/4/5 423/4/5
f 428/3/5 423/3/5 427/3/5
f 429/2/5 425/2/5 424/2/5
f 429/4/5 424/4/5 428/4/5
f 430/2/5 418/2/5 425/2/5
f 430/2/5 425/2/5 429/2/5
f 430/3/5 419/3/5 418/3/5
f 431/3/5 419/3/5 430/3/5
f 432/1/6 433/1/6 438/1/6
f 433/3/6 434/3/6 439/3/6
f 438/1/6 433/1/6 439/1/6
f 439/3/6 434/3/6 440/3/6
f 434/2/6 435/2/6 441/2/6
f 440/3/6 434/3/6 441/3/6
f 441/2/6 435/2/6 442/2/6
f 435/3/6 436/3/6 443/3/6
f 442/2/6 435/2/6 443/2/6
f 436/2/6 437/2/6 444/2/6
f 443/3/6 436/3/6 444/3/6
f 438/2/6 439/2/6 445/2/6
f 439/4/6 440/4/6 446/4/6
f 445/2/6 439/2/6 446/2/6
f 446/4/6 440/4/6 447/4/6
f 441/2/6 442/2/6 448/2/6
f 447/4/6 440/4/6 448/4/6
f 440/2/6 441/2/6 448/2/6
f 448/2/6 442/2/6 449/2/6
f 449/2/6 442/2/6 450/2/6
f 442/3/6 443/3/6 451/3/6
f 450/2/6 442/2/6 451/2/6
f 443/2/6 444/2/6 452/2/6
f 451/3/6 443/3/6 452/3/6
f 444/2/6 437/2/6 453/2/6
f 452/2/6 444/2/6 453/2/6
f 446/3/6 447/3/6 454/3/6
f 445/3/6 446/3/6 454/3/6
f 447/2/6 448/2/6 455/2/6
f 454/3/6 447/3/6 455/3/6
f 448/2/6 449/2/6 455/2/6
f 449/3/6 450/3/6 456/3/6
f 455/2/6 449/2/6 456/2/6
f 451/1/6 452/1/6 457/1/6
f 456/3/6 450/3/6 457/3/6
f 450/1/6 451/1/6 457/1/6
f 452/4/6 453/4/6 458/4/6
f 457/1/6 452/1/6 458/1/6
f 453/2/6 437/2/6 459/2/6
f 458/4/6 453/4/6 459/4/6
f 454/2/6 455/2/6 460/2/6
f 455/2/6 456/2/6 460/2/6
f 456/2/6 457/2/6 460/2/6
f 460/2/6 457/2/6 461/2/6
f 461/2/6 457/2/6 462/2/6
f 462/2/6 457/2/6 463/2/6
f 457/1/6 458/1/6 464/1/6
f 463/2/6 457/2/6 464/2/6
f 464/1/6 458/1/6 465/1/6
f 458/2/6 459/2/6 466/2/6
f 465/1/6 458/1/6 466/1/6
f 466/2/6 459/2/6 467/2/6
f 460/1/6 461/1/6 468/1/6
f 461/2/6 462/2/6 469/2/6
f 468/1/6 461/1/6 469/1/6
f 462/3/6 463/3/6 470/3/6
f 469/2/6 462/2/6 470/2/6
f 464/4/6 465/4/6 471/4/6
f 470/3/6 463/3/6 471/3/6
f 463/4/6 464/4/6 471/4/6
f 465/2/6 466/2/6 472/2/6
f 471/4/6 465/4/6 472/4/6
f 466/3/6 467/3/6 473/3/6
f 472/2/6 466/2/6 473/2/6
f 467/2/6 459/2/6 474/2/6
f 473/3/6 467/3/6 474/3/6
f 459/2/6 437/2/6 475/2/6
f 474/2/6 459/2/6 475/2/6
f 475/2/6 437/2/6 476/2/6
f 468/2/6 469/2/6 477/2/6
f 469/1/6 470/1/6 478/1/6
f 477/2/6 469/2/6 478/2/6
f 470/3/6 471/3/6 479/3/6
f 478/1/6 470/1/6 479/1/6
f 471/2/6 472/2/6 480/2/6
f 479/3/6 471/3/6 480/3/6
f 480/2/6 472/2/6 481/2/6
f 481/2/6 472/2/6 482/2/6
f 472/3/6 473/3/6 483/3/6
f 482/2/6 472/2/6 483/2/6
f 473/2/6 474/2/6 484/2/6
f 483/3/6 473/3/6 484/3/6
f 474/2/6 475/2/6 484/2/6
f 484/2/6 475/2/6 485/2/6
f 475/3/6 476/3/6 486/3/6
f 485/2/6 475/2/6 486/2/6
f 477/4/6 478/4/6 487/4/6
f 478/2/6 479/2/6 488/2/6
f 487/4/6 478/4/6 488/4/6
f 480/2/6 481/2/6 488/2/6
f 479/2/6 480/2/6 488/2/6
f 482/2/6 483/2/6 489/2/6
f 484/2/6 485/2/6 489/2/6
f 483/2/6 484/2/6 489/2/6
f 485/3/6 486/3/6 490/3/6
f 489/2/6 485/2/6 490/2/6
f 486/3/6 476/3/6 491/3/6
f 490/3/6 486/3/6 491/3/6
f 488/2/6 481/2/6 492/2/6
f 487/2/6 488/2/6 492/2/6
f 481/3/6 482/3/6 493/3/6
f 492/2/6 481/2/6 493/2/6
f 482/2/6 489/2/6 494/2/6
f 493/3/6 482/3/6 494/3/6
f 489/4/6 490/4/6 495/4/6
f 494/2/6 489/2/6 495/2/6
f 490/2/6 491/2/6 496/2/6
f 495/4/6 490/4/6 496/4/6
f 491/3/6 476/3/6 497/3/6
f 496/2/6 491/2/6 497/2/6
f 497/3/6 476/3/6 498/3/6
f 487/2/6 492/2/6 499/2/6
f 492/4/6 493/4/6 500/4/6
f 499/2/6 492/2/6 500/2/6
f 493/2/6 494/2/6 501/2/6
f 500/4/6 493/4/6 501/4/6
f 494/1/6 495/1/6 502/1/6
f 501/2/6 494/2/6 502/2/6
f 495/2/6 496/2/6 503/2/6
f 502/1/6 495/1/6 503/1/6
f 496/4/6 497/4/6 504/4/6
f 503/2/6 496/2/6 504/2/6
f 497/2/6 498/2/6 505/2/6
f 504/4/6 497/4/6 505/4/6
f 487/2/6 499/2/6 506/2/6
f 499/3/6 500/3/6 507/3/6
f 506/2/6 499/2/6 507/2/6
f 500/2/6 501/2/6 508/2/6
f 507/3/6 500/3/6 508/3/6
f 501/4/6 502/4/6 509/4/6
f 508/2/6 501/2/6 509/2/6
f 502/2/6 503/2/6 510/2/6
f 509/4/6 502/4/6 510/4/6
f 503/1/6 504/1/6 511/1/6
f 510/2/6 503/2/6 511/2/6
f 504/3/6 505/3/6 512/3/6
f 511/1/6 504/1/6 512/1/6
f 505/2/6 498/2/6 513/2/6
f 512/3/6 505/3/6 513/3/6
f 513/2/6 498/2/6 514/2/6
