# MagicaVoxel @ Ephtracy

# group
o 

# material
mtllib 1.mtl
usemtl palette

# normals
vn -1 0 0
vn 1 0 0
vn 0 0 1
vn 0 0 -1
vn 0 -1 0
vn 0 1 0

# texcoords
vt 0.986328 0.5
vt 0.990234 0.5
vt 0.994141 0.5

# verts
v -1.9 0 3.9
v -1.9 0 -0.8
v -1.9 0 -0.9
v -1.9 0.2 3.7
v -1.9 0.2 3.6
v -1.9 0.2 2.9
v -1.9 0.2 2.8
v -1.9 0.2 2.2
v -1.9 0.2 2.1
v -1.9 0.2 1.6
v -1.9 0.2 1.5
v -1.9 0.2 0.9
v -1.9 0.2 0.8
v -1.9 0.2 0.2
v -1.9 0.2 0.0999999
v -1.9 0.3 3.9
v -1.9 0.3 3.7
v -1.9 0.3 3.6
v -1.9 0.3 2.9
v -1.9 0.3 2.8
v -1.9 0.3 2.2
v -1.9 0.3 2.1
v -1.9 0.3 1.6
v -1.9 0.3 1.5
v -1.9 0.3 0.9
v -1.9 0.3 0.8
v -1.9 0.3 0.2
v -1.9 0.3 0.0999999
v -1.9 0.3 -0.8
v -1.9 0.3 -0.9
v -1.8 0 4.3
v -1.8 0 3.9
v -1.8 0 -0.9
v -1.8 0 -1
v -1.8 0.1 4.3
v -1.8 0.1 4
v -1.8 0.3 3.9
v -1.8 0.3 3.7
v -1.8 0.3 3.6
v -1.8 0.3 2.9
v -1.8 0.3 2.8
v -1.8 0.3 2.2
v -1.8 0.3 2.1
v -1.8 0.3 1.6
v -1.8 0.3 1.5
v -1.8 0.3 0.9
v -1.8 0.3 0.8
v -1.8 0.3 0.2
v -1.8 0.3 0.0999999
v -1.8 0.3 -0.8
v -1.8 0.3 -0.9
v -1.8 0.3 -1
v -1.8 0.4 4
v -1.8 0.4 3.9
v -1.8 0.5 3.9
v -1.8 0.5 3.7
v -1.8 0.5 3.6
v -1.8 0.5 2.9
v -1.8 0.5 2.8
v -1.8 0.5 2.2
v -1.8 0.5 2.1
v -1.8 0.5 1.6
v -1.8 0.5 1.5
v -1.8 0.5 0.9
v -1.8 0.5 0.8
v -1.8 0.5 0.2
v -1.8 0.5 0.0999999
v -1.8 0.5 -0.8
v -1.7 0.1 4.4
v -1.7 0.1 4.3
v -1.7 0.1 4
v -1.7 0.1 3.9
v -1.7 0.1 2
v -1.7 0.2 4.4
v -1.7 0.2 4.1
v -1.7 0.2 3.9
v -1.7 0.2 3.7
v -1.7 0.2 3.6
v -1.7 0.2 2.9
v -1.7 0.2 2.8
v -1.7 0.2 2.2
v -1.7 0.2 2.1
v -1.7 0.2 2
v -1.7 0.4 4.1
v -1.7 0.4 4
v -1.7 0.4 3.9
v -1.7 0.5 3.9
v -1.7 0.5 3.7
v -1.7 0.5 3.6
v -1.7 0.5 2.9
v -1.7 0.5 2.8
v -1.7 0.5 2.2
v -1.7 0.5 2.1
v -1.7 0.5 1.6
v -1.7 0.5 1.5
v -1.7 0.5 0.9
v -1.7 0.5 0.8
v -1.7 0.5 0.2
v -1.7 0.5 0.0999999
v -1.7 0.5 -0.6
v -1.7 0.6 4
v -1.7 0.6 3.7
v -1.7 0.6 3.6
v -1.7 0.6 2.9
v -1.7 0.6 2.8
v -1.7 0.6 2.2
v -1.7 0.6 2.1
v -1.7 0.6 1.6
v -1.7 0.6 1.5
v -1.7 0.6 0.9
v -1.7 0.6 0.8
v -1.7 0.6 0.2
v -1.7 0.6 0.0999999
v -1.7 0.6 -0.6
v -1.6 0 -1
v -1.6 0 -1.3
v -1.6 0.2 4.2
v -1.6 0.2 4.1
v -1.6 0.3 -0.8
v -1.6 0.3 -1
v -1.6 0.3 -1.3
v -1.6 0.4 4.2
v -1.6 0.4 4.1
v -1.6 0.4 4
v -1.6 0.4 -0.8
v -1.6 0.4 -1
v -1.6 0.5 4.1
v -1.6 0.5 4
v -1.5 0 4.5
v -1.5 0 4.3
v -1.5 0 -1.3
v -1.5 0 -1.5
v -1.5 0.1 4.5
v -1.5 0.1 4.4
v -1.5 0.1 4.3
v -1.5 0.2 4.4
v -1.5 0.2 4.2
v -1.5 0.3 -1.3
v -1.5 0.3 -1.5
v -1.5 0.4 4.4
v -1.5 0.4 4.2
v -1.5 0.4 4.1
v -1.5 0.5 4.2
v -1.5 0.5 4.1
v -1.5 0.6 3.8
v -1.5 0.6 3.7
v -1.5 0.6 3.6
v -1.5 0.6 2.9
v -1.5 0.6 2.8
v -1.5 0.6 2.2
v -1.5 0.6 2.1
v -1.5 0.6 1.6
v -1.5 0.6 1.5
v -1.5 0.6 0.9
v -1.5 0.6 0.8
v -1.5 0.6 0.2
v -1.5 0.6 0.0999999
v -1.5 0.6 -0.5
v -1.5 0.7 3.8
v -1.5 0.7 3.7
v -1.5 0.7 3.6
v -1.5 0.7 2.9
v -1.5 0.7 2.8
v -1.5 0.7 2.2
v -1.5 0.7 2.1
v -1.5 0.7 1.6
v -1.5 0.7 1.5
v -1.5 0.7 0.9
v -1.5 0.7 0.8
v -1.5 0.7 0.2
v -1.5 0.7 0.0999999
v -1.5 0.7 -0.5
v -1.4 0 -1.5
v -1.4 0 -1.6
v -1.4 0.3 -1
v -1.4 0.3 -1.4
v -1.4 0.3 -1.5
v -1.4 0.3 -1.6
v -1.4 0.4 4.3
v -1.4 0.4 4.2
v -1.4 0.4 -1
v -1.4 0.4 -1.4
v -1.4 0.5 4.3
v -1.4 0.5 4.2
v -1.4 0.5 4.1
v -1.4 0.5 4
v -1.4 0.6 4.1
v -1.4 0.6 4
v -1.3 0 -1.6
v -1.3 0 -1.7
v -1.3 0.3 -1.6
v -1.3 0.3 -1.7
v -1.3 0.6 4
v -1.3 0.6 3.8
v -1.3 0.7 4
v -1.3 0.7 3.8
v -1.2 0.1 3.9
v -1.2 0.1 2
v -1.2 0.2 3.9
v -1.2 0.2 3.7
v -1.2 0.2 3.6
v -1.2 0.2 2.9
v -1.2 0.2 2.8
v -1.2 0.2 2.2
v -1.2 0.2 2.1
v -1.2 0.2 2
v -1.2 0.4 -0.8
v -1.2 0.4 -0.9
v -1.2 0.5 -0.8
v -1.2 0.5 -0.9
v -1.2 0.7 3.6
v -1.2 0.7 2.9
v -1.2 0.7 2.8
v -1.2 0.7 2.2
v -1.2 0.7 2.1
v -1.2 0.7 1.6
v -1.2 0.7 1.5
v -1.2 0.7 0.9
v -1.2 0.7 0.8
v -1.2 0.7 0.2
v -1.2 0.7 0.0999999
v -1.2 0.7 -4.76837e-07
v -1.2 0.8 3.6
v -1.2 0.8 2.9
v -1.2 0.8 2.8
v -1.2 0.8 2.2
v -1.2 0.8 2.1
v -1.2 0.8 1.6
v -1.2 0.8 1.5
v -1.2 0.8 0.9
v -1.2 0.8 0.8
v -1.2 0.8 0.2
v -1.2 0.8 0.0999999
v -1.2 0.8 -4.76837e-07
v -1.1 0 4.6
v -1.1 0 4.5
v -1.1 0 -1.7
v -1.1 0 -1.8
v -1.1 0.1 4.6
v -1.1 0.1 4.5
v -1.1 0.1 4.4
v -1.1 0.3 4.5
v -1.1 0.3 4.4
v -1.1 0.3 -1.7
v -1.1 0.3 -1.8
v -1.1 0.4 -0.9
v -1.1 0.4 -1.1
v -1.1 0.5 -0.9
v -1.1 0.5 -1.1
v -1 0.2 4.2
v -1 0.2 4
v -1 0.3 4.3
v -1 0.3 4.2
v -1 0.4 4.3
v -1 0.4 4
v -1 0.5 4.2
v -1 0.5 4.1
v -1 0.6 4.2
v -1 0.6 4.1
v -1 0.7 3.8
v -1 0.7 3.7
v -1 0.7 3.6
v -1 0.7 -4.76837e-07
v -1 0.7 -0.2
v -1 0.8 3.8
v -1 0.8 3.7
v -1 0.8 3.6
v -1 0.8 -4.76837e-07
v -1 0.8 -0.2
v -0.9 0.3 -1.4
v -0.9 0.3 -1.7
v -0.9 0.4 -1.1
v -0.9 0.4 -1.2
v -0.9 0.4 -1.4
v -0.9 0.4 -1.7
v -0.9 0.5 -1.1
v -0.9 0.5 -1.2
v -0.8 0 -1.8
v -0.8 0 -1.9
v -0.8 0.3 -1.8
v -0.8 0.3 -1.9
v -0.8 0.4 -1.2
v -0.8 0.4 -1.4
v -0.8 0.5 -1.2
v -0.8 0.5 -1.4
v -0.8 0.8 3.2
v -0.8 0.8 2.9
v -0.8 0.8 2.8
v -0.8 0.8 2.2
v -0.8 0.8 2.1
v -0.8 0.8 1.6
v -0.8 0.8 1.5
v -0.8 0.8 0.9
v -0.8 0.8 0.8
v -0.8 0.8 0.5
v -0.8 0.9 3.2
v -0.8 0.9 2.9
v -0.8 0.9 2.8
v -0.8 0.9 2.2
v -0.8 0.9 2.1
v -0.8 0.9 1.6
v -0.8 0.9 1.5
v -0.8 0.9 0.9
v -0.8 0.9 0.8
v -0.8 0.9 0.5
v -0.7 0.8 0.5
v -0.7 0.8 0.4
v -0.7 0.9 0.5
v -0.7 0.9 0.4
v -0.6 0.8 3.6
v -0.6 0.8 3.2
v -0.6 0.8 0.4
v -0.6 0.8 0.2
v -0.6 0.9 3.6
v -0.6 0.9 3.2
v -0.6 0.9 0.4
v -0.6 0.9 0.2
v -0.5 0.4 -1.4
v -0.5 0.4 -1.5
v -0.5 0.5 -1.4
v -0.5 0.5 -1.5
v -0.5 0.8 3.7
v -0.5 0.8 3.6
v -0.5 0.9 3.7
v -0.5 0.9 3.6
v -0.4 0 -1.9
v -0.4 0 -2
v -0.4 0.3 -1.9
v -0.4 0.3 -2
v -0.3 0.3 -1.7
v -0.3 0.3 -1.8
v -0.3 0.4 -1.7
v -0.3 0.4 -1.8
v 1.1 0.2 4.2
v 1.1 0.2 4.1
v 1.1 0.3 4.3
v 1.1 0.3 4.2
v 1.1 0.4 4.3
v 1.1 0.4 4.1
v 1.4 0.1 3.9
v 1.4 0.1 2
v 1.4 0.2 3.9
v 1.4 0.2 3.7
v 1.4 0.2 3.6
v 1.4 0.2 2.9
v 1.4 0.2 2.8
v 1.4 0.2 2.2
v 1.4 0.2 2.1
v 1.4 0.2 2
v 1.5 0.2 4.1
v 1.5 0.2 4
v 1.5 0.4 4.1
v 1.5 0.4 4
v 1.8 0.1 3.9
v 1.8 0.1 2
v 1.8 0.2 3.9
v 1.8 0.2 3.7
v 1.8 0.2 3.6
v 1.8 0.2 2.9
v 1.8 0.2 2.8
v 1.8 0.2 2.2
v 1.8 0.2 2.1
v 1.8 0.2 2
v -1.8 0.1 3.9
v -1.8 0.1 2
v -1.8 0.2 3.9
v -1.8 0.2 3.7
v -1.8 0.2 3.6
v -1.8 0.2 2.9
v -1.8 0.2 2.8
v -1.8 0.2 2.2
v -1.8 0.2 2.1
v -1.8 0.2 2
v -1.5 0.2 4.1
v -1.5 0.2 4
v -1.5 0.4 4.1
v -1.5 0.4 4
v -1.4 0.1 3.9
v -1.4 0.1 2
v -1.4 0.2 3.9
v -1.4 0.2 3.7
v -1.4 0.2 3.6
v -1.4 0.2 2.9
v -1.4 0.2 2.8
v -1.4 0.2 2.2
v -1.4 0.2 2.1
v -1.4 0.2 2
v -1.1 0.2 4.2
v -1.1 0.2 4.1
v -1.1 0.3 4.3
v -1.1 0.3 4.2
v -1.1 0.4 4.3
v -1.1 0.4 4.1
v 0.3 0.3 -1.7
v 0.3 0.3 -1.8
v 0.3 0.4 -1.7
v 0.3 0.4 -1.8
v 0.4 0 -1.9
v 0.4 0 -2
v 0.4 0.3 -1.9
v 0.4 0.3 -2
v 0.5 0.4 -1.4
v 0.5 0.4 -1.5
v 0.5 0.5 -1.4
v 0.5 0.5 -1.5
v 0.5 0.8 3.7
v 0.5 0.8 3.6
v 0.5 0.9 3.7
v 0.5 0.9 3.6
v 0.6 0.8 3.6
v 0.6 0.8 3.2
v 0.6 0.8 0.4
v 0.6 0.8 0.2
v 0.6 0.9 3.6
v 0.6 0.9 3.2
v 0.6 0.9 0.4
v 0.6 0.9 0.2
v 0.7 0.8 0.5
v 0.7 0.8 0.4
v 0.7 0.9 0.5
v 0.7 0.9 0.4
v 0.8 0 -1.8
v 0.8 0 -1.9
v 0.8 0.3 -1.8
v 0.8 0.3 -1.9
v 0.8 0.4 -1.2
v 0.8 0.4 -1.4
v 0.8 0.5 -1.2
v 0.8 0.5 -1.4
v 0.8 0.8 3.2
v 0.8 0.8 2.9
v 0.8 0.8 2.8
v 0.8 0.8 2.2
v 0.8 0.8 2.1
v 0.8 0.8 1.6
v 0.8 0.8 1.5
v 0.8 0.8 0.9
v 0.8 0.8 0.8
v 0.8 0.8 0.5
v 0.8 0.9 3.2
v 0.8 0.9 2.9
v 0.8 0.9 2.8
v 0.8 0.9 2.2
v 0.8 0.9 2.1
v 0.8 0.9 1.6
v 0.8 0.9 1.5
v 0.8 0.9 0.9
v 0.8 0.9 0.8
v 0.8 0.9 0.5
v 0.9 0.3 -1.4
v 0.9 0.3 -1.7
v 0.9 0.4 -1.1
v 0.9 0.4 -1.2
v 0.9 0.4 -1.4
v 0.9 0.4 -1.7
v 0.9 0.5 -1.1
v 0.9 0.5 -1.2
v 1 0.2 4.2
v 1 0.2 4
v 1 0.3 4.3
v 1 0.3 4.2
v 1 0.4 4.3
v 1 0.4 4
v 1 0.5 4.2
v 1 0.5 4.1
v 1 0.6 4.2
v 1 0.6 4.1
v 1 0.7 3.8
v 1 0.7 3.7
v 1 0.7 3.6
v 1 0.7 -4.76837e-07
v 1 0.7 -0.2
v 1 0.8 3.8
v 1 0.8 3.7
v 1 0.8 3.6
v 1 0.8 -4.76837e-07
v 1 0.8 -0.2
v 1.1 0 4.6
v 1.1 0 4.5
v 1.1 0 -1.7
v 1.1 0 -1.8
v 1.1 0.1 4.6
v 1.1 0.1 4.5
v 1.1 0.1 4.4
v 1.1 0.3 4.5
v 1.1 0.3 4.4
v 1.1 0.3 -1.7
v 1.1 0.3 -1.8
v 1.1 0.4 -0.9
v 1.1 0.4 -1.1
v 1.1 0.5 -0.9
v 1.1 0.5 -1.1
v 1.2 0.1 3.9
v 1.2 0.1 2
v 1.2 0.2 3.9
v 1.2 0.2 3.7
v 1.2 0.2 3.6
v 1.2 0.2 2.9
v 1.2 0.2 2.8
v 1.2 0.2 2.2
v 1.2 0.2 2.1
v 1.2 0.2 2
v 1.2 0.4 -0.8
v 1.2 0.4 -0.9
v 1.2 0.5 -0.8
v 1.2 0.5 -0.9
v 1.2 0.7 3.6
v 1.2 0.7 2.9
v 1.2 0.7 2.8
v 1.2 0.7 2.2
v 1.2 0.7 2.1
v 1.2 0.7 1.6
v 1.2 0.7 1.5
v 1.2 0.7 0.9
v 1.2 0.7 0.8
v 1.2 0.7 0.2
v 1.2 0.7 0.0999999
v 1.2 0.7 -4.76837e-07
v 1.2 0.8 3.6
v 1.2 0.8 2.9
v 1.2 0.8 2.8
v 1.2 0.8 2.2
v 1.2 0.8 2.1
v 1.2 0.8 1.6
v 1.2 0.8 1.5
v 1.2 0.8 0.9
v 1.2 0.8 0.8
v 1.2 0.8 0.2
v 1.2 0.8 0.0999999
v 1.2 0.8 -4.76837e-07
v 1.3 0 -1.6
v 1.3 0 -1.7
v 1.3 0.3 -1.6
v 1.3 0.3 -1.7
v 1.3 0.6 4
v 1.3 0.6 3.8
v 1.3 0.7 4
v 1.3 0.7 3.8
v 1.4 0 -1.5
v 1.4 0 -1.6
v 1.4 0.3 -1
v 1.4 0.3 -1.4
v 1.4 0.3 -1.5
v 1.4 0.3 -1.6
v 1.4 0.4 4.3
v 1.4 0.4 4.2
v 1.4 0.4 -1
v 1.4 0.4 -1.4
v 1.4 0.5 4.3
v 1.4 0.5 4.2
v 1.4 0.5 4.1
v 1.4 0.5 4
v 1.4 0.6 4.1
v 1.4 0.6 4
v 1.5 0 4.5
v 1.5 0 4.3
v 1.5 0 -1.3
v 1.5 0 -1.5
v 1.5 0.1 4.5
v 1.5 0.1 4.4
v 1.5 0.1 4.3
v 1.5 0.2 4.4
v 1.5 0.2 4.2
v 1.5 0.3 -1.3
v 1.5 0.3 -1.5
v 1.5 0.4 4.4
v 1.5 0.4 4.2
v 1.5 0.4 4.1
v 1.5 0.5 4.2
v 1.5 0.5 4.1
v 1.5 0.6 3.8
v 1.5 0.6 3.7
v 1.5 0.6 3.6
v 1.5 0.6 2.9
v 1.5 0.6 2.8
v 1.5 0.6 2.2
v 1.5 0.6 2.1
v 1.5 0.6 1.6
v 1.5 0.6 1.5
v 1.5 0.6 0.9
v 1.5 0.6 0.8
v 1.5 0.6 0.2
v 1.5 0.6 0.0999999
v 1.5 0.6 -0.5
v 1.5 0.7 3.8
v 1.5 0.7 3.7
v 1.5 0.7 3.6
v 1.5 0.7 2.9
v 1.5 0.7 2.8
v 1.5 0.7 2.2
v 1.5 0.7 2.1
v 1.5 0.7 1.6
v 1.5 0.7 1.5
v 1.5 0.7 0.9
v 1.5 0.7 0.8
v 1.5 0.7 0.2
v 1.5 0.7 0.0999999
v 1.5 0.7 -0.5
v 1.6 0 -1
v 1.6 0 -1.3
v 1.6 0.2 4.2
v 1.6 0.2 4.1
v 1.6 0.3 -0.8
v 1.6 0.3 -1
v 1.6 0.3 -1.3
v 1.6 0.4 4.2
v 1.6 0.4 4.1
v 1.6 0.4 4
v 1.6 0.4 -0.8
v 1.6 0.4 -1
v 1.6 0.5 4.1
v 1.6 0.5 4
v 1.7 0.1 4.4
v 1.7 0.1 4.3
v 1.7 0.1 4
v 1.7 0.1 3.9
v 1.7 0.1 2
v 1.7 0.2 4.4
v 1.7 0.2 4.1
v 1.7 0.2 3.9
v 1.7 0.2 3.7
v 1.7 0.2 3.6
v 1.7 0.2 2.9
v 1.7 0.2 2.8
v 1.7 0.2 2.2
v 1.7 0.2 2.1
v 1.7 0.2 2
v 1.7 0.4 4.1
v 1.7 0.4 4
v 1.7 0.4 3.9
v 1.7 0.5 3.9
v 1.7 0.5 3.7
v 1.7 0.5 3.6
v 1.7 0.5 2.9
v 1.7 0.5 2.8
v 1.7 0.5 2.2
v 1.7 0.5 2.1
v 1.7 0.5 1.6
v 1.7 0.5 1.5
v 1.7 0.5 0.9
v 1.7 0.5 0.8
v 1.7 0.5 0.2
v 1.7 0.5 0.0999999
v 1.7 0.5 -0.6
v 1.7 0.6 4
v 1.7 0.6 3.7
v 1.7 0.6 3.6
v 1.7 0.6 2.9
v 1.7 0.6 2.8
v 1.7 0.6 2.2
v 1.7 0.6 2.1
v 1.7 0.6 1.6
v 1.7 0.6 1.5
v 1.7 0.6 0.9
v 1.7 0.6 0.8
v 1.7 0.6 0.2
v 1.7 0.6 0.0999999
v 1.7 0.6 -0.6
v 1.8 0 4.3
v 1.8 0 3.9
v 1.8 0 -0.9
v 1.8 0 -1
v 1.8 0.1 4.3
v 1.8 0.1 4
v 1.8 0.3 3.9
v 1.8 0.3 3.7
v 1.8 0.3 3.6
v 1.8 0.3 2.9
v 1.8 0.3 2.8
v 1.8 0.3 2.2
v 1.8 0.3 2.1
v 1.8 0.3 1.6
v 1.8 0.3 1.5
v 1.8 0.3 0.9
v 1.8 0.3 0.8
v 1.8 0.3 0.2
v 1.8 0.3 0.0999999
v 1.8 0.3 -0.8
v 1.8 0.3 -0.9
v 1.8 0.3 -1
v 1.8 0.4 4
v 1.8 0.4 3.9
v 1.8 0.5 3.9
v 1.8 0.5 3.7
v 1.8 0.5 3.6
v 1.8 0.5 2.9
v 1.8 0.5 2.8
v 1.8 0.5 2.2
v 1.8 0.5 2.1
v 1.8 0.5 1.6
v 1.8 0.5 1.5
v 1.8 0.5 0.9
v 1.8 0.5 0.8
v 1.8 0.5 0.2
v 1.8 0.5 0.0999999
v 1.8 0.5 -0.8
v 1.9 0 3.9
v 1.9 0 -0.8
v 1.9 0 -0.9
v 1.9 0.2 3.7
v 1.9 0.2 3.6
v 1.9 0.2 2.9
v 1.9 0.2 2.8
v 1.9 0.2 2.2
v 1.9 0.2 2.1
v 1.9 0.2 1.6
v 1.9 0.2 1.5
v 1.9 0.2 0.9
v 1.9 0.2 0.8
v 1.9 0.2 0.2
v 1.9 0.2 0.0999999
v 1.9 0.3 3.9
v 1.9 0.3 3.7
v 1.9 0.3 3.6
v 1.9 0.3 2.9
v 1.9 0.3 2.8
v 1.9 0.3 2.2
v 1.9 0.3 2.1
v 1.9 0.3 1.6
v 1.9 0.3 1.5
v 1.9 0.3 0.9
v 1.9 0.3 0.8
v 1.9 0.3 0.2
v 1.9 0.3 0.0999999
v 1.9 0.3 -0.8
v 1.9 0.3 -0.9
v -1.1 0 4.6
v -1.1 0.1 4.6
v 1.1 0 4.6
v 1.1 0.1 4.6
v -1.5 0 4.5
v -1.5 0.1 4.5
v -1.1 0 4.5
v -1.1 0.1 4.5
v -1.1 0.3 4.5
v 1.1 0 4.5
v 1.1 0.1 4.5
v 1.1 0.3 4.5
v 1.5 0 4.5
v 1.5 0.1 4.5
v -1.7 0.1 4.4
v -1.7 0.2 4.4
v -1.5 0.1 4.4
v -1.5 0.2 4.4
v -1.5 0.4 4.4
v -1.1 0.1 4.4
v -1.1 0.3 4.4
v 1.1 0.1 4.4
v 1.1 0.3 4.4
v 1.5 0.1 4.4
v 1.5 0.2 4.4
v 1.5 0.4 4.4
v 1.7 0.1 4.4
v 1.7 0.2 4.4
v -1.8 0 4.3
v -1.8 0.1 4.3
v -1.7 0.1 4.3
v -1.5 0 4.3
v -1.5 0.1 4.3
v -1.4 0.4 4.3
v -1.4 0.5 4.3
v 1.4 0.4 4.3
v 1.4 0.5 4.3
v 1.5 0 4.3
v 1.5 0.1 4.3
v 1.7 0.1 4.3
v 1.8 0 4.3
v 1.8 0.1 4.3
v -1.6 0.2 4.2
v -1.6 0.4 4.2
v -1.5 0.2 4.2
v -1.5 0.4 4.2
v -1.5 0.5 4.2
v -1.4 0.4 4.2
v -1.4 0.5 4.2
v -1 0.5 4.2
v -1 0.6 4.2
v 1 0.5 4.2
v 1 0.6 4.2
v 1.4 0.4 4.2
v 1.4 0.5 4.2
v 1.5 0.2 4.2
v 1.5 0.4 4.2
v 1.5 0.5 4.2
v 1.6 0.2 4.2
v 1.6 0.4 4.2
v -1.7 0.2 4.1
v -1.7 0.4 4.1
v -1.6 0.2 4.1
v -1.6 0.4 4.1
v -1.6 0.5 4.1
v -1.5 0.4 4.1
v -1.5 0.5 4.1
v -1.4 0.5 4.1
v -1.4 0.6 4.1
v -1 0.5 4.1
v -1 0.6 4.1
v 1 0.5 4.1
v 1 0.6 4.1
v 1.4 0.5 4.1
v 1.4 0.6 4.1
v 1.5 0.4 4.1
v 1.5 0.5 4.1
v 1.6 0.2 4.1
v 1.6 0.4 4.1
v 1.6 0.5 4.1
v 1.7 0.2 4.1
v 1.7 0.4 4.1
v -1.8 0.1 4
v -1.8 0.4 4
v -1.7 0.1 4
v -1.7 0.4 4
v -1.7 0.6 4
v -1.6 0.4 4
v -1.6 0.5 4
v -1.5 0.2 4
v -1.5 0.4 4
v -1.4 0.5 4
v -1.4 0.6 4
v -1.3 0.6 4
v -1.3 0.7 4
v -1 0.2 4
v -1 0.4 4
v 1 0.2 4
v 1 0.4 4
v 1.3 0.6 4
v 1.3 0.7 4
v 1.4 0.5 4
v 1.4 0.6 4
v 1.5 0.2 4
v 1.5 0.4 4
v 1.6 0.4 4
v 1.6 0.5 4
v 1.7 0.1 4
v 1.7 0.4 4
v 1.7 0.6 4
v 1.8 0.1 4
v 1.8 0.4 4
v -1.9 0 3.9
v -1.9 0.3 3.9
v -1.8 0 3.9
v -1.8 0.3 3.9
v -1.8 0.4 3.9
v -1.8 0.5 3.9
v -1.7 0.4 3.9
v -1.7 0.5 3.9
v 1.7 0.4 3.9
v 1.7 0.5 3.9
v 1.8 0 3.9
v 1.8 0.3 3.9
v 1.8 0.4 3.9
v 1.8 0.5 3.9
v 1.9 0 3.9
v 1.9 0.3 3.9
v -1.5 0.6 3.8
v -1.5 0.7 3.8
v -1.3 0.6 3.8
v -1.3 0.7 3.8
v -1 0.7 3.8
v -1 0.8 3.8
v 1 0.7 3.8
v 1 0.8 3.8
v 1.3 0.6 3.8
v 1.3 0.7 3.8
v 1.5 0.6 3.8
v 1.5 0.7 3.8
v -0.5 0.8 3.7
v -0.5 0.9 3.7
v 0.5 0.8 3.7
v 0.5 0.9 3.7
v -1.2 0.7 3.6
v -1.2 0.8 3.6
v -1 0.7 3.6
v -1 0.8 3.6
v -0.6 0.8 3.6
v -0.6 0.9 3.6
v -0.5 0.8 3.6
v -0.5 0.9 3.6
v 0.5 0.8 3.6
v 0.5 0.9 3.6
v 0.6 0.8 3.6
v 0.6 0.9 3.6
v 1 0.7 3.6
v 1 0.8 3.6
v 1.2 0.7 3.6
v 1.2 0.8 3.6
v -0.8 0.8 3.2
v -0.8 0.9 3.2
v -0.6 0.8 3.2
v -0.6 0.9 3.2
v 0.6 0.8 3.2
v 0.6 0.9 3.2
v 0.8 0.8 3.2
v 0.8 0.9 3.2
v -1.8 0.1 2
v -1.8 0.2 2
v -1.7 0.1 2
v -1.7 0.2 2
v -1.4 0.1 2
v -1.4 0.2 2
v -1.2 0.1 2
v -1.2 0.2 2
v 1.2 0.1 2
v 1.2 0.2 2
v 1.4 0.1 2
v 1.4 0.2 2
v 1.7 0.1 2
v 1.7 0.2 2
v 1.8 0.1 2
v 1.8 0.2 2
v -1.1 0.3 4.3
v -1.1 0.4 4.3
v -1 0.3 4.3
v -1 0.4 4.3
v 1 0.3 4.3
v 1 0.4 4.3
v 1.1 0.3 4.3
v 1.1 0.4 4.3
v -1.1 0.2 4.2
v -1.1 0.3 4.2
v -1 0.2 4.2
v -1 0.3 4.2
v 1 0.2 4.2
v 1 0.3 4.2
v 1.1 0.2 4.2
v 1.1 0.3 4.2
v -1.5 0.2 4.1
v -1.5 0.4 4.1
v -1.1 0.2 4.1
v -1.1 0.4 4.1
v 1.1 0.2 4.1
v 1.1 0.4 4.1
v 1.5 0.2 4.1
v 1.5 0.4 4.1
v -1.8 0.1 3.9
v -1.8 0.2 3.9
v -1.7 0.1 3.9
v -1.7 0.2 3.9
v -1.4 0.1 3.9
v -1.4 0.2 3.9
v -1.2 0.1 3.9
v -1.2 0.2 3.9
v 1.2 0.1 3.9
v 1.2 0.2 3.9
v 1.4 0.1 3.9
v 1.4 0.2 3.9
v 1.7 0.1 3.9
v 1.7 0.2 3.9
v 1.8 0.1 3.9
v 1.8 0.2 3.9
v -0.8 0.8 0.5
v -0.8 0.9 0.5
v -0.7 0.8 0.5
v -0.7 0.9 0.5
v 0.7 0.8 0.5
v 0.7 0.9 0.5
v 0.8 0.8 0.5
v 0.8 0.9 0.5
v -0.7 0.8 0.4
v -0.7 0.9 0.4
v -0.6 0.8 0.4
v -0.6 0.9 0.4
v 0.6 0.8 0.4
v 0.6 0.9 0.4
v 0.7 0.8 0.4
v 0.7 0.9 0.4
v -0.6 0.8 0.2
v -0.6 0.9 0.2
v 0.6 0.8 0.2
v 0.6 0.9 0.2
v -1.2 0.7 -4.76837e-07
v -1.2 0.8 -4.76837e-07
v -1 0.7 -4.76837e-07
v -1 0.8 -4.76837e-07
v 1 0.7 -4.76837e-07
v 1 0.8 -4.76837e-07
v 1.2 0.7 -4.76837e-07
v 1.2 0.8 -4.76837e-07
v -1 0.7 -0.2
v -1 0.8 -0.2
v 1 0.7 -0.2
v 1 0.8 -0.2
v -1.5 0.6 -0.5
v -1.5 0.7 -0.5
v 1.5 0.6 -0.5
v 1.5 0.7 -0.5
v -1.7 0.5 -0.6
v -1.7 0.6 -0.6
v 1.7 0.5 -0.6
v 1.7 0.6 -0.6
v -1.8 0.3 -0.8
v -1.8 0.5 -0.8
v -1.6 0.3 -0.8
v -1.6 0.4 -0.8
v -1.2 0.4 -0.8
v -1.2 0.5 -0.8
v 1.2 0.4 -0.8
v 1.2 0.5 -0.8
v 1.6 0.3 -0.8
v 1.6 0.4 -0.8
v 1.8 0.3 -0.8
v 1.8 0.5 -0.8
v -1.9 0 -0.9
v -1.9 0.3 -0.9
v -1.8 0 -0.9
v -1.8 0.3 -0.9
v -1.2 0.4 -0.9
v -1.2 0.5 -0.9
v -1.1 0.4 -0.9
v -1.1 0.5 -0.9
v 1.1 0.4 -0.9
v 1.1 0.5 -0.9
v 1.2 0.4 -0.9
v 1.2 0.5 -0.9
v 1.8 0 -0.9
v 1.8 0.3 -0.9
v 1.9 0 -0.9
v 1.9 0.3 -0.9
v -1.8 0 -1
v -1.8 0.3 -1
v -1.6 0 -1
v -1.6 0.3 -1
v -1.6 0.4 -1
v -1.4 0.3 -1
v -1.4 0.4 -1
v 1.4 0.3 -1
v 1.4 0.4 -1
v 1.6 0 -1
v 1.6 0.3 -1
v 1.6 0.4 -1
v 1.8 0 -1
v 1.8 0.3 -1
v -1.1 0.4 -1.1
v -1.1 0.5 -1.1
v -0.9 0.4 -1.1
v -0.9 0.5 -1.1
v 0.9 0.4 -1.1
v 0.9 0.5 -1.1
v 1.1 0.4 -1.1
v 1.1 0.5 -1.1
v -0.9 0.4 -1.2
v -0.9 0.5 -1.2
v -0.8 0.4 -1.2
v -0.8 0.5 -1.2
v 0.8 0.4 -1.2
v 0.8 0.5 -1.2
v 0.9 0.4 -1.2
v 0.9 0.5 -1.2
v -1.6 0 -1.3
v -1.6 0.3 -1.3
v -1.5 0 -1.3
v -1.5 0.3 -1.3
v 1.5 0 -1.3
v 1.5 0.3 -1.3
v 1.6 0 -1.3
v 1.6 0.3 -1.3
v -1.4 0.3 -1.4
v -1.4 0.4 -1.4
v -0.9 0.3 -1.4
v -0.9 0.4 -1.4
v -0.8 0.4 -1.4
v -0.8 0.5 -1.4
v -0.5 0.4 -1.4
v -0.5 0.5 -1.4
v 0.5 0.4 -1.4
v 0.5 0.5 -1.4
v 0.8 0.4 -1.4
v 0.8 0.5 -1.4
v 0.9 0.3 -1.4
v 0.9 0.4 -1.4
v 1.4 0.3 -1.4
v 1.4 0.4 -1.4
v -1.5 0 -1.5
v -1.5 0.3 -1.5
v -1.4 0 -1.5
v -1.4 0.3 -1.5
v -0.5 0.4 -1.5
v -0.5 0.5 -1.5
v 0.5 0.4 -1.5
v 0.5 0.5 -1.5
v 1.4 0 -1.5
v 1.4 0.3 -1.5
v 1.5 0 -1.5
v 1.5 0.3 -1.5
v -1.4 0 -1.6
v -1.4 0.3 -1.6
v -1.3 0 -1.6
v -1.3 0.3 -1.6
v 1.3 0 -1.6
v 1.3 0.3 -1.6
v 1.4 0 -1.6
v 1.4 0.3 -1.6
v -1.3 0 -1.7
v -1.3 0.3 -1.7
v -1.1 0 -1.7
v -1.1 0.3 -1.7
v -0.9 0.3 -1.7
v -0.9 0.4 -1.7
v -0.3 0.3 -1.7
v -0.3 0.4 -1.7
v 0.3 0.3 -1.7
v 0.3 0.4 -1.7
v 0.9 0.3 -1.7
v 0.9 0.4 -1.7
v 1.1 0 -1.7
v 1.1 0.3 -1.7
v 1.3 0 -1.7
v 1.3 0.3 -1.7
v -1.1 0 -1.8
v -1.1 0.3 -1.8
v -0.8 0 -1.8
v -0.8 0.3 -1.8
v -0.3 0.3 -1.8
v -0.3 0.4 -1.8
v 0.3 0.3 -1.8
v 0.3 0.4 -1.8
v 0.8 0 -1.8
v 0.8 0.3 -1.8
v 1.1 0 -1.8
v 1.1 0.3 -1.8
v -0.8 0 -1.9
v -0.8 0.3 -1.9
v -0.4 0 -1.9
v -0.4 0.3 -1.9
v 0.4 0 -1.9
v 0.4 0.3 -1.9
v 0.8 0 -1.9
v 0.8 0.3 -1.9
v -0.4 0 -2
v -0.4 0.3 -2
v 0.4 0 -2
v 0.4 0.3 -2
v -1.1 0 4.6
v 1.1 0 4.6
v -1.5 0 4.5
v -1.1 0 4.5
v 1.1 0 4.5
v 1.5 0 4.5
v -1.8 0 4.3
v -1.5 0 4.3
v 1.5 0 4.3
v 1.8 0 4.3
v -1.9 0 3.9
v -1.8 0 3.9
v 1.8 0 3.9
v 1.9 0 3.9
v -1.9 0 -0.8
v 1.9 0 -0.8
v -1.9 0 -0.9
v -1.8 0 -0.9
v 1.8 0 -0.9
v 1.9 0 -0.9
v -1.8 0 -1
v -1.6 0 -1
v 1.6 0 -1
v 1.8 0 -1
v -1.6 0 -1.3
v -1.5 0 -1.3
v 1.5 0 -1.3
v 1.6 0 -1.3
v -1.5 0 -1.5
v -1.4 0 -1.5
v 1.4 0 -1.5
v 1.5 0 -1.5
v -1.4 0 -1.6
v -1.3 0 -1.6
v 1.3 0 -1.6
v 1.4 0 -1.6
v -1.3 0 -1.7
v -1.1 0 -1.7
v 1.1 0 -1.7
v 1.3 0 -1.7
v -1.1 0 -1.8
v -0.8 0 -1.8
v 0.8 0 -1.8
v 1.1 0 -1.8
v -0.8 0 -1.9
v -0.4 0 -1.9
v 0.4 0 -1.9
v 0.8 0 -1.9
v -0.4 0 -2
v 0.4 0 -2
v -1.7 0.1 4.4
v -1.5 0.1 4.4
v 1.5 0.1 4.4
v 1.7 0.1 4.4
v -1.7 0.1 4.3
v -1.5 0.1 4.3
v 1.5 0.1 4.3
v 1.7 0.1 4.3
v -1.8 0.2 3.9
v -1.7 0.2 3.9
v -1.4 0.2 3.9
v -1.2 0.2 3.9
v 1.2 0.2 3.9
v 1.4 0.2 3.9
v 1.7 0.2 3.9
v 1.8 0.2 3.9
v -1.8 0.2 3.7
v -1.7 0.2 3.7
v -1.4 0.2 3.7
v -1.2 0.2 3.7
v 1.2 0.2 3.7
v 1.4 0.2 3.7
v 1.7 0.2 3.7
v 1.8 0.2 3.7
v -1.8 0.2 3.6
v -1.7 0.2 3.6
v -1.4 0.2 3.6
v -1.2 0.2 3.6
v 1.2 0.2 3.6
v 1.4 0.2 3.6
v 1.7 0.2 3.6
v 1.8 0.2 3.6
v -1.8 0.2 2.9
v -1.7 0.2 2.9
v -1.4 0.2 2.9
v -1.2 0.2 2.9
v 1.2 0.2 2.9
v 1.4 0.2 2.9
v 1.7 0.2 2.9
v 1.8 0.2 2.9
v -1.8 0.2 2.8
v -1.7 0.2 2.8
v -1.4 0.2 2.8
v -1.2 0.2 2.8
v 1.2 0.2 2.8
v 1.4 0.2 2.8
v 1.7 0.2 2.8
v 1.8 0.2 2.8
v -1.8 0.2 2.2
v -1.7 0.2 2.2
v -1.4 0.2 2.2
v -1.2 0.2 2.2
v 1.2 0.2 2.2
v 1.4 0.2 2.2
v 1.7 0.2 2.2
v 1.8 0.2 2.2
v -1.8 0.2 2.1
v -1.7 0.2 2.1
v -1.4 0.2 2.1
v -1.2 0.2 2.1
v 1.2 0.2 2.1
v 1.4 0.2 2.1
v 1.7 0.2 2.1
v 1.8 0.2 2.1
v -1.8 0.2 2
v -1.7 0.2 2
v -1.4 0.2 2
v -1.2 0.2 2
v 1.2 0.2 2
v 1.4 0.2 2
v 1.7 0.2 2
v 1.8 0.2 2
v -1.1 0.4 4.3
v -1 0.4 4.3
v 1 0.4 4.3
v 1.1 0.4 4.3
v -1.5 0.4 4.1
v -1.1 0.4 4.1
v 1.1 0.4 4.1
v 1.5 0.4 4.1
v -1.5 0.4 4
v -1 0.4 4
v 1 0.4 4
v 1.5 0.4 4
v -1.1 0.1 4.6
v 1.1 0.1 4.6
v -1.5 0.1 4.5
v -1.1 0.1 4.5
v 1.1 0.1 4.5
v 1.5 0.1 4.5
v -1.5 0.1 4.4
v -1.1 0.1 4.4
v 1.1 0.1 4.4
v 1.5 0.1 4.4
v -1.8 0.1 4.3
v -1.7 0.1 4.3
v 1.7 0.1 4.3
v 1.8 0.1 4.3
v -1.8 0.1 4
v -1.7 0.1 4
v 1.7 0.1 4
v 1.8 0.1 4
v -1.8 0.1 3.9
v -1.7 0.1 3.9
v -1.4 0.1 3.9
v -1.2 0.1 3.9
v 1.2 0.1 3.9
v 1.4 0.1 3.9
v 1.7 0.1 3.9
v 1.8 0.1 3.9
v -1.8 0.1 2
v -1.7 0.1 2
v -1.4 0.1 2
v -1.2 0.1 2
v 1.2 0.1 2
v 1.4 0.1 2
v 1.7 0.1 2
v 1.8 0.1 2
v -1.7 0.2 4.4
v -1.5 0.2 4.4
v 1.5 0.2 4.4
v 1.7 0.2 4.4
v -1.6 0.2 4.2
v -1.5 0.2 4.2
v -1.1 0.2 4.2
v -1 0.2 4.2
v 1 0.2 4.2
v 1.1 0.2 4.2
v 1.5 0.2 4.2
v 1.6 0.2 4.2
v -1.7 0.2 4.1
v -1.6 0.2 4.1
v -1.5 0.2 4.1
v -1.1 0.2 4.1
v 1.1 0.2 4.1
v 1.5 0.2 4.1
v 1.6 0.2 4.1
v 1.7 0.2 4.1
v -1.5 0.2 4
v -1 0.2 4
v 1 0.2 4
v 1.5 0.2 4
v -1.1 0.3 4.5
v 1.1 0.3 4.5
v -1.1 0.3 4.4
v 1.1 0.3 4.4
v -1.1 0.3 4.3
v -1 0.3 4.3
v 1 0.3 4.3
v 1.1 0.3 4.3
v -1.1 0.3 4.2
v -1 0.3 4.2
v 1 0.3 4.2
v 1.1 0.3 4.2
v -1.9 0.3 3.9
v -1.8 0.3 3.9
v 1.8 0.3 3.9
v 1.9 0.3 3.9
v -1.9 0.3 3.7
v -1.8 0.3 3.7
v 1.8 0.3 3.7
v 1.9 0.3 3.7
v -1.9 0.3 3.6
v -1.8 0.3 3.6
v 1.8 0.3 3.6
v 1.9 0.3 3.6
v -1.9 0.3 2.9
v -1.8 0.3 2.9
v 1.8 0.3 2.9
v 1.9 0.3 2.9
v -1.9 0.3 2.8
v -1.8 0.3 2.8
v 1.8 0.3 2.8
v 1.9 0.3 2.8
v -1.9 0.3 2.2
v -1.8 0.3 2.2
v 1.8 0.3 2.2
v 1.9 0.3 2.2
v -1.9 0.3 2.1
v -1.8 0.3 2.1
v 1.8 0.3 2.1
v 1.9 0.3 2.1
v -1.9 0.3 1.6
v -1.8 0.3 1.6
v 1.8 0.3 1.6
v 1.9 0.3 1.6
v -1.9 0.3 1.5
v -1.8 0.3 1.5
v 1.8 0.3 1.5
v 1.9 0.3 1.5
v -1.9 0.3 0.9
v -1.8 0.3 0.9
v 1.8 0.3 0.9
v 1.9 0.3 0.9
v -1.9 0.3 0.8
v -1.8 0.3 0.8
v 1.8 0.3 0.8
v 1.9 0.3 0.8
v -1.9 0.3 0.2
v -1.8 0.3 0.2
v 1.8 0.3 0.2
v 1.9 0.3 0.2
v -1.9 0.3 0.0999999
v -1.8 0.3 0.0999999
v 1.8 0.3 0.0999999
v 1.9 0.3 0.0999999
v -1.9 0.3 -0.8
v -1.8 0.3 -0.8
v -1.6 0.3 -0.8
v 1.6 0.3 -0.8
v 1.8 0.3 -0.8
v 1.9 0.3 -0.8
v -1.9 0.3 -0.9
v -1.8 0.3 -0.9
v 1.8 0.3 -0.9
v 1.9 0.3 -0.9
v -1.8 0.3 -1
v -1.6 0.3 -1
v -1.4 0.3 -1
v 1.4 0.3 -1
v 1.6 0.3 -1
v 1.8 0.3 -1
v -1.6 0.3 -1.3
v -1.5 0.3 -1.3
v 1.5 0.3 -1.3
v 1.6 0.3 -1.3
v -1.4 0.3 -1.4
v -0.9 0.3 -1.4
v 0.9 0.3 -1.4
v 1.4 0.3 -1.4
v -1.5 0.3 -1.5
v -1.4 0.3 -1.5
v 1.4 0.3 -1.5
v 1.5 0.3 -1.5
v -1.4 0.3 -1.6
v -1.3 0.3 -1.6
v 1.3 0.3 -1.6
v 1.4 0.3 -1.6
v -1.3 0.3 -1.7
v -1.1 0.3 -1.7
v -0.9 0.3 -1.7
v -0.3 0.3 -1.7
v 0.3 0.3 -1.7
v 0.9 0.3 -1.7
v 1.1 0.3 -1.7
v 1.3 0.3 -1.7
v -1.1 0.3 -1.8
v -0.8 0.3 -1.8
v -0.3 0.3 -1.8
v 0.3 0.3 -1.8
v 0.8 0.3 -1.8
v 1.1 0.3 -1.8
v -0.8 0.3 -1.9
v -0.4 0.3 -1.9
v 0.4 0.3 -1.9
v 0.8 0.3 -1.9
v -0.4 0.3 -2
v 0.4 0.3 -2
v -1.5 0.4 4.4
v 1.5 0.4 4.4
v -1.4 0.4 4.3
v 1.4 0.4 4.3
v -1.6 0.4 4.2
v -1.5 0.4 4.2
v -1.4 0.4 4.2
v 1.4 0.4 4.2
v 1.5 0.4 4.2
v 1.6 0.4 4.2
v -1.7 0.4 4.1
v -1.6 0.4 4.1
v -1.5 0.4 4.1
v 1.5 0.4 4.1
v 1.6 0.4 4.1
v 1.7 0.4 4.1
v -1.8 0.4 4
v -1.7 0.4 4
v -1.6 0.4 4
v 1.6 0.4 4
v 1.7 0.4 4
v 1.8 0.4 4
v -1.8 0.4 3.9
v -1.7 0.4 3.9
v 1.7 0.4 3.9
v 1.8 0.4 3.9
v -1.6 0.4 -0.8
v -1.2 0.4 -0.8
v 1.2 0.4 -0.8
v 1.6 0.4 -0.8
v -1.2 0.4 -0.9
v -1.1 0.4 -0.9
v 1.1 0.4 -0.9
v 1.2 0.4 -0.9
v -1.6 0.4 -1
v -1.4 0.4 -1
v 1.4 0.4 -1
v 1.6 0.4 -1
v -1.1 0.4 -1.1
v -0.9 0.4 -1.1
v 0.9 0.4 -1.1
v 1.1 0.4 -1.1
v -0.9 0.4 -1.2
v -0.8 0.4 -1.2
v 0.8 0.4 -1.2
v 0.9 0.4 -1.2
v -1.4 0.4 -1.4
v -0.9 0.4 -1.4
v -0.8 0.4 -1.4
v -0.5 0.4 -1.4
v 0.5 0.4 -1.4
v 0.8 0.4 -1.4
v 0.9 0.4 -1.4
v 1.4 0.4 -1.4
v -0.5 0.4 -1.5
v 0.5 0.4 -1.5
v -0.9 0.4 -1.7
v -0.3 0.4 -1.7
v 0.3 0.4 -1.7
v 0.9 0.4 -1.7
v -0.3 0.4 -1.8
v 0.3 0.4 -1.8
v -1.4 0.5 4.3
v 1.4 0.5 4.3
v -1.5 0.5 4.2
v -1.4 0.5 4.2
v -1 0.5 4.2
v 1 0.5 4.2
v 1.4 0.5 4.2
v 1.5 0.5 4.2
v -1.6 0.5 4.1
v -1.5 0.5 4.1
v -1.4 0.5 4.1
v -1 0.5 4.1
v 1 0.5 4.1
v 1.4 0.5 4.1
v 1.5 0.5 4.1
v 1.6 0.5 4.1
v -1.6 0.5 4
v -1.4 0.5 4
v 1.4 0.5 4
v 1.6 0.5 4
v -1.8 0.5 3.9
v -1.7 0.5 3.9
v 1.7 0.5 3.9
v 1.8 0.5 3.9
v -1.8 0.5 3.7
v -1.7 0.5 3.7
v 1.7 0.5 3.7
v 1.8 0.5 3.7
v -1.8 0.5 3.6
v -1.7 0.5 3.6
v 1.7 0.5 3.6
v 1.8 0.5 3.6
v -1.8 0.5 2.9
v -1.7 0.5 2.9
v 1.7 0.5 2.9
v 1.8 0.5 2.9
v -1.8 0.5 2.8
v -1.7 0.5 2.8
v 1.7 0.5 2.8
v 1.8 0.5 2.8
v -1.8 0.5 2.2
v -1.7 0.5 2.2
v 1.7 0.5 2.2
v 1.8 0.5 2.2
v -1.8 0.5 2.1
v -1.7 0.5 2.1
v 1.7 0.5 2.1
v 1.8 0.5 2.1
v -1.8 0.5 1.6
v -1.7 0.5 1.6
v 1.7 0.5 1.6
v 1.8 0.5 1.6
v -1.8 0.5 1.5
v -1.7 0.5 1.5
v 1.7 0.5 1.5
v 1.8 0.5 1.5
v -1.8 0.5 0.9
v -1.7 0.5 0.9
v 1.7 0.5 0.9
v 1.8 0.5 0.9
v -1.8 0.5 0.8
v -1.7 0.5 0.8
v 1.7 0.5 0.8
v 1.8 0.5 0.8
v -1.8 0.5 0.2
v -1.7 0.5 0.2
v 1.7 0.5 0.2
v 1.8 0.5 0.2
v -1.8 0.5 0.0999999
v -1.7 0.5 0.0999999
v 1.7 0.5 0.0999999
v 1.8 0.5 0.0999999
v -1.7 0.5 -0.6
v 1.7 0.5 -0.6
v -1.8 0.5 -0.8
v -1.2 0.5 -0.8
v 1.2 0.5 -0.8
v 1.8 0.5 -0.8
v -1.2 0.5 -0.9
v -1.1 0.5 -0.9
v 1.1 0.5 -0.9
v 1.2 0.5 -0.9
v -1.1 0.5 -1.1
v -0.9 0.5 -1.1
v 0.9 0.5 -1.1
v 1.1 0.5 -1.1
v -0.9 0.5 -1.2
v -0.8 0.5 -1.2
v 0.8 0.5 -1.2
v 0.9 0.5 -1.2
v -0.8 0.5 -1.4
v -0.5 0.5 -1.4
v 0.5 0.5 -1.4
v 0.8 0.5 -1.4
v -0.5 0.5 -1.5
v 0.5 0.5 -1.5
v -1 0.6 4.2
v 1 0.6 4.2
v -1.4 0.6 4.1
v -1 0.6 4.1
v 1 0.6 4.1
v 1.4 0.6 4.1
v -1.7 0.6 4
v -1.4 0.6 4
v -1.3 0.6 4
v 1.3 0.6 4
v 1.4 0.6 4
v 1.7 0.6 4
v -1.5 0.6 3.8
v -1.3 0.6 3.8
v 1.3 0.6 3.8
v 1.5 0.6 3.8
v -1.7 0.6 3.7
v -1.5 0.6 3.7
v 1.5 0.6 3.7
v 1.7 0.6 3.7
v -1.7 0.6 3.6
v -1.5 0.6 3.6
v 1.5 0.6 3.6
v 1.7 0.6 3.6
v -1.7 0.6 2.9
v -1.5 0.6 2.9
v 1.5 0.6 2.9
v 1.7 0.6 2.9
v -1.7 0.6 2.8
v -1.5 0.6 2.8
v 1.5 0.6 2.8
v 1.7 0.6 2.8
v -1.7 0.6 2.2
v -1.5 0.6 2.2
v 1.5 0.6 2.2
v 1.7 0.6 2.2
v -1.7 0.6 2.1
v -1.5 0.6 2.1
v 1.5 0.6 2.1
v 1.7 0.6 2.1
v -1.7 0.6 1.6
v -1.5 0.6 1.6
v 1.5 0.6 1.6
v 1.7 0.6 1.6
v -1.7 0.6 1.5
v -1.5 0.6 1.5
v 1.5 0.6 1.5
v 1.7 0.6 1.5
v -1.7 0.6 0.9
v -1.5 0.6 0.9
v 1.5 0.6 0.9
v 1.7 0.6 0.9
v -1.7 0.6 0.8
v -1.5 0.6 0.8
v 1.5 0.6 0.8
v 1.7 0.6 0.8
v -1.7 0.6 0.2
v -1.5 0.6 0.2
v 1.5 0.6 0.2
v 1.7 0.6 0.2
v -1.7 0.6 0.0999999
v -1.5 0.6 0.0999999
v 1.5 0.6 0.0999999
v 1.7 0.6 0.0999999
v -1.5 0.6 -0.5
v 1.5 0.6 -0.5
v -1.7 0.6 -0.6
v 1.7 0.6 -0.6
v -1.3 0.7 4
v 1.3 0.7 4
v -1.5 0.7 3.8
v -1.3 0.7 3.8
v -1 0.7 3.8
v 1 0.7 3.8
v 1.3 0.7 3.8
v 1.5 0.7 3.8
v -1.5 0.7 3.7
v -1 0.7 3.7
v 1 0.7 3.7
v 1.5 0.7 3.7
v -1.5 0.7 3.6
v -1.2 0.7 3.6
v -1 0.7 3.6
v 1 0.7 3.6
v 1.2 0.7 3.6
v 1.5 0.7 3.6
v -1.5 0.7 2.9
v -1.2 0.7 2.9
v 1.2 0.7 2.9
v 1.5 0.7 2.9
v -1.5 0.7 2.8
v -1.2 0.7 2.8
v 1.2 0.7 2.8
v 1.5 0.7 2.8
v -1.5 0.7 2.2
v -1.2 0.7 2.2
v 1.2 0.7 2.2
v 1.5 0.7 2.2
v -1.5 0.7 2.1
v -1.2 0.7 2.1
v 1.2 0.7 2.1
v 1.5 0.7 2.1
v -1.5 0.7 1.6
v -1.2 0.7 1.6
v 1.2 0.7 1.6
v 1.5 0.7 1.6
v -1.5 0.7 1.5
v -1.2 0.7 1.5
v 1.2 0.7 1.5
v 1.5 0.7 1.5
v -1.5 0.7 0.9
v -1.2 0.7 0.9
v 1.2 0.7 0.9
v 1.5 0.7 0.9
v -1.5 0.7 0.8
v -1.2 0.7 0.8
v 1.2 0.7 0.8
v 1.5 0.7 0.8
v -1.5 0.7 0.2
v -1.2 0.7 0.2
v 1.2 0.7 0.2
v 1.5 0.7 0.2
v -1.5 0.7 0.0999999
v -1.2 0.7 0.0999999
v 1.2 0.7 0.0999999
v 1.5 0.7 0.0999999
v -1.2 0.7 -4.76837e-07
v -1 0.7 -4.76837e-07
v 1 0.7 -4.76837e-07
v 1.2 0.7 -4.76837e-07
v -1 0.7 -0.2
v 1 0.7 -0.2
v -1.5 0.7 -0.5
v 1.5 0.7 -0.5
v -1 0.8 3.8
v 1 0.8 3.8
v -1 0.8 3.7
v -0.5 0.8 3.7
v 0.5 0.8 3.7
v 1 0.8 3.7
v -1.2 0.8 3.6
v -1 0.8 3.6
v -0.6 0.8 3.6
v -0.5 0.8 3.6
v 0.5 0.8 3.6
v 0.6 0.8 3.6
v 1 0.8 3.6
v 1.2 0.8 3.6
v -0.8 0.8 3.2
v -0.6 0.8 3.2
v 0.6 0.8 3.2
v 0.8 0.8 3.2
v -1.2 0.8 2.9
v -0.8 0.8 2.9
v 0.8 0.8 2.9
v 1.2 0.8 2.9
v -1.2 0.8 2.8
v -0.8 0.8 2.8
v 0.8 0.8 2.8
v 1.2 0.8 2.8
v -1.2 0.8 2.2
v -0.8 0.8 2.2
v 0.8 0.8 2.2
v 1.2 0.8 2.2
v -1.2 0.8 2.1
v -0.8 0.8 2.1
v 0.8 0.8 2.1
v 1.2 0.8 2.1
v -1.2 0.8 1.6
v -0.8 0.8 1.6
v 0.8 0.8 1.6
v 1.2 0.8 1.6
v -1.2 0.8 1.5
v -0.8 0.8 1.5
v 0.8 0.8 1.5
v 1.2 0.8 1.5
v -1.2 0.8 0.9
v -0.8 0.8 0.9
v 0.8 0.8 0.9
v 1.2 0.8 0.9
v -1.2 0.8 0.8
v -0.8 0.8 0.8
v 0.8 0.8 0.8
v 1.2 0.8 0.8
v -0.8 0.8 0.5
v -0.7 0.8 0.5
v 0.7 0.8 0.5
v 0.8 0.8 0.5
v -0.7 0.8 0.4
v -0.6 0.8 0.4
v 0.6 0.8 0.4
v 0.7 0.8 0.4
v -1.2 0.8 0.2
v -0.6 0.8 0.2
v 0.6 0.8 0.2
v 1.2 0.8 0.2
v -1.2 0.8 0.0999999
v 1.2 0.8 0.0999999
v -1.2 0.8 -4.76837e-07
v -1 0.8 -4.76837e-07
v 1 0.8 -4.76837e-07
v 1.2 0.8 -4.76837e-07
v -1 0.8 -0.2
v 1 0.8 -0.2
v -0.5 0.9 3.7
v 0.5 0.9 3.7
v -0.6 0.9 3.6
v -0.5 0.9 3.6
v 0.5 0.9 3.6
v 0.6 0.9 3.6
v -0.8 0.9 3.2
v -0.6 0.9 3.2
v 0.6 0.9 3.2
v 0.8 0.9 3.2
v -0.8 0.9 2.9
v 0.8 0.9 2.9
v -0.8 0.9 2.8
v 0.8 0.9 2.8
v -0.8 0.9 2.2
v 0.8 0.9 2.2
v -0.8 0.9 2.1
v 0.8 0.9 2.1
v -0.8 0.9 1.6
v 0.8 0.9 1.6
v -0.8 0.9 1.5
v 0.8 0.9 1.5
v -0.8 0.9 0.9
v 0.8 0.9 0.9
v -0.8 0.9 0.8
v 0.8 0.9 0.8
v -0.8 0.9 0.5
v -0.7 0.9 0.5
v 0.7 0.9 0.5
v 0.8 0.9 0.5
v -0.7 0.9 0.4
v -0.6 0.9 0.4
v 0.6 0.9 0.4
v 0.7 0.9 0.4
v -0.6 0.9 0.2
v 0.6 0.9 0.2

# faces
f 4/2/1 2/2/1 1/2/1
f 5/2/1 2/2/1 4/2/1
f 6/2/1 2/2/1 5/2/1
f 7/2/1 2/2/1 6/2/1
f 8/2/1 2/2/1 7/2/1
f 9/2/1 2/2/1 8/2/1
f 10/2/1 2/2/1 9/2/1
f 11/2/1 2/2/1 10/2/1
f 12/2/1 2/2/1 11/2/1
f 13/2/1 2/2/1 12/2/1
f 14/2/1 2/2/1 13/2/1
f 15/2/1 2/2/1 14/2/1
f 16/2/1 4/2/1 1/2/1
f 17/3/1 5/3/1 4/3/1
f 17/2/1 4/2/1 16/2/1
f 18/2/1 6/2/1 5/2/1
f 18/3/1 5/3/1 17/3/1
f 19/3/1 7/3/1 6/3/1
f 19/2/1 6/2/1 18/2/1
f 20/2/1 8/2/1 7/2/1
f 20/3/1 7/3/1 19/3/1
f 21/3/1 9/3/1 8/3/1
f 21/2/1 8/2/1 20/2/1
f 22/2/1 10/2/1 9/2/1
f 22/3/1 9/3/1 21/3/1
f 23/3/1 11/3/1 10/3/1
f 23/2/1 10/2/1 22/2/1
f 24/2/1 12/2/1 11/2/1
f 24/3/1 11/3/1 23/3/1
f 25/3/1 13/3/1 12/3/1
f 25/2/1 12/2/1 24/2/1
f 26/2/1 14/2/1 13/2/1
f 26/3/1 13/3/1 25/3/1
f 27/3/1 15/3/1 14/3/1
f 27/2/1 14/2/1 26/2/1
f 28/2/1 2/2/1 15/2/1
f 28/3/1 15/3/1 27/3/1
f 29/1/1 3/1/1 2/1/1
f 29/2/1 2/2/1 28/2/1
f 30/1/1 3/1/1 29/1/1
f 35/2/1 32/2/1 31/2/1
f 36/2/1 32/2/1 35/2/1
f 37/2/1 32/2/1 36/2/1
f 51/1/1 34/1/1 33/1/1
f 52/1/1 34/1/1 51/1/1
f 53/2/1 37/2/1 36/2/1
f 53/2/1 38/2/1 37/2/1
f 54/2/1 38/2/1 53/2/1
f 55/2/1 38/2/1 54/2/1
f 56/3/1 39/3/1 38/3/1
f 56/2/1 38/2/1 55/2/1
f 57/2/1 40/2/1 39/2/1
f 57/3/1 39/3/1 56/3/1
f 58/3/1 41/3/1 40/3/1
f 58/2/1 40/2/1 57/2/1
f 59/2/1 42/2/1 41/2/1
f 59/3/1 41/3/1 58/3/1
f 60/3/1 43/3/1 42/3/1
f 60/2/1 42/2/1 59/2/1
f 61/2/1 44/2/1 43/2/1
f 61/3/1 43/3/1 60/3/1
f 62/3/1 45/3/1 44/3/1
f 62/2/1 44/2/1 61/2/1
f 63/2/1 46/2/1 45/2/1
f 63/3/1 45/3/1 62/3/1
f 64/3/1 47/3/1 46/3/1
f 64/2/1 46/2/1 63/2/1
f 65/2/1 48/2/1 47/2/1
f 65/3/1 47/3/1 64/3/1
f 66/3/1 49/3/1 48/3/1
f 66/2/1 48/2/1 65/2/1
f 67/2/1 50/2/1 49/2/1
f 67/3/1 49/3/1 66/3/1
f 68/2/1 50/2/1 67/2/1
f 74/2/1 70/2/1 69/2/1
f 74/2/1 71/2/1 70/2/1
f 75/2/1 71/2/1 74/2/1
f 76/2/1 73/2/1 72/2/1
f 77/2/1 73/2/1 76/2/1
f 78/2/1 73/2/1 77/2/1
f 79/2/1 73/2/1 78/2/1
f 80/2/1 73/2/1 79/2/1
f 81/2/1 73/2/1 80/2/1
f 82/2/1 73/2/1 81/2/1
f 83/2/1 73/2/1 82/2/1
f 84/2/1 71/2/1 75/2/1
f 85/2/1 71/2/1 84/2/1
f 87/2/1 86/2/1 85/2/1
f 101/2/1 87/2/1 85/2/1
f 101/2/1 88/2/1 87/2/1
f 102/3/1 89/3/1 88/3/1
f 102/2/1 88/2/1 101/2/1
f 103/2/1 90/2/1 89/2/1
f 103/3/1 89/3/1 102/3/1
f 104/3/1 91/3/1 90/3/1
f 104/2/1 90/2/1 103/2/1
f 105/2/1 92/2/1 91/2/1
f 105/3/1 91/3/1 104/3/1
f 106/3/1 93/3/1 92/3/1
f 106/2/1 92/2/1 105/2/1
f 107/2/1 94/2/1 93/2/1
f 107/3/1 93/3/1 106/3/1
f 108/3/1 95/3/1 94/3/1
f 108/2/1 94/2/1 107/2/1
f 109/2/1 96/2/1 95/2/1
f 109/3/1 95/3/1 108/3/1
f 110/3/1 97/3/1 96/3/1
f 110/2/1 96/2/1 109/2/1
f 111/2/1 98/2/1 97/2/1
f 111/3/1 97/3/1 110/3/1
f 112/3/1 99/3/1 98/3/1
f 112/2/1 98/2/1 111/2/1
f 113/2/1 100/2/1 99/2/1
f 113/3/1 99/3/1 112/3/1
f 114/2/1 100/2/1 113/2/1
f 120/1/1 116/1/1 115/1/1
f 121/1/1 116/1/1 120/1/1
f 122/2/1 118/2/1 117/2/1
f 123/2/1 118/2/1 122/2/1
f 125/1/1 120/1/1 119/1/1
f 126/1/1 120/1/1 125/1/1
f 127/2/1 124/2/1 123/2/1
f 128/2/1 124/2/1 127/2/1
f 133/2/1 130/2/1 129/2/1
f 134/2/1 130/2/1 133/2/1
f 135/2/1 130/2/1 134/2/1
f 138/1/1 132/1/1 131/1/1
f 139/1/1 132/1/1 138/1/1
f 140/2/1 137/2/1 136/2/1
f 141/2/1 137/2/1 140/2/1
f 143/2/1 142/2/1 141/2/1
f 144/2/1 142/2/1 143/2/1
f 159/2/1 146/2/1 145/2/1
f 160/3/1 147/3/1 146/3/1
f 160/2/1 146/2/1 159/2/1
f 161/2/1 148/2/1 147/2/1
f 161/3/1 147/3/1 160/3/1
f 162/3/1 149/3/1 148/3/1
f 162/2/1 148/2/1 161/2/1
f 163/2/1 150/2/1 149/2/1
f 163/3/1 149/3/1 162/3/1
f 164/3/1 151/3/1 150/3/1
f 164/2/1 150/2/1 163/2/1
f 165/2/1 152/2/1 151/2/1
f 165/3/1 151/3/1 164/3/1
f 166/3/1 153/3/1 152/3/1
f 166/2/1 152/2/1 165/2/1
f 167/2/1 154/2/1 153/2/1
f 167/3/1 153/3/1 166/3/1
f 168/3/1 155/3/1 154/3/1
f 168/2/1 154/2/1 167/2/1
f 169/2/1 156/2/1 155/2/1
f 169/3/1 155/3/1 168/3/1
f 170/3/1 157/3/1 156/3/1
f 170/2/1 156/2/1 169/2/1
f 171/2/1 158/2/1 157/2/1
f 171/3/1 157/3/1 170/3/1
f 172/2/1 158/2/1 171/2/1
f 177/1/1 174/1/1 173/1/1
f 178/1/1 174/1/1 177/1/1
f 181/1/1 176/1/1 175/1/1
f 182/1/1 176/1/1 181/1/1
f 183/2/1 180/2/1 179/2/1
f 184/2/1 180/2/1 183/2/1
f 187/2/1 186/2/1 185/2/1
f 188/2/1 186/2/1 187/2/1
f 191/1/1 190/1/1 189/1/1
f 192/1/1 190/1/1 191/1/1
f 195/2/1 194/2/1 193/2/1
f 196/2/1 194/2/1 195/2/1
f 199/2/1 198/2/1 197/2/1
f 200/2/1 198/2/1 199/2/1
f 201/2/1 198/2/1 200/2/1
f 202/2/1 198/2/1 201/2/1
f 203/2/1 198/2/1 202/2/1
f 204/2/1 198/2/1 203/2/1
f 205/2/1 198/2/1 204/2/1
f 206/2/1 198/2/1 205/2/1
f 209/1/1 208/1/1 207/1/1
f 210/1/1 208/1/1 209/1/1
f 223/2/1 212/2/1 211/2/1
f 224/3/1 213/3/1 212/3/1
f 224/2/1 212/2/1 223/2/1
f 225/2/1 214/2/1 213/2/1
f 225/3/1 213/3/1 224/3/1
f 226/3/1 215/3/1 214/3/1
f 226/2/1 214/2/1 225/2/1
f 227/2/1 216/2/1 215/2/1
f 227/3/1 215/3/1 226/3/1
f 228/3/1 217/3/1 216/3/1
f 228/2/1 216/2/1 227/2/1
f 229/2/1 218/2/1 217/2/1
f 229/3/1 217/3/1 228/3/1
f 230/3/1 219/3/1 218/3/1
f 230/2/1 218/2/1 229/2/1
f 231/2/1 220/2/1 219/2/1
f 231/3/1 219/3/1 230/3/1
f 232/3/1 221/3/1 220/3/1
f 232/2/1 220/2/1 231/2/1
f 233/2/1 222/2/1 221/2/1
f 233/3/1 221/3/1 232/3/1
f 234/2/1 222/2/1 233/2/1
f 239/2/1 236/2/1 235/2/1
f 240/2/1 236/2/1 239/2/1
f 242/2/1 241/2/1 240/2/1
f 243/2/1 241/2/1 242/2/1
f 244/1/1 238/1/1 237/1/1
f 245/1/1 238/1/1 244/1/1
f 248/1/1 247/1/1 246/1/1
f 249/1/1 247/1/1 248/1/1
f 253/2/1 251/2/1 250/2/1
f 254/2/1 253/2/1 252/2/1
f 255/2/1 251/2/1 253/2/1
f 255/2/1 253/2/1 254/2/1
f 258/2/1 257/2/1 256/2/1
f 259/2/1 257/2/1 258/2/1
f 265/2/1 261/2/1 260/2/1
f 266/3/1 262/3/1 261/3/1
f 266/2/1 261/2/1 265/2/1
f 267/3/1 262/3/1 266/3/1
f 268/2/1 264/2/1 263/2/1
f 269/2/1 264/2/1 268/2/1
f 274/1/1 271/1/1 270/1/1
f 275/1/1 271/1/1 274/1/1
f 276/1/1 273/1/1 272/1/1
f 277/1/1 273/1/1 276/1/1
f 280/1/1 279/1/1 278/1/1
f 281/1/1 279/1/1 280/1/1
f 284/1/1 283/1/1 282/1/1
f 285/1/1 283/1/1 284/1/1
f 296/2/1 287/2/1 286/2/1
f 297/3/1 288/3/1 287/3/1
f 297/2/1 287/2/1 296/2/1
f 298/2/1 289/2/1 288/2/1
f 298/3/1 288/3/1 297/3/1
f 299/3/1 290/3/1 289/3/1
f 299/2/1 289/2/1 298/2/1
f 300/2/1 291/2/1 290/2/1
f 300/3/1 290/3/1 299/3/1
f 301/3/1 292/3/1 291/3/1
f 301/2/1 291/2/1 300/2/1
f 302/2/1 293/2/1 292/2/1
f 302/3/1 292/3/1 301/3/1
f 303/3/1 294/3/1 293/3/1
f 303/2/1 293/2/1 302/2/1
f 304/2/1 295/2/1 294/2/1
f 304/3/1 294/3/1 303/3/1
f 305/2/1 295/2/1 304/2/1
f 308/2/1 307/2/1 306/2/1
f 309/2/1 307/2/1 308/2/1
f 314/2/1 311/2/1 310/2/1
f 315/2/1 311/2/1 314/2/1
f 316/2/1 313/2/1 312/2/1
f 317/2/1 313/2/1 316/2/1
f 320/1/1 319/1/1 318/1/1
f 321/1/1 319/1/1 320/1/1
f 324/3/1 323/3/1 322/3/1
f 325/3/1 323/3/1 324/3/1
f 328/1/1 327/1/1 326/1/1
f 329/1/1 327/1/1 328/1/1
f 332/1/1 331/1/1 330/1/1
f 333/1/1 331/1/1 332/1/1
f 337/2/1 335/2/1 334/2/1
f 338/2/1 337/2/1 336/2/1
f 339/2/1 335/2/1 337/2/1
f 339/2/1 337/2/1 338/2/1
f 342/2/1 341/2/1 340/2/1
f 343/2/1 341/2/1 342/2/1
f 344/2/1 341/2/1 343/2/1
f 345/2/1 341/2/1 344/2/1
f 346/2/1 341/2/1 345/2/1
f 347/2/1 341/2/1 346/2/1
f 348/2/1 341/2/1 347/2/1
f 349/2/1 341/2/1 348/2/1
f 352/2/1 351/2/1 350/2/1
f 353/2/1 351/2/1 352/2/1
f 356/2/1 355/2/1 354/2/1
f 357/2/1 355/2/1 356/2/1
f 358/2/1 355/2/1 357/2/1
f 359/2/1 355/2/1 358/2/1
f 360/2/1 355/2/1 359/2/1
f 361/2/1 355/2/1 360/2/1
f 362/2/1 355/2/1 361/2/1
f 363/2/1 355/2/1 362/2/1
f 364/2/2 365/2/2 366/2/2
f 366/2/2 365/2/2 367/2/2
f 367/2/2 365/2/2 368/2/2
f 368/2/2 365/2/2 369/2/2
f 369/2/2 365/2/2 370/2/2
f 370/2/2 365/2/2 371/2/2
f 371/2/2 365/2/2 372/2/2
f 372/2/2 365/2/2 373/2/2
f 374/2/2 375/2/2 376/2/2
f 376/2/2 375/2/2 377/2/2
f 378/2/2 379/2/2 380/2/2
f 380/2/2 379/2/2 381/2/2
f 381/2/2 379/2/2 382/2/2
f 382/2/2 379/2/2 383/2/2
f 383/2/2 379/2/2 384/2/2
f 384/2/2 379/2/2 385/2/2
f 385/2/2 379/2/2 386/2/2
f 386/2/2 379/2/2 387/2/2
f 388/2/2 389/2/2 391/2/2
f 390/2/2 391/2/2 392/2/2
f 391/2/2 389/2/2 393/2/2
f 392/2/2 391/2/2 393/2/2
f 394/1/2 395/1/2 396/1/2
f 396/1/2 395/1/2 397/1/2
f 398/1/2 399/1/2 400/1/2
f 400/1/2 399/1/2 401/1/2
f 402/1/2 403/1/2 404/1/2
f 404/1/2 403/1/2 405/1/2
f 406/3/2 407/3/2 408/3/2
f 408/3/2 407/3/2 409/3/2
f 410/2/2 411/2/2 414/2/2
f 414/2/2 411/2/2 415/2/2
f 412/2/2 413/2/2 416/2/2
f 416/2/2 413/2/2 417/2/2
f 418/2/2 419/2/2 420/2/2
f 420/2/2 419/2/2 421/2/2
f 422/1/2 423/1/2 424/1/2
f 424/1/2 423/1/2 425/1/2
f 426/1/2 427/1/2 428/1/2
f 428/1/2 427/1/2 429/1/2
f 430/2/2 431/2/2 440/2/2
f 431/3/2 432/3/2 441/3/2
f 440/2/2 431/2/2 441/2/2
f 432/2/2 433/2/2 442/2/2
f 441/3/2 432/3/2 442/3/2
f 433/3/2 434/3/2 443/3/2
f 442/2/2 433/2/2 443/2/2
f 434/2/2 435/2/2 444/2/2
f 443/3/2 434/3/2 444/3/2
f 435/3/2 436/3/2 445/3/2
f 444/2/2 435/2/2 445/2/2
f 436/2/2 437/2/2 446/2/2
f 445/3/2 436/3/2 446/3/2
f 437/3/2 438/3/2 447/3/2
f 446/2/2 437/2/2 447/2/2
f 438/2/2 439/2/2 448/2/2
f 447/3/2 438/3/2 448/3/2
f 448/2/2 439/2/2 449/2/2
f 450/1/2 451/1/2 454/1/2
f 454/1/2 451/1/2 455/1/2
f 452/1/2 453/1/2 456/1/2
f 456/1/2 453/1/2 457/1/2
f 458/2/2 459/2/2 461/2/2
f 460/2/2 461/2/2 462/2/2
f 461/2/2 459/2/2 463/2/2
f 462/2/2 461/2/2 463/2/2
f 464/2/2 465/2/2 466/2/2
f 466/2/2 465/2/2 467/2/2
f 468/2/2 469/2/2 473/2/2
f 469/3/2 470/3/2 474/3/2
f 473/2/2 469/2/2 474/2/2
f 474/3/2 470/3/2 475/3/2
f 471/2/2 472/2/2 476/2/2
f 476/2/2 472/2/2 477/2/2
f 478/2/2 479/2/2 482/2/2
f 482/2/2 479/2/2 483/2/2
f 483/2/2 484/2/2 485/2/2
f 485/2/2 484/2/2 486/2/2
f 480/1/2 481/1/2 487/1/2
f 487/1/2 481/1/2 488/1/2
f 489/1/2 490/1/2 491/1/2
f 491/1/2 490/1/2 492/1/2
f 493/2/2 494/2/2 495/2/2
f 495/2/2 494/2/2 496/2/2
f 496/2/2 494/2/2 497/2/2
f 497/2/2 494/2/2 498/2/2
f 498/2/2 494/2/2 499/2/2
f 499/2/2 494/2/2 500/2/2
f 500/2/2 494/2/2 501/2/2
f 501/2/2 494/2/2 502/2/2
f 503/1/2 504/1/2 505/1/2
f 505/1/2 504/1/2 506/1/2
f 507/2/2 508/2/2 519/2/2
f 508/3/2 509/3/2 520/3/2
f 519/2/2 508/2/2 520/2/2
f 509/2/2 510/2/2 521/2/2
f 520/3/2 509/3/2 521/3/2
f 510/3/2 511/3/2 522/3/2
f 521/2/2 510/2/2 522/2/2
f 511/2/2 512/2/2 523/2/2
f 522/3/2 511/3/2 523/3/2
f 512/3/2 513/3/2 524/3/2
f 523/2/2 512/2/2 524/2/2
f 513/2/2 514/2/2 525/2/2
f 524/3/2 513/3/2 525/3/2
f 514/3/2 515/3/2 526/3/2
f 525/2/2 514/2/2 526/2/2
f 515/2/2 516/2/2 527/2/2
f 526/3/2 515/3/2 527/3/2
f 516/3/2 517/3/2 528/3/2
f 527/2/2 516/2/2 528/2/2
f 517/2/2 518/2/2 529/2/2
f 528/3/2 517/3/2 529/3/2
f 529/2/2 518/2/2 530/2/2
f 531/1/2 532/1/2 533/1/2
f 533/1/2 532/1/2 534/1/2
f 535/2/2 536/2/2 537/2/2
f 537/2/2 536/2/2 538/2/2
f 539/1/2 540/1/2 543/1/2
f 543/1/2 540/1/2 544/1/2
f 541/1/2 542/1/2 547/1/2
f 547/1/2 542/1/2 548/1/2
f 545/2/2 546/2/2 549/2/2
f 549/2/2 546/2/2 550/2/2
f 551/2/2 552/2/2 553/2/2
f 553/2/2 552/2/2 554/2/2
f 555/2/2 556/2/2 559/2/2
f 559/2/2 556/2/2 560/2/2
f 560/2/2 556/2/2 561/2/2
f 557/1/2 558/1/2 564/1/2
f 564/1/2 558/1/2 565/1/2
f 562/2/2 563/2/2 566/2/2
f 566/2/2 563/2/2 567/2/2
f 567/2/2 568/2/2 569/2/2
f 569/2/2 568/2/2 570/2/2
f 571/2/2 572/2/2 585/2/2
f 572/3/2 573/3/2 586/3/2
f 585/2/2 572/2/2 586/2/2
f 573/2/2 574/2/2 587/2/2
f 586/3/2 573/3/2 587/3/2
f 574/3/2 575/3/2 588/3/2
f 587/2/2 574/2/2 588/2/2
f 575/2/2 576/2/2 589/2/2
f 588/3/2 575/3/2 589/3/2
f 576/3/2 577/3/2 590/3/2
f 589/2/2 576/2/2 590/2/2
f 577/2/2 578/2/2 591/2/2
f 590/3/2 577/3/2 591/3/2
f 578/3/2 579/3/2 592/3/2
f 591/2/2 578/2/2 592/2/2
f 579/2/2 580/2/2 593/2/2
f 592/3/2 579/3/2 593/3/2
f 580/3/2 581/3/2 594/3/2
f 593/2/2 580/2/2 594/2/2
f 581/2/2 582/2/2 595/2/2
f 594/3/2 581/3/2 595/3/2
f 582/3/2 583/3/2 596/3/2
f 595/2/2 582/2/2 596/2/2
f 583/2/2 584/2/2 597/2/2
f 596/3/2 583/3/2 597/3/2
f 597/2/2 584/2/2 598/2/2
f 599/1/2 600/1/2 604/1/2
f 604/1/2 600/1/2 605/1/2
f 601/2/2 602/2/2 606/2/2
f 606/2/2 602/2/2 607/2/2
f 603/1/2 604/1/2 609/1/2
f 609/1/2 604/1/2 610/1/2
f 607/2/2 608/2/2 611/2/2
f 611/2/2 608/2/2 612/2/2
f 613/2/2 614/2/2 618/2/2
f 614/2/2 615/2/2 618/2/2
f 618/2/2 615/2/2 619/2/2
f 616/2/2 617/2/2 620/2/2
f 620/2/2 617/2/2 621/2/2
f 621/2/2 617/2/2 622/2/2
f 622/2/2 617/2/2 623/2/2
f 623/2/2 617/2/2 624/2/2
f 624/2/2 617/2/2 625/2/2
f 625/2/2 617/2/2 626/2/2
f 626/2/2 617/2/2 627/2/2
f 619/2/2 615/2/2 628/2/2
f 628/2/2 615/2/2 629/2/2
f 629/2/2 630/2/2 631/2/2
f 629/2/2 631/2/2 645/2/2
f 631/2/2 632/2/2 645/2/2
f 632/3/2 633/3/2 646/3/2
f 645/2/2 632/2/2 646/2/2
f 633/2/2 634/2/2 647/2/2
f 646/3/2 633/3/2 647/3/2
f 634/3/2 635/3/2 648/3/2
f 647/2/2 634/2/2 648/2/2
f 635/2/2 636/2/2 649/2/2
f 648/3/2 635/3/2 649/3/2
f 636/3/2 637/3/2 650/3/2
f 649/2/2 636/2/2 650/2/2
f 637/2/2 638/2/2 651/2/2
f 650/3/2 637/3/2 651/3/2
f 638/3/2 639/3/2 652/3/2
f 651/2/2 638/2/2 652/2/2
f 639/2/2 640/2/2 653/2/2
f 652/3/2 639/3/2 653/3/2
f 640/3/2 641/3/2 654/3/2
f 653/2/2 640/2/2 654/2/2
f 641/2/2 642/2/2 655/2/2
f 654/3/2 641/3/2 655/3/2
f 642/3/2 643/3/2 656/3/2
f 655/2/2 642/2/2 656/2/2
f 643/2/2 644/2/2 657/2/2
f 656/3/2 643/3/2 657/3/2
f 657/2/2 644/2/2 658/2/2
f 659/2/2 660/2/2 663/2/2
f 663/2/2 660/2/2 664/2/2
f 664/2/2 660/2/2 665/2/2
f 661/1/2 662/1/2 679/1/2
f 679/1/2 662/1/2 680/1/2
f 664/2/2 665/2/2 681/2/2
f 665/2/2 666/2/2 681/2/2
f 681/2/2 666/2/2 682/2/2
f 682/2/2 666/2/2 683/2/2
f 666/3/2 667/3/2 684/3/2
f 683/2/2 666/2/2 684/2/2
f 667/2/2 668/2/2 685/2/2
f 684/3/2 667/3/2 685/3/2
f 668/3/2 669/3/2 686/3/2
f 685/2/2 668/2/2 686/2/2
f 669/2/2 670/2/2 687/2/2
f 686/3/2 669/3/2 687/3/2
f 670/3/2 671/3/2 688/3/2
f 687/2/2 670/2/2 688/2/2
f 671/2/2 672/2/2 689/2/2
f 688/3/2 671/3/2 689/3/2
f 672/3/2 673/3/2 690/3/2
f 689/2/2 672/2/2 690/2/2
f 673/2/2 674/2/2 691/2/2
f 690/3/2 673/3/2 691/3/2
f 674/3/2 675/3/2 692/3/2
f 691/2/2 674/2/2 692/2/2
f 675/2/2 676/2/2 693/2/2
f 692/3/2 675/3/2 693/3/2
f 676/3/2 677/3/2 694/3/2
f 693/2/2 676/2/2 694/2/2
f 677/2/2 678/2/2 695/2/2
f 694/3/2 677/3/2 695/3/2
f 695/2/2 678/2/2 696/2/2
f 697/2/2 698/2/2 700/2/2
f 700/2/2 698/2/2 701/2/2
f 701/2/2 698/2/2 702/2/2
f 702/2/2 698/2/2 703/2/2
f 703/2/2 698/2/2 704/2/2
f 704/2/2 698/2/2 705/2/2
f 705/2/2 698/2/2 706/2/2
f 706/2/2 698/2/2 707/2/2
f 707/2/2 698/2/2 708/2/2
f 708/2/2 698/2/2 709/2/2
f 709/2/2 698/2/2 710/2/2
f 710/2/2 698/2/2 711/2/2
f 697/2/2 700/2/2 712/2/2
f 700/3/2 701/3/2 713/3/2
f 712/2/2 700/2/2 713/2/2
f 701/2/2 702/2/2 714/2/2
f 713/3/2 701/3/2 714/3/2
f 702/3/2 703/3/2 715/3/2
f 714/2/2 702/2/2 715/2/2
f 703/2/2 704/2/2 716/2/2
f 715/3/2 703/3/2 716/3/2
f 704/3/2 705/3/2 717/3/2
f 716/2/2 704/2/2 717/2/2
f 705/2/2 706/2/2 718/2/2
f 717/3/2 705/3/2 718/3/2
f 706/3/2 707/3/2 719/3/2
f 718/2/2 706/2/2 719/2/2
f 707/2/2 708/2/2 720/2/2
f 719/3/2 707/3/2 720/3/2
f 708/3/2 709/3/2 721/3/2
f 720/2/2 708/2/2 721/2/2
f 709/2/2 710/2/2 722/2/2
f 721/3/2 709/3/2 722/3/2
f 710/3/2 711/3/2 723/3/2
f 722/2/2 710/2/2 723/2/2
f 711/2/2 698/2/2 724/2/2
f 723/3/2 711/3/2 724/3/2
f 698/1/2 699/1/2 725/1/2
f 724/2/2 698/2/2 725/2/2
f 725/1/2 699/1/2 726/1/2
f 729/2/3 728/2/3 727/2/3
f 730/2/3 728/2/3 729/2/3
f 733/2/3 732/2/3 731/2/3
f 734/2/3 732/2/3 733/2/3
f 737/2/3 735/2/3 734/2/3
f 738/2/3 735/2/3 737/2/3
f 739/2/3 737/2/3 736/2/3
f 740/2/3 737/2/3 739/2/3
f 743/2/3 742/2/3 741/2/3
f 744/2/3 742/2/3 743/2/3
f 746/2/3 744/2/3 743/2/3
f 746/2/3 745/2/3 744/2/3
f 747/2/3 745/2/3 746/2/3
f 749/2/3 745/2/3 747/2/3
f 750/2/3 749/2/3 748/2/3
f 751/2/3 749/2/3 750/2/3
f 752/2/3 745/2/3 749/2/3
f 752/2/3 749/2/3 751/2/3
f 753/2/3 751/2/3 750/2/3
f 754/2/3 751/2/3 753/2/3
f 757/2/3 756/2/3 755/2/3
f 758/2/3 757/2/3 755/2/3
f 759/2/3 757/2/3 758/2/3
f 762/2/3 761/2/3 760/2/3
f 763/2/3 761/2/3 762/2/3
f 766/2/3 765/2/3 764/2/3
f 767/2/3 766/2/3 764/2/3
f 768/2/3 766/2/3 767/2/3
f 771/2/3 770/2/3 769/2/3
f 772/2/3 770/2/3 771/2/3
f 774/2/3 773/2/3 772/2/3
f 775/2/3 773/2/3 774/2/3
f 778/2/3 777/2/3 776/2/3
f 779/2/3 777/2/3 778/2/3
f 783/2/3 781/2/3 780/2/3
f 784/2/3 781/2/3 783/2/3
f 785/2/3 783/2/3 782/2/3
f 786/2/3 783/2/3 785/2/3
f 789/2/3 788/2/3 787/2/3
f 790/2/3 788/2/3 789/2/3
f 792/2/3 791/2/3 790/2/3
f 793/2/3 791/2/3 792/2/3
f 796/2/3 795/2/3 794/2/3
f 797/2/3 795/2/3 796/2/3
f 800/2/3 799/2/3 798/2/3
f 801/2/3 799/2/3 800/2/3
f 805/2/3 803/2/3 802/2/3
f 806/2/3 803/2/3 805/2/3
f 807/2/3 805/2/3 804/2/3
f 808/2/3 805/2/3 807/2/3
f 811/2/3 810/2/3 809/2/3
f 812/2/3 810/2/3 811/2/3
f 814/2/3 813/2/3 812/2/3
f 815/2/3 813/2/3 814/2/3
f 818/2/3 813/2/3 815/2/3
f 819/2/3 813/2/3 818/2/3
f 822/2/3 817/2/3 816/2/3
f 823/2/3 817/2/3 822/2/3
f 826/2/3 821/2/3 820/2/3
f 827/2/3 821/2/3 826/2/3
f 830/2/3 825/2/3 824/2/3
f 831/2/3 825/2/3 830/2/3
f 833/2/3 829/2/3 828/2/3
f 835/2/3 833/2/3 832/2/3
f 836/2/3 829/2/3 833/2/3
f 836/2/3 833/2/3 835/2/3
f 837/2/3 835/2/3 834/2/3
f 838/2/3 835/2/3 837/2/3
f 841/2/3 840/2/3 839/2/3
f 842/2/3 840/2/3 841/2/3
f 845/2/3 844/2/3 843/2/3
f 846/2/3 844/2/3 845/2/3
f 851/2/3 848/2/3 847/2/3
f 852/2/3 848/2/3 851/2/3
f 853/2/3 850/2/3 849/2/3
f 854/2/3 850/2/3 853/2/3
f 857/2/3 856/2/3 855/2/3
f 858/2/3 856/2/3 857/2/3
f 861/2/3 860/2/3 859/2/3
f 862/2/3 860/2/3 861/2/3
f 865/2/3 864/2/3 863/2/3
f 866/2/3 864/2/3 865/2/3
f 869/3/3 868/3/3 867/3/3
f 870/3/3 868/3/3 869/3/3
f 873/2/3 872/2/3 871/2/3
f 874/2/3 872/2/3 873/2/3
f 877/2/3 876/2/3 875/2/3
f 878/2/3 876/2/3 877/2/3
f 881/2/3 880/2/3 879/2/3
f 882/2/3 880/2/3 881/2/3
f 885/2/3 884/2/3 883/2/3
f 886/2/3 884/2/3 885/2/3
f 889/2/3 888/2/3 887/2/3
f 890/2/3 888/2/3 889/2/3
f 893/2/3 892/2/3 891/2/3
f 894/2/3 892/2/3 893/2/3
f 897/2/3 896/2/3 895/2/3
f 898/2/3 896/2/3 897/2/3
f 901/2/3 900/2/3 899/2/3
f 902/2/3 900/2/3 901/2/3
f 905/2/3 904/2/3 903/2/3
f 906/2/3 904/2/3 905/2/3
f 909/2/3 908/2/3 907/2/3
f 910/2/3 908/2/3 909/2/3
f 911/2/4 912/2/4 913/2/4
f 913/2/4 912/2/4 914/2/4
f 915/2/4 916/2/4 917/2/4
f 917/2/4 916/2/4 918/2/4
f 919/2/4 920/2/4 921/2/4
f 921/2/4 920/2/4 922/2/4
f 923/2/4 924/2/4 925/2/4
f 925/2/4 924/2/4 926/2/4
f 927/2/4 928/2/4 929/2/4
f 929/2/4 928/2/4 930/2/4
f 931/2/4 932/2/4 933/2/4
f 933/2/4 932/2/4 934/2/4
f 935/2/4 936/2/4 937/2/4
f 937/2/4 936/2/4 938/2/4
f 939/2/4 940/2/4 941/2/4
f 941/2/4 940/2/4 942/2/4
f 943/2/4 944/2/4 945/2/4
f 945/2/4 944/2/4 946/2/4
f 947/2/4 948/2/4 949/2/4
f 949/2/4 948/2/4 950/2/4
f 951/2/4 952/2/4 953/2/4
f 953/2/4 952/2/4 954/2/4
f 955/2/4 956/2/4 957/2/4
f 957/2/4 956/2/4 958/2/4
f 959/2/4 960/2/4 961/2/4
f 961/2/4 960/2/4 962/2/4
f 963/2/4 964/2/4 965/2/4
f 965/2/4 964/2/4 966/2/4
f 967/2/4 968/2/4 969/2/4
f 969/2/4 968/2/4 970/2/4
f 971/2/4 972/2/4 973/2/4
f 973/2/4 972/2/4 974/2/4
f 975/2/4 976/2/4 977/2/4
f 977/2/4 976/2/4 978/2/4
f 979/2/4 980/2/4 981/2/4
f 981/2/4 980/2/4 982/2/4
f 983/2/4 984/2/4 985/2/4
f 985/2/4 984/2/4 986/2/4
f 987/2/4 988/2/4 989/2/4
f 989/2/4 988/2/4 990/2/4
f 991/2/4 992/2/4 993/2/4
f 993/2/4 992/2/4 994/2/4
f 994/2/4 992/2/4 995/2/4
f 995/2/4 992/2/4 996/2/4
f 997/2/4 998/2/4 1000/2/4
f 999/2/4 1000/2/4 1001/2/4
f 1000/2/4 998/2/4 1002/2/4
f 1001/2/4 1000/2/4 1002/2/4
f 1003/1/4 1004/1/4 1005/1/4
f 1005/1/4 1004/1/4 1006/1/4
f 1007/1/4 1008/1/4 1009/1/4
f 1009/1/4 1008/1/4 1010/1/4
f 1011/1/4 1012/1/4 1013/1/4
f 1013/1/4 1012/1/4 1014/1/4
f 1015/1/4 1016/1/4 1017/1/4
f 1017/1/4 1016/1/4 1018/1/4
f 1019/1/4 1020/1/4 1021/1/4
f 1021/1/4 1020/1/4 1022/1/4
f 1022/1/4 1023/1/4 1024/1/4
f 1024/1/4 1023/1/4 1025/1/4
f 1026/1/4 1027/1/4 1029/1/4
f 1029/1/4 1027/1/4 1030/1/4
f 1028/1/4 1029/1/4 1031/1/4
f 1031/1/4 1029/1/4 1032/1/4
f 1033/1/4 1034/1/4 1035/1/4
f 1035/1/4 1034/1/4 1036/1/4
f 1037/1/4 1038/1/4 1039/1/4
f 1039/1/4 1038/1/4 1040/1/4
f 1041/1/4 1042/1/4 1043/1/4
f 1043/1/4 1042/1/4 1044/1/4
f 1045/1/4 1046/1/4 1047/1/4
f 1047/1/4 1046/1/4 1048/1/4
f 1049/1/4 1050/1/4 1051/1/4
f 1051/1/4 1050/1/4 1052/1/4
f 1053/1/4 1054/1/4 1055/1/4
f 1055/1/4 1054/1/4 1056/1/4
f 1057/1/4 1058/1/4 1059/1/4
f 1059/1/4 1058/1/4 1060/1/4
f 1061/1/4 1062/1/4 1063/1/4
f 1063/1/4 1062/1/4 1064/1/4
f 1065/1/4 1066/1/4 1067/1/4
f 1067/1/4 1066/1/4 1068/1/4
f 1069/1/4 1070/1/4 1071/1/4
f 1071/1/4 1070/1/4 1072/1/4
f 1073/1/4 1074/1/4 1075/1/4
f 1075/1/4 1074/1/4 1076/1/4
f 1077/1/4 1078/1/4 1079/1/4
f 1079/1/4 1078/1/4 1080/1/4
f 1081/1/4 1082/1/4 1083/1/4
f 1083/1/4 1082/1/4 1084/1/4
f 1085/1/4 1086/1/4 1087/1/4
f 1087/1/4 1086/1/4 1088/1/4
f 1089/1/4 1090/1/4 1091/1/4
f 1091/1/4 1090/1/4 1092/1/4
f 1093/1/4 1094/1/4 1095/1/4
f 1095/1/4 1094/1/4 1096/1/4
f 1097/1/4 1098/1/4 1099/1/4
f 1099/1/4 1098/1/4 1100/1/4
f 1101/1/4 1102/1/4 1103/1/4
f 1103/1/4 1102/1/4 1104/1/4
f 1105/1/4 1106/1/4 1107/1/4
f 1107/1/4 1106/1/4 1108/1/4
f 1109/1/4 1110/1/4 1111/1/4
f 1111/1/4 1110/1/4 1112/1/4
f 1113/1/4 1114/1/4 1115/1/4
f 1115/1/4 1114/1/4 1116/1/4
f 1117/1/4 1118/1/4 1119/1/4
f 1119/1/4 1118/1/4 1120/1/4
f 1121/1/4 1122/1/4 1123/1/4
f 1123/1/4 1122/1/4 1124/1/4
f 1125/1/4 1126/1/4 1127/1/4
f 1127/1/4 1126/1/4 1128/1/4
f 1129/1/4 1130/1/4 1131/1/4
f 1131/1/4 1130/1/4 1132/1/4
f 1136/2/5 1134/2/5 1133/2/5
f 1137/2/5 1134/2/5 1136/2/5
f 1140/2/5 1136/2/5 1135/2/5
f 1140/2/5 1138/2/5 1137/2/5
f 1140/2/5 1137/2/5 1136/2/5
f 1141/2/5 1138/2/5 1140/2/5
f 1144/2/5 1140/2/5 1139/2/5
f 1144/2/5 1142/2/5 1141/2/5
f 1144/2/5 1141/2/5 1140/2/5
f 1145/2/5 1142/2/5 1144/2/5
f 1147/2/5 1144/2/5 1143/2/5
f 1147/2/5 1146/2/5 1145/2/5
f 1147/2/5 1145/2/5 1144/2/5
f 1148/2/5 1146/2/5 1147/2/5
f 1149/1/5 1148/1/5 1147/1/5
f 1150/1/5 1148/1/5 1149/1/5
f 1151/1/5 1148/1/5 1150/1/5
f 1152/1/5 1148/1/5 1151/1/5
f 1153/1/5 1151/1/5 1150/1/5
f 1154/1/5 1151/1/5 1153/1/5
f 1155/1/5 1151/1/5 1154/1/5
f 1156/1/5 1151/1/5 1155/1/5
f 1157/1/5 1155/1/5 1154/1/5
f 1158/1/5 1155/1/5 1157/1/5
f 1159/1/5 1155/1/5 1158/1/5
f 1160/1/5 1155/1/5 1159/1/5
f 1161/1/5 1159/1/5 1158/1/5
f 1162/1/5 1159/1/5 1161/1/5
f 1163/1/5 1159/1/5 1162/1/5
f 1164/1/5 1159/1/5 1163/1/5
f 1165/1/5 1163/1/5 1162/1/5
f 1166/1/5 1163/1/5 1165/1/5
f 1167/1/5 1163/1/5 1166/1/5
f 1168/1/5 1163/1/5 1167/1/5
f 1169/1/5 1167/1/5 1166/1/5
f 1170/1/5 1167/1/5 1169/1/5
f 1171/1/5 1167/1/5 1170/1/5
f 1172/1/5 1167/1/5 1171/1/5
f 1173/1/5 1171/1/5 1170/1/5
f 1174/1/5 1171/1/5 1173/1/5
f 1175/1/5 1171/1/5 1174/1/5
f 1176/1/5 1171/1/5 1175/1/5
f 1177/1/5 1175/1/5 1174/1/5
f 1178/1/5 1175/1/5 1177/1/5
f 1179/1/5 1175/1/5 1178/1/5
f 1180/1/5 1175/1/5 1179/1/5
f 1181/1/5 1179/1/5 1178/1/5
f 1182/1/5 1179/1/5 1181/1/5
f 1187/2/5 1184/2/5 1183/2/5
f 1188/2/5 1184/2/5 1187/2/5
f 1189/2/5 1186/2/5 1185/2/5
f 1190/2/5 1186/2/5 1189/2/5
f 1199/2/5 1192/2/5 1191/2/5
f 1200/2/5 1192/2/5 1199/2/5
f 1201/2/5 1194/2/5 1193/2/5
f 1202/2/5 1194/2/5 1201/2/5
f 1203/2/5 1196/2/5 1195/2/5
f 1204/2/5 1196/2/5 1203/2/5
f 1205/2/5 1198/2/5 1197/2/5
f 1206/2/5 1198/2/5 1205/2/5
f 1207/3/5 1200/3/5 1199/3/5
f 1208/3/5 1200/3/5 1207/3/5
f 1209/3/5 1202/3/5 1201/3/5
f 1210/3/5 1202/3/5 1209/3/5
f 1211/3/5 1204/3/5 1203/3/5
f 1212/3/5 1204/3/5 1211/3/5
f 1213/3/5 1206/3/5 1205/3/5
f 1214/3/5 1206/3/5 1213/3/5
f 1215/2/5 1208/2/5 1207/2/5
f 1216/2/5 1208/2/5 1215/2/5
f 1217/2/5 1210/2/5 1209/2/5
f 1218/2/5 1210/2/5 1217/2/5
f 1219/2/5 1212/2/5 1211/2/5
f 1220/2/5 1212/2/5 1219/2/5
f 1221/2/5 1214/2/5 1213/2/5
f 1222/2/5 1214/2/5 1221/2/5
f 1223/3/5 1216/3/5 1215/3/5
f 1224/3/5 1216/3/5 1223/3/5
f 1225/3/5 1218/3/5 1217/3/5
f 1226/3/5 1218/3/5 1225/3/5
f 1227/3/5 1220/3/5 1219/3/5
f 1228/3/5 1220/3/5 1227/3/5
f 1229/3/5 1222/3/5 1221/3/5
f 1230/3/5 1222/3/5 1229/3/5
f 1231/2/5 1224/2/5 1223/2/5
f 1232/2/5 1224/2/5 1231/2/5
f 1233/2/5 1226/2/5 1225/2/5
f 1234/2/5 1226/2/5 1233/2/5
f 1235/2/5 1228/2/5 1227/2/5
f 1236/2/5 1228/2/5 1235/2/5
f 1237/2/5 1230/2/5 1229/2/5
f 1238/2/5 1230/2/5 1237/2/5
f 1239/3/5 1232/3/5 1231/3/5
f 1240/3/5 1232/3/5 1239/3/5
f 1241/3/5 1234/3/5 1233/3/5
f 1242/3/5 1234/3/5 1241/3/5
f 1243/3/5 1236/3/5 1235/3/5
f 1244/3/5 1236/3/5 1243/3/5
f 1245/3/5 1238/3/5 1237/3/5
f 1246/3/5 1238/3/5 1245/3/5
f 1247/2/5 1240/2/5 1239/2/5
f 1248/2/5 1240/2/5 1247/2/5
f 1249/2/5 1242/2/5 1241/2/5
f 1250/2/5 1242/2/5 1249/2/5
f 1251/2/5 1244/2/5 1243/2/5
f 1252/2/5 1244/2/5 1251/2/5
f 1253/2/5 1246/2/5 1245/2/5
f 1254/2/5 1246/2/5 1253/2/5
f 1260/2/5 1256/2/5 1255/2/5
f 1261/2/5 1258/2/5 1257/2/5
f 1263/2/5 1260/2/5 1259/2/5
f 1264/2/5 1256/2/5 1260/2/5
f 1264/2/5 1260/2/5 1263/2/5
f 1265/2/5 1262/2/5 1261/2/5
f 1265/2/5 1261/2/5 1257/2/5
f 1266/2/5 1262/2/5 1265/2/5
f 1267/2/6 1268/2/6 1270/2/6
f 1270/2/6 1268/2/6 1271/2/6
f 1269/2/6 1270/2/6 1273/2/6
f 1273/2/6 1270/2/6 1274/2/6
f 1271/2/6 1272/2/6 1275/2/6
f 1275/2/6 1272/2/6 1276/2/6
f 1277/2/6 1278/2/6 1281/2/6
f 1281/2/6 1278/2/6 1282/2/6
f 1279/2/6 1280/2/6 1283/2/6
f 1283/2/6 1280/2/6 1284/2/6
f 1285/2/6 1286/2/6 1293/2/6
f 1293/2/6 1286/2/6 1294/2/6
f 1287/2/6 1288/2/6 1295/2/6
f 1295/2/6 1288/2/6 1296/2/6
f 1289/2/6 1290/2/6 1297/2/6
f 1297/2/6 1290/2/6 1298/2/6
f 1291/2/6 1292/2/6 1299/2/6
f 1299/2/6 1292/2/6 1300/2/6
f 1301/2/6 1302/2/6 1305/2/6
f 1305/2/6 1302/2/6 1306/2/6
f 1303/2/6 1304/2/6 1311/2/6
f 1311/2/6 1304/2/6 1312/2/6
f 1301/2/6 1305/2/6 1313/2/6
f 1313/2/6 1305/2/6 1314/2/6
f 1307/2/6 1308/2/6 1316/2/6
f 1309/2/6 1310/2/6 1317/2/6
f 1312/2/6 1304/2/6 1319/2/6
f 1319/2/6 1304/2/6 1320/2/6
f 1315/2/6 1316/2/6 1321/2/6
f 1316/2/6 1308/2/6 1322/2/6
f 1321/2/6 1316/2/6 1322/2/6
f 1317/2/6 1318/2/6 1323/2/6
f 1309/2/6 1317/2/6 1323/2/6
f 1323/2/6 1318/2/6 1324/2/6
f 1325/2/6 1326/2/6 1327/2/6
f 1327/2/6 1326/2/6 1328/2/6
f 1329/2/6 1330/2/6 1333/2/6
f 1333/2/6 1330/2/6 1334/2/6
f 1331/2/6 1332/2/6 1335/2/6
f 1335/2/6 1332/2/6 1336/2/6
f 1337/2/6 1338/2/6 1341/2/6
f 1341/2/6 1338/2/6 1342/2/6
f 1339/2/6 1340/2/6 1343/2/6
f 1343/2/6 1340/2/6 1344/2/6
f 1341/3/6 1342/3/6 1345/3/6
f 1345/3/6 1342/3/6 1346/3/6
f 1343/3/6 1344/3/6 1347/3/6
f 1347/3/6 1344/3/6 1348/3/6
f 1345/2/6 1346/2/6 1349/2/6
f 1349/2/6 1346/2/6 1350/2/6
f 1347/2/6 1348/2/6 1351/2/6
f 1351/2/6 1348/2/6 1352/2/6
f 1349/3/6 1350/3/6 1353/3/6
f 1353/3/6 1350/3/6 1354/3/6
f 1351/3/6 1352/3/6 1355/3/6
f 1355/3/6 1352/3/6 1356/3/6
f 1353/2/6 1354/2/6 1357/2/6
f 1357/2/6 1354/2/6 1358/2/6
f 1355/2/6 1356/2/6 1359/2/6
f 1359/2/6 1356/2/6 1360/2/6
f 1357/3/6 1358/3/6 1361/3/6
f 1361/3/6 1358/3/6 1362/3/6
f 1359/3/6 1360/3/6 1363/3/6
f 1363/3/6 1360/3/6 1364/3/6
f 1361/2/6 1362/2/6 1365/2/6
f 1365/2/6 1362/2/6 1366/2/6
f 1363/2/6 1364/2/6 1367/2/6
f 1367/2/6 1364/2/6 1368/2/6
f 1365/3/6 1366/3/6 1369/3/6
f 1369/3/6 1366/3/6 1370/3/6
f 1367/3/6 1368/3/6 1371/3/6
f 1371/3/6 1368/3/6 1372/3/6
f 1369/2/6 1370/2/6 1373/2/6
f 1373/2/6 1370/2/6 1374/2/6
f 1371/2/6 1372/2/6 1375/2/6
f 1375/2/6 1372/2/6 1376/2/6
f 1373/3/6 1374/3/6 1377/3/6
f 1377/3/6 1374/3/6 1378/3/6
f 1375/3/6 1376/3/6 1379/3/6
f 1379/3/6 1376/3/6 1380/3/6
f 1377/2/6 1378/2/6 1381/2/6
f 1381/2/6 1378/2/6 1382/2/6
f 1379/2/6 1380/2/6 1383/2/6
f 1383/2/6 1380/2/6 1384/2/6
f 1381/3/6 1382/3/6 1385/3/6
f 1385/3/6 1382/3/6 1386/3/6
f 1383/3/6 1384/3/6 1387/3/6
f 1387/3/6 1384/3/6 1388/3/6
f 1385/2/6 1386/2/6 1389/2/6
f 1389/2/6 1386/2/6 1390/2/6
f 1387/2/6 1388/2/6 1393/2/6
f 1393/2/6 1388/2/6 1394/2/6
f 1390/1/6 1391/1/6 1395/1/6
f 1389/1/6 1390/1/6 1395/1/6
f 1395/1/6 1391/1/6 1396/1/6
f 1393/1/6 1394/1/6 1397/1/6
f 1392/1/6 1393/1/6 1397/1/6
f 1397/1/6 1394/1/6 1398/1/6
f 1396/1/6 1391/1/6 1399/1/6
f 1399/1/6 1391/1/6 1400/1/6
f 1392/1/6 1397/1/6 1403/1/6
f 1403/1/6 1397/1/6 1404/1/6
f 1400/1/6 1401/1/6 1405/1/6
f 1405/1/6 1401/1/6 1406/1/6
f 1402/1/6 1403/1/6 1407/1/6
f 1407/1/6 1403/1/6 1408/1/6
f 1406/1/6 1401/1/6 1409/1/6
f 1402/1/6 1407/1/6 1412/1/6
f 1409/1/6 1410/1/6 1413/1/6
f 1406/1/6 1409/1/6 1413/1/6
f 1413/1/6 1410/1/6 1414/1/6
f 1411/1/6 1412/1/6 1415/1/6
f 1412/1/6 1407/1/6 1415/1/6
f 1415/1/6 1407/1/6 1416/1/6
f 1414/1/6 1410/1/6 1417/1/6
f 1417/1/6 1410/1/6 1418/1/6
f 1411/1/6 1415/1/6 1419/1/6
f 1419/1/6 1415/1/6 1420/1/6
f 1418/1/6 1410/1/6 1421/1/6
f 1421/1/6 1410/1/6 1422/1/6
f 1422/1/6 1410/1/6 1423/1/6
f 1411/1/6 1419/1/6 1426/1/6
f 1426/1/6 1419/1/6 1427/1/6
f 1427/1/6 1419/1/6 1428/1/6
f 1423/1/6 1424/1/6 1429/1/6
f 1422/1/6 1423/1/6 1429/1/6
f 1429/1/6 1424/1/6 1430/1/6
f 1430/1/6 1424/1/6 1431/1/6
f 1426/1/6 1427/1/6 1432/1/6
f 1425/1/6 1426/1/6 1432/1/6
f 1432/1/6 1427/1/6 1433/1/6
f 1433/1/6 1427/1/6 1434/1/6
f 1430/1/6 1431/1/6 1435/1/6
f 1432/1/6 1433/1/6 1435/1/6
f 1431/1/6 1432/1/6 1435/1/6
f 1435/1/6 1433/1/6 1436/1/6
f 1436/1/6 1433/1/6 1437/1/6
f 1437/1/6 1433/1/6 1438/1/6
f 1436/1/6 1437/1/6 1439/1/6
f 1439/1/6 1437/1/6 1440/1/6
f 1441/2/6 1442/2/6 1443/2/6
f 1443/2/6 1442/2/6 1444/2/6
f 1441/2/6 1443/2/6 1446/2/6
f 1446/2/6 1443/2/6 1447/2/6
f 1444/2/6 1442/2/6 1448/2/6
f 1448/2/6 1442/2/6 1449/2/6
f 1445/2/6 1446/2/6 1452/2/6
f 1452/2/6 1446/2/6 1453/2/6
f 1449/2/6 1450/2/6 1454/2/6
f 1454/2/6 1450/2/6 1455/2/6
f 1451/2/6 1452/2/6 1458/2/6
f 1458/2/6 1452/2/6 1459/2/6
f 1455/2/6 1456/2/6 1460/2/6
f 1460/2/6 1456/2/6 1461/2/6
f 1457/2/6 1458/2/6 1463/2/6
f 1463/2/6 1458/2/6 1464/2/6
f 1461/2/6 1462/2/6 1465/2/6
f 1465/2/6 1462/2/6 1466/2/6
f 1467/1/6 1468/1/6 1471/1/6
f 1469/1/6 1470/1/6 1474/1/6
f 1471/1/6 1472/1/6 1475/1/6
f 1467/1/6 1471/1/6 1475/1/6
f 1475/1/6 1472/1/6 1476/1/6
f 1473/1/6 1474/1/6 1477/1/6
f 1474/1/6 1470/1/6 1477/1/6
f 1477/1/6 1470/1/6 1478/1/6
f 1476/1/6 1472/1/6 1479/1/6
f 1473/1/6 1477/1/6 1482/1/6
f 1479/1/6 1480/1/6 1483/1/6
f 1481/1/6 1482/1/6 1486/1/6
f 1483/1/6 1484/1/6 1487/1/6
f 1476/1/6 1479/1/6 1487/1/6
f 1479/1/6 1483/1/6 1487/1/6
f 1487/1/6 1484/1/6 1488/1/6
f 1488/1/6 1484/1/6 1489/1/6
f 1485/1/6 1486/1/6 1492/1/6
f 1486/1/6 1482/1/6 1493/1/6
f 1492/1/6 1486/1/6 1493/1/6
f 1482/1/6 1477/1/6 1494/1/6
f 1493/1/6 1482/1/6 1494/1/6
f 1489/1/6 1490/1/6 1495/1/6
f 1488/1/6 1489/1/6 1495/1/6
f 1491/1/6 1492/1/6 1496/1/6
f 1492/1/6 1493/1/6 1496/1/6
f 1488/1/6 1495/1/6 1497/1/6
f 1495/1/6 1496/1/6 1497/1/6
f 1497/1/6 1496/1/6 1498/1/6
f 1498/1/6 1496/1/6 1499/1/6
f 1496/1/6 1493/1/6 1500/1/6
f 1499/1/6 1496/1/6 1500/1/6
f 1498/1/6 1499/1/6 1501/1/6
f 1501/1/6 1499/1/6 1502/1/6
f 1503/2/6 1504/2/6 1506/2/6
f 1506/2/6 1504/2/6 1507/2/6
f 1507/2/6 1504/2/6 1508/2/6
f 1508/2/6 1504/2/6 1509/2/6
f 1505/2/6 1506/2/6 1512/2/6
f 1506/2/6 1507/2/6 1512/2/6
f 1512/2/6 1507/2/6 1513/2/6
f 1513/2/6 1507/2/6 1514/2/6
f 1508/2/6 1509/2/6 1515/2/6
f 1509/2/6 1510/2/6 1515/2/6
f 1515/2/6 1510/2/6 1516/2/6
f 1516/2/6 1510/2/6 1517/2/6
f 1512/2/6 1513/2/6 1519/2/6
f 1511/2/6 1512/2/6 1519/2/6
f 1519/2/6 1513/2/6 1520/2/6
f 1517/2/6 1518/2/6 1521/2/6
f 1516/2/6 1517/2/6 1521/2/6
f 1521/2/6 1518/2/6 1522/2/6
f 1523/2/6 1524/2/6 1527/2/6
f 1527/2/6 1524/2/6 1528/2/6
f 1525/2/6 1526/2/6 1529/2/6
f 1529/2/6 1526/2/6 1530/2/6
f 1527/3/6 1528/3/6 1531/3/6
f 1531/3/6 1528/3/6 1532/3/6
f 1529/3/6 1530/3/6 1533/3/6
f 1533/3/6 1530/3/6 1534/3/6
f 1531/2/6 1532/2/6 1535/2/6
f 1535/2/6 1532/2/6 1536/2/6
f 1533/2/6 1534/2/6 1537/2/6
f 1537/2/6 1534/2/6 1538/2/6
f 1535/3/6 1536/3/6 1539/3/6
f 1539/3/6 1536/3/6 1540/3/6
f 1537/3/6 1538/3/6 1541/3/6
f 1541/3/6 1538/3/6 1542/3/6
f 1539/2/6 1540/2/6 1543/2/6
f 1543/2/6 1540/2/6 1544/2/6
f 1541/2/6 1542/2/6 1545/2/6
f 1545/2/6 1542/2/6 1546/2/6
f 1543/3/6 1544/3/6 1547/3/6
f 1547/3/6 1544/3/6 1548/3/6
f 1545/3/6 1546/3/6 1549/3/6
f 1549/3/6 1546/3/6 1550/3/6
f 1547/2/6 1548/2/6 1551/2/6
f 1551/2/6 1548/2/6 1552/2/6
f 1549/2/6 1550/2/6 1553/2/6
f 1553/2/6 1550/2/6 1554/2/6
f 1551/3/6 1552/3/6 1555/3/6
f 1555/3/6 1552/3/6 1556/3/6
f 1553/3/6 1554/3/6 1557/3/6
f 1557/3/6 1554/3/6 1558/3/6
f 1555/2/6 1556/2/6 1559/2/6
f 1559/2/6 1556/2/6 1560/2/6
f 1557/2/6 1558/2/6 1561/2/6
f 1561/2/6 1558/2/6 1562/2/6
f 1559/3/6 1560/3/6 1563/3/6
f 1563/3/6 1560/3/6 1564/3/6
f 1561/3/6 1562/3/6 1565/3/6
f 1565/3/6 1562/3/6 1566/3/6
f 1563/2/6 1564/2/6 1567/2/6
f 1567/2/6 1564/2/6 1568/2/6
f 1565/2/6 1566/2/6 1569/2/6
f 1569/2/6 1566/2/6 1570/2/6
f 1567/3/6 1568/3/6 1571/3/6
f 1571/3/6 1568/3/6 1572/3/6
f 1569/3/6 1570/3/6 1573/3/6
f 1573/3/6 1570/3/6 1574/3/6
f 1571/2/6 1572/2/6 1575/2/6
f 1573/2/6 1574/2/6 1576/2/6
f 1571/2/6 1575/2/6 1577/2/6
f 1575/2/6 1576/2/6 1577/2/6
f 1577/2/6 1576/2/6 1578/2/6
f 1578/2/6 1576/2/6 1579/2/6
f 1576/2/6 1574/2/6 1580/2/6
f 1579/2/6 1576/2/6 1580/2/6
f 1578/1/6 1579/1/6 1581/1/6
f 1581/1/6 1579/1/6 1582/1/6
f 1582/1/6 1579/1/6 1583/1/6
f 1583/1/6 1579/1/6 1584/1/6
f 1582/1/6 1583/1/6 1585/1/6
f 1585/1/6 1583/1/6 1586/1/6
f 1586/1/6 1583/1/6 1587/1/6
f 1587/1/6 1583/1/6 1588/1/6
f 1586/1/6 1587/1/6 1589/1/6
f 1589/1/6 1587/1/6 1590/1/6
f 1590/1/6 1587/1/6 1591/1/6
f 1591/1/6 1587/1/6 1592/1/6
f 1590/1/6 1591/1/6 1593/1/6
f 1593/1/6 1591/1/6 1594/1/6
f 1594/1/6 1591/1/6 1595/1/6
f 1595/1/6 1591/1/6 1596/1/6
f 1594/1/6 1595/1/6 1597/1/6
f 1597/1/6 1595/1/6 1598/1/6
f 1599/2/6 1600/2/6 1602/2/6
f 1602/2/6 1600/2/6 1603/2/6
f 1601/2/6 1602/2/6 1606/2/6
f 1603/2/6 1604/2/6 1606/2/6
f 1602/2/6 1603/2/6 1606/2/6
f 1606/2/6 1604/2/6 1607/2/6
f 1607/2/6 1604/2/6 1608/2/6
f 1608/2/6 1604/2/6 1609/2/6
f 1605/2/6 1606/2/6 1611/2/6
f 1606/2/6 1607/2/6 1611/2/6
f 1611/2/6 1607/2/6 1612/2/6
f 1609/2/6 1610/2/6 1613/2/6
f 1608/2/6 1609/2/6 1613/2/6
f 1613/2/6 1610/2/6 1614/2/6
f 1605/2/6 1611/2/6 1615/2/6
f 1615/2/6 1611/2/6 1616/2/6
f 1614/2/6 1610/2/6 1617/2/6
f 1617/2/6 1610/2/6 1618/2/6
f 1615/3/6 1616/3/6 1619/3/6
f 1619/3/6 1616/3/6 1620/3/6
f 1617/3/6 1618/3/6 1621/3/6
f 1621/3/6 1618/3/6 1622/3/6
f 1619/2/6 1620/2/6 1623/2/6
f 1623/2/6 1620/2/6 1624/2/6
f 1621/2/6 1622/2/6 1625/2/6
f 1625/2/6 1622/2/6 1626/2/6
f 1623/3/6 1624/3/6 1627/3/6
f 1627/3/6 1624/3/6 1628/3/6
f 1625/3/6 1626/3/6 1629/3/6
f 1629/3/6 1626/3/6 1630/3/6
f 1627/2/6 1628/2/6 1631/2/6
f 1631/2/6 1628/2/6 1632/2/6
f 1629/2/6 1630/2/6 1633/2/6
f 1633/2/6 1630/2/6 1634/2/6
f 1631/3/6 1632/3/6 1635/3/6
f 1635/3/6 1632/3/6 1636/3/6
f 1633/3/6 1634/3/6 1637/3/6
f 1637/3/6 1634/3/6 1638/3/6
f 1635/2/6 1636/2/6 1639/2/6
f 1639/2/6 1636/2/6 1640/2/6
f 1637/2/6 1638/2/6 1641/2/6
f 1641/2/6 1638/2/6 1642/2/6
f 1639/3/6 1640/3/6 1643/3/6
f 1643/3/6 1640/3/6 1644/3/6
f 1641/3/6 1642/3/6 1645/3/6
f 1645/3/6 1642/3/6 1646/3/6
f 1643/2/6 1644/2/6 1647/2/6
f 1647/2/6 1644/2/6 1648/2/6
f 1645/2/6 1646/2/6 1649/2/6
f 1649/2/6 1646/2/6 1650/2/6
f 1647/3/6 1648/3/6 1651/3/6
f 1651/3/6 1648/3/6 1652/3/6
f 1649/3/6 1650/3/6 1653/3/6
f 1653/3/6 1650/3/6 1654/3/6
f 1651/2/6 1652/2/6 1655/2/6
f 1655/2/6 1652/2/6 1656/2/6
f 1653/2/6 1654/2/6 1657/2/6
f 1657/2/6 1654/2/6 1658/2/6
f 1655/3/6 1656/3/6 1659/3/6
f 1659/3/6 1656/3/6 1660/3/6
f 1657/3/6 1658/3/6 1661/3/6
f 1661/3/6 1658/3/6 1662/3/6
f 1659/2/6 1660/2/6 1663/2/6
f 1661/2/6 1662/2/6 1664/2/6
f 1659/2/6 1663/2/6 1665/2/6
f 1663/2/6 1664/2/6 1665/2/6
f 1664/2/6 1662/2/6 1666/2/6
f 1665/2/6 1664/2/6 1666/2/6
f 1667/2/6 1668/2/6 1670/2/6
f 1670/2/6 1668/2/6 1671/2/6
f 1671/2/6 1668/2/6 1672/2/6
f 1672/2/6 1668/2/6 1673/2/6
f 1669/2/6 1670/2/6 1675/2/6
f 1670/2/6 1671/2/6 1675/2/6
f 1675/2/6 1671/2/6 1676/2/6
f 1673/2/6 1674/2/6 1677/2/6
f 1672/2/6 1673/2/6 1677/2/6
f 1677/2/6 1674/2/6 1678/2/6
f 1675/3/6 1676/3/6 1679/3/6
f 1679/3/6 1676/3/6 1680/3/6
f 1680/3/6 1676/3/6 1681/3/6
f 1677/3/6 1678/3/6 1682/3/6
f 1682/3/6 1678/3/6 1683/3/6
f 1683/3/6 1678/3/6 1684/3/6
f 1679/2/6 1680/2/6 1685/2/6
f 1685/2/6 1680/2/6 1686/2/6
f 1683/2/6 1684/2/6 1687/2/6
f 1687/2/6 1684/2/6 1688/2/6
f 1685/3/6 1686/3/6 1689/3/6
f 1689/3/6 1686/3/6 1690/3/6
f 1687/3/6 1688/3/6 1691/3/6
f 1691/3/6 1688/3/6 1692/3/6
f 1689/2/6 1690/2/6 1693/2/6
f 1693/2/6 1690/2/6 1694/2/6
f 1691/2/6 1692/2/6 1695/2/6
f 1695/2/6 1692/2/6 1696/2/6
f 1693/3/6 1694/3/6 1697/3/6
f 1697/3/6 1694/3/6 1698/3/6
f 1695/3/6 1696/3/6 1699/3/6
f 1699/3/6 1696/3/6 1700/3/6
f 1697/2/6 1698/2/6 1701/2/6
f 1701/2/6 1698/2/6 1702/2/6
f 1699/2/6 1700/2/6 1703/2/6
f 1703/2/6 1700/2/6 1704/2/6
f 1701/3/6 1702/3/6 1705/3/6
f 1705/3/6 1702/3/6 1706/3/6
f 1703/3/6 1704/3/6 1707/3/6
f 1707/3/6 1704/3/6 1708/3/6
f 1705/2/6 1706/2/6 1709/2/6
f 1709/2/6 1706/2/6 1710/2/6
f 1707/2/6 1708/2/6 1711/2/6
f 1711/2/6 1708/2/6 1712/2/6
f 1709/3/6 1710/3/6 1713/3/6
f 1713/3/6 1710/3/6 1714/3/6
f 1711/3/6 1712/3/6 1715/3/6
f 1715/3/6 1712/3/6 1716/3/6
f 1713/2/6 1714/2/6 1717/2/6
f 1717/2/6 1714/2/6 1718/2/6
f 1715/2/6 1716/2/6 1719/2/6
f 1719/2/6 1716/2/6 1720/2/6
f 1717/3/6 1718/3/6 1721/3/6
f 1721/3/6 1718/3/6 1722/3/6
f 1719/3/6 1720/3/6 1723/3/6
f 1723/3/6 1720/3/6 1724/3/6
f 1721/2/6 1722/2/6 1725/2/6
f 1723/2/6 1724/2/6 1728/2/6
f 1725/2/6 1726/2/6 1729/2/6
f 1727/2/6 1728/2/6 1730/2/6
f 1725/2/6 1729/2/6 1731/2/6
f 1729/2/6 1730/2/6 1731/2/6
f 1721/2/6 1725/2/6 1731/2/6
f 1730/2/6 1728/2/6 1732/2/6
f 1731/2/6 1730/2/6 1732/2/6
f 1728/2/6 1724/2/6 1732/2/6
f 1733/2/6 1734/2/6 1735/2/6
f 1735/2/6 1734/2/6 1736/2/6
f 1736/2/6 1734/2/6 1737/2/6
f 1737/2/6 1734/2/6 1738/2/6
f 1735/3/6 1736/3/6 1740/3/6
f 1740/3/6 1736/3/6 1741/3/6
f 1741/3/6 1736/3/6 1742/3/6
f 1737/3/6 1738/3/6 1743/3/6
f 1743/3/6 1738/3/6 1744/3/6
f 1744/3/6 1738/3/6 1745/3/6
f 1739/2/6 1740/2/6 1747/2/6
f 1740/2/6 1741/2/6 1747/2/6
f 1747/2/6 1741/2/6 1748/2/6
f 1745/2/6 1746/2/6 1749/2/6
f 1744/2/6 1745/2/6 1749/2/6
f 1749/2/6 1746/2/6 1750/2/6
f 1739/2/6 1747/2/6 1751/2/6
f 1751/2/6 1747/2/6 1752/2/6
f 1750/2/6 1746/2/6 1753/2/6
f 1753/2/6 1746/2/6 1754/2/6
f 1751/3/6 1752/3/6 1755/3/6
f 1755/3/6 1752/3/6 1756/3/6
f 1753/3/6 1754/3/6 1757/3/6
f 1757/3/6 1754/3/6 1758/3/6
f 1755/2/6 1756/2/6 1759/2/6
f 1759/2/6 1756/2/6 1760/2/6
f 1757/2/6 1758/2/6 1761/2/6
f 1761/2/6 1758/2/6 1762/2/6
f 1759/3/6 1760/3/6 1763/3/6
f 1763/3/6 1760/3/6 1764/3/6
f 1761/3/6 1762/3/6 1765/3/6
f 1765/3/6 1762/3/6 1766/3/6
f 1763/2/6 1764/2/6 1767/2/6
f 1767/2/6 1764/2/6 1768/2/6
f 1765/2/6 1766/2/6 1769/2/6
f 1769/2/6 1766/2/6 1770/2/6
f 1767/3/6 1768/3/6 1771/3/6
f 1771/3/6 1768/3/6 1772/3/6
f 1769/3/6 1770/3/6 1773/3/6
f 1773/3/6 1770/3/6 1774/3/6
f 1771/2/6 1772/2/6 1775/2/6
f 1775/2/6 1772/2/6 1776/2/6
f 1773/2/6 1774/2/6 1777/2/6
f 1777/2/6 1774/2/6 1778/2/6
f 1775/3/6 1776/3/6 1779/3/6
f 1779/3/6 1776/3/6 1780/3/6
f 1777/3/6 1778/3/6 1781/3/6
f 1781/3/6 1778/3/6 1782/3/6
f 1779/2/6 1780/2/6 1783/2/6
f 1781/2/6 1782/2/6 1786/2/6
f 1783/2/6 1784/2/6 1787/2/6
f 1785/2/6 1786/2/6 1790/2/6
f 1787/2/6 1788/2/6 1791/2/6
f 1779/2/6 1783/2/6 1791/2/6
f 1783/2/6 1787/2/6 1791/2/6
f 1791/2/6 1788/2/6 1792/2/6
f 1789/2/6 1790/2/6 1793/2/6
f 1790/2/6 1786/2/6 1794/2/6
f 1786/2/6 1782/2/6 1794/2/6
f 1793/2/6 1790/2/6 1794/2/6
f 1791/3/6 1792/3/6 1795/3/6
f 1792/3/6 1793/3/6 1795/3/6
f 1793/3/6 1794/3/6 1795/3/6
f 1795/3/6 1794/3/6 1796/3/6
f 1795/2/6 1796/2/6 1797/2/6
f 1797/2/6 1796/2/6 1798/2/6
f 1798/2/6 1796/2/6 1799/2/6
f 1799/2/6 1796/2/6 1800/2/6
f 1798/2/6 1799/2/6 1801/2/6
f 1801/2/6 1799/2/6 1802/2/6
f 1803/3/6 1804/3/6 1806/3/6
f 1806/3/6 1804/3/6 1807/3/6
f 1805/2/6 1806/2/6 1810/2/6
f 1807/2/6 1808/2/6 1810/2/6
f 1806/2/6 1807/2/6 1810/2/6
f 1810/2/6 1808/2/6 1811/2/6
f 1809/2/6 1810/2/6 1813/2/6
f 1811/2/6 1812/2/6 1813/2/6
f 1810/2/6 1811/2/6 1813/2/6
f 1813/2/6 1812/2/6 1814/2/6
f 1813/3/6 1814/3/6 1815/3/6
f 1815/3/6 1814/3/6 1816/3/6
f 1815/2/6 1816/2/6 1817/2/6
f 1817/2/6 1816/2/6 1818/2/6
f 1817/3/6 1818/3/6 1819/3/6
f 1819/3/6 1818/3/6 1820/3/6
f 1819/2/6 1820/2/6 1821/2/6
f 1821/2/6 1820/2/6 1822/2/6
f 1821/3/6 1822/3/6 1823/3/6
f 1823/3/6 1822/3/6 1824/3/6
f 1823/2/6 1824/2/6 1825/2/6
f 1825/2/6 1824/2/6 1826/2/6
f 1825/3/6 1826/3/6 1827/3/6
f 1827/3/6 1826/3/6 1828/3/6
f 1827/2/6 1828/2/6 1829/2/6
f 1829/2/6 1828/2/6 1830/2/6
f 1830/2/6 1828/2/6 1831/2/6
f 1831/2/6 1828/2/6 1832/2/6
f 1830/2/6 1831/2/6 1833/2/6
f 1833/2/6 1831/2/6 1834/2/6
f 1834/2/6 1831/2/6 1835/2/6
f 1835/2/6 1831/2/6 1836/2/6
f 1834/2/6 1835/2/6 1837/2/6
f 1837/2/6 1835/2/6 1838/2/6
